<svg xmlns="http://www.w3.org/2000/svg" width="386" height="256" viewBox="0 0 386 256">
    <g fill="none" fill-rule="evenodd">
        <path fill="#095EB3" d="M292.928 226.138c3.677-4.562 5.993-8.063 6.372-14.184a35.068 35.068 0 0 0 23.147 8.652c19.026 0 34.453-14.84 34.453-33.153 0-18.314-15.388-33.18-34.453-33.18a35.275 35.275 0 0 0-15.413 3.527 26.773 26.773 0 0 0-19.366-8.18c-2.48.005-4.95.344-7.34 1.01-2.16-15.98-16.33-28.342-33.537-28.342a34.388 34.388 0 0 0-22.335 8.153 27.09 27.09 0 0 1-4.632-7.197v-2.897H182.14L93.517 228.17c15.615.114 30.129-8.046 38.168-21.46a33.408 33.408 0 0 0 25.22 12.124 33.404 33.404 0 0 0 25.588-11.323c4.705 4.8 11.27 7.299 17.97 6.84a22.979 22.979 0 0 0 16.875-9.226 22.827 22.827 0 0 0 16.879 7.42 23.667 23.667 0 0 0 3.925-.355c.42 6.044 2.722 9.439 6.346 13.949"/>
        <path fill="#095EB3" d="M93.386 225.56c-3.677-4.561-5.993-8.048-6.372-14.183a35.016 35.016 0 0 1-23.134 8.639c-19.025 0-34.465-14.84-34.465-33.153 0-18.314 15.44-33.114 34.465-33.114a35.366 35.366 0 0 1 15.414 3.54 26.76 26.76 0 0 1 19.365-8.193c2.477.01 4.942.353 7.327 1.022 2.16-15.993 16.33-28.355 33.537-28.355a34.492 34.492 0 0 1 22.348 8.14 26.761 26.761 0 0 0 4.645-7.17v-2.95h37.685l88.61 107.823c-15.608.121-30.12-8.023-38.169-21.42a33.42 33.42 0 0 1-25.223 12.109 33.417 33.417 0 0 1-25.585-11.323c-4.108 4.234-8.583 21.656-15.073 21.656-7.642 0-15.702-18.431-19.785-24.042a22.8 22.8 0 0 1-16.918 7.42 23.51 23.51 0 0 1-3.926-.34c-.431 6.03-2.734 9.438-6.359 13.934"/>
        <path fill="#00E833" fill-rule="nonzero" d="M209.591 250.94a1.648 1.648 0 0 1-1.448-.913 1.654 1.654 0 0 1 .14-1.709l.994-1.31a1.647 1.647 0 0 1 2.227-.215c.685.521.855 1.482.39 2.207l-.994 1.31a1.648 1.648 0 0 1-1.309.63zm6.962-9.176a1.648 1.648 0 0 1-1.45-.913 1.654 1.654 0 0 1 .141-1.71l.995-1.31a1.647 1.647 0 0 1 2.226-.215c.685.522.855 1.482.39 2.207l-.994 1.311c-.322.387-.806.6-1.308.577v.053zm6.96-9.177a1.652 1.652 0 0 1-1.322-2.648l.996-1.31a1.647 1.647 0 0 1 2.226-.215c.685.521.855 1.482.39 2.207l-.994 1.31c-.327.37-.803.573-1.295.551v.105zm6.949-9.176a1.654 1.654 0 0 1-1.308-2.648l.994-1.311a1.647 1.647 0 0 1 2.226-.214c.685.52.855 1.481.39 2.206l-.994 1.311a1.634 1.634 0 0 1-1.308.472v.184zm6.96-9.176a1.654 1.654 0 0 1-1.308-2.648l.995-1.311a1.646 1.646 0 0 1 2.227-.215c.684.521.854 1.482.39 2.207l-.995 1.311a1.647 1.647 0 0 1-1.308.472v.184zm6.962-9.177a1.581 1.581 0 0 1-.995-.34 1.667 1.667 0 0 1-.327-2.308l.995-1.31a1.66 1.66 0 0 1 2.96.77 1.64 1.64 0 0 1-.317 1.222l-.995 1.31a1.647 1.647 0 0 1-1.321.394v.262zm6.96-9.176a1.581 1.581 0 0 1-.994-.341 1.64 1.64 0 0 1-.327-2.307l.995-1.311a1.646 1.646 0 0 1 2.227-.215c.684.522.854 1.482.39 2.207l-.995 1.311a1.607 1.607 0 0 1-1.295.341v.315zm6.962-9.177a1.581 1.581 0 0 1-.994-.34 1.64 1.64 0 0 1-.328-2.308l.995-1.31a1.647 1.647 0 0 1 2.227-.215c.684.521.854 1.482.39 2.207l-.995 1.311c-.37.278-.842.383-1.295.288v.367zm6.948-9.176a1.542 1.542 0 0 1-.981-.34 1.64 1.64 0 0 1-.328-2.308l.995-1.31a1.647 1.647 0 0 1 2.227-.215c.684.521.854 1.482.39 2.207l-.995 1.31c-.383.261-.858.347-1.308.237v.42zm6.961-9.176a1.654 1.654 0 0 1-1.308-2.648l.994-1.311a1.647 1.647 0 0 1 2.227-.215c.684.522.854 1.482.39 2.207l-.994 1.311a1.646 1.646 0 0 1-1.361.184l.052.472zm6.961-9.177a1.654 1.654 0 0 1-1.308-2.648l.994-1.31a1.647 1.647 0 0 1 2.227-.215c.685.521.854 1.482.39 2.207l-.994 1.311c-.4.224-.873.271-1.309.131v.524zm6.961-9.176a1.581 1.581 0 0 1-.994-.34 1.64 1.64 0 0 1-.327-2.308l.994-1.31a1.647 1.647 0 0 1 2.227-.215c.685.521.854 1.482.39 2.207l-.994 1.31a1.646 1.646 0 0 1-1.296.08V150zm6.961-9.176a1.581 1.581 0 0 1-.994-.341 1.64 1.64 0 0 1-.327-2.307l.994-1.311a1.647 1.647 0 0 1 2.227-.215c.685.522.854 1.482.39 2.207l-.994 1.311c-.41.19-.88.2-1.296.026v.63zm6.948-9.177a1.542 1.542 0 0 1-.981-.34 1.64 1.64 0 0 1-.327-2.308l.994-1.31a1.647 1.647 0 0 1 2.227-.215c.685.521.854 1.482.39 2.207l-.994 1.31c-.421.175-.895.166-1.309-.025v.681zm6.961-9.176a1.654 1.654 0 0 1-1.308-2.648l.994-1.31a1.646 1.646 0 0 1 2.227-.215c.685.52.855 1.482.39 2.207l-.994 1.31c-.428.158-.902.13-1.309-.078v.734zm6.961-9.176a1.654 1.654 0 0 1-1.308-2.648l.994-1.311a1.647 1.647 0 0 1 2.227-.215c.685.522.855 1.482.39 2.207l-.929.472c-.299.431-.784.694-1.308.708l-.066.787zm6.962-9.177a1.581 1.581 0 0 1-.995-.34 1.667 1.667 0 0 1-.327-2.308l.994-1.31a1.66 1.66 0 0 1 2.316-.315c.322.416.425.963.275 1.468l-.994 1.31c-.302.401-.769.642-1.27.656v.84zm6.96-9.176a1.66 1.66 0 0 1-.994-.34 1.64 1.64 0 0 1-.327-2.308l.995-1.31a1.647 1.647 0 0 1 2.226-.215c.685.52.855 1.482.39 2.207l-.994 1.31c-.446.106-.915.02-1.295-.235v.891zm6.962-9.176a1.667 1.667 0 0 1-1.308-2.622l.994-1.311a1.648 1.648 0 0 1 2.924.293c.225.58.106 1.236-.307 1.7l-.995 1.31a1.66 1.66 0 0 1-1.308-.314v.944zm6.948-9.177a1.667 1.667 0 0 1-1.308-2.622l.994-1.31a1.648 1.648 0 0 1 2.924.293c.225.58.106 1.236-.307 1.7l-.995 1.31a1.673 1.673 0 0 1-1.308-.367v.996zm6.96-9.176a1.654 1.654 0 0 1-1.308-2.648l.995-1.311a1.648 1.648 0 0 1 2.924.293c.225.58.106 1.236-.307 1.7l-.995 1.31a1.686 1.686 0 0 1-1.308-.393v1.049zm6.962-9.176a1.654 1.654 0 0 1-1.308-2.648l.994-1.311a1.648 1.648 0 0 1 2.924.293c.225.58.106 1.236-.307 1.7l-.995 1.31a1.686 1.686 0 0 1-1.308-.446v1.102zm6.961-9.177a1.66 1.66 0 0 1-.994-.34 1.64 1.64 0 0 1-.328-2.308l.995-1.31a1.648 1.648 0 0 1 2.924.293c.225.579.106 1.236-.307 1.699l-.982 1.31a1.686 1.686 0 0 1-1.308-.497v1.153zm6.961-9.176a1.66 1.66 0 0 1-.994-.34 1.64 1.64 0 0 1-.327-2.308l.994-1.311a1.648 1.648 0 0 1 2.924.293c.225.58.106 1.236-.307 1.7l-.995 1.31a1.647 1.647 0 0 1-1.295-.55v1.206zM210.35 244.018a1.698 1.698 0 0 1-.745-.183 1.65 1.65 0 0 1-.72-2.229l.746-1.468a1.649 1.649 0 0 1 2.218-.728 1.655 1.655 0 0 1 .726 2.222l-.76 1.482c-.28.553-.845.902-1.465.904zm5.234-10.317c-.258 0-.513-.058-.746-.17a1.666 1.666 0 0 1-.72-2.228l.747-1.469a1.65 1.65 0 0 1 2.224-.72 1.638 1.638 0 0 1 .72 2.215l-.746 1.481a1.661 1.661 0 0 1-1.479.905v-.014zm5.234-10.303a1.672 1.672 0 0 1-.746-.17 1.65 1.65 0 0 1-.72-2.23l.747-1.467a1.649 1.649 0 0 1 2.217-.728 1.655 1.655 0 0 1 .727 2.222l-.746 1.468c-.283.551-.847.9-1.466.905h-.013zm5.234-10.304a1.503 1.503 0 0 1-.746-.184 1.653 1.653 0 0 1-.733-2.215l.76-1.468a1.649 1.649 0 1 1 2.93 1.494l-.745 1.468a1.635 1.635 0 0 1-1.44.905h-.026zm5.234-10.304c-.26.004-.517-.06-.746-.183a1.638 1.638 0 0 1-.72-2.216l.746-1.481a1.652 1.652 0 0 1 2.225-.721 1.658 1.658 0 0 1 .72 2.229l-.746 1.468c-.28.547-.84.895-1.453.904h-.026zm5.234-10.303c-.26.003-.517-.06-.746-.184a1.638 1.638 0 0 1-.72-2.215l.746-1.482a1.653 1.653 0 1 1 2.944 1.508l-.759 1.468c-.271.543-.82.891-1.426.905h-.04zm5.234-10.304a1.653 1.653 0 0 1-1.465-2.399l.758-1.481a1.649 1.649 0 1 1 2.931 1.507l-.746 1.468c-.275.545-.83.893-1.439.905h-.04zm5.234-10.304a1.698 1.698 0 0 1-.746-.183 1.65 1.65 0 0 1-.72-2.229l.746-1.468a1.67 1.67 0 0 1 2.237-.76 1.675 1.675 0 0 1 .76 2.241l-.76 1.468c-.27.566-.839.927-1.465.931h-.052zm5.234-10.304a1.661 1.661 0 0 1-1.4-.799 1.668 1.668 0 0 1-.066-1.613l.746-1.468a1.647 1.647 0 0 1 2.16-.618 1.653 1.653 0 0 1 .77 2.113l-.745 1.48c-.258.55-.796.911-1.4.945l-.065-.04zm5.233-10.316a1.635 1.635 0 0 1-1.411-.784 1.641 1.641 0 0 1-.054-1.615l.746-1.469a1.65 1.65 0 0 1 2.224-.72 1.638 1.638 0 0 1 .72 2.215l-.746 1.481c-.279.528-.817.868-1.413.892h-.066zm5.234-10.304a1.672 1.672 0 0 1-.745-.17 1.65 1.65 0 0 1-.72-2.23l.746-1.467a1.649 1.649 0 0 1 2.218-.728 1.655 1.655 0 0 1 .726 2.222l-.76 1.481c-.27.524-.798.864-1.386.892h-.079zm5.234-10.304a1.738 1.738 0 0 1-.759-.17 1.666 1.666 0 0 1-.72-2.229l.76-1.468a1.647 1.647 0 0 1 2.159-.618 1.653 1.653 0 0 1 .772 2.112l-.59 1.469c-.29.574-.887.928-1.53.904h-.092zm5.234-10.304c-.26.004-.517-.06-.746-.183a1.638 1.638 0 0 1-.72-2.216l.746-1.468a1.65 1.65 0 1 1 2.945 1.495l-.602 1.468a1.661 1.661 0 0 1-1.531.904h-.092zm5.234-10.303a1.503 1.503 0 0 1-.746-.184 1.653 1.653 0 0 1-.733-2.215l.76-1.482a1.649 1.649 0 1 1 2.93 1.508l-.588 1.507a1.635 1.635 0 0 1-1.518.866h-.105zm5.234-10.304a1.568 1.568 0 0 1-.746-.184 1.653 1.653 0 0 1-.72-2.215l.746-1.481a1.701 1.701 0 0 1 2.284-.767 1.707 1.707 0 0 1 .765 2.287l-.707 1.455c-.29.569-.88.92-1.517.905h-.105zm5.234-10.304a1.698 1.698 0 0 1-.746-.183 1.65 1.65 0 0 1-.72-2.229l.864-1.442a1.636 1.636 0 0 1 2.211-.72 1.68 1.68 0 0 1 .733 2.228l-.72 1.442c-.284.568-.87.92-1.504.904h-.118zm5.234-10.304a1.75 1.75 0 0 1-.76-.183 1.666 1.666 0 0 1-.719-2.229l.76-1.468a1.647 1.647 0 0 1 2.158-.618 1.653 1.653 0 0 1 .772 2.113l-.589 1.48a1.674 1.674 0 0 1-1.491.905h-.131zm5.234-10.303a1.698 1.698 0 0 1-.746-.184 1.65 1.65 0 0 1-.72-2.228l.746-1.469a1.649 1.649 0 0 1 2.218-.727 1.655 1.655 0 0 1 .726 2.222l-.602 1.481a1.688 1.688 0 0 1-1.492.905h-.13zm5.234-10.317a1.635 1.635 0 0 1-1.412-.783 1.641 1.641 0 0 1-.054-1.616l.746-1.468a1.647 1.647 0 0 1 2.16-.619 1.653 1.653 0 0 1 .77 2.113l-.588 1.481a1.648 1.648 0 0 1-1.479.892h-.143zm5.233-10.304c-.258 0-.513-.058-.745-.17a1.666 1.666 0 0 1-.72-2.229l.746-1.468a1.65 1.65 0 0 1 2.342-.708 1.638 1.638 0 0 1 .72 2.216l-.72 1.468c-.29.548-.86.89-1.479.891h-.144zm5.234-10.304c-.26.004-.516-.06-.745-.183a1.638 1.638 0 0 1-.72-2.216l.746-1.468a1.65 1.65 0 1 1 2.944 1.495L316.65 37a1.635 1.635 0 0 1-1.466.904h-.157zM206.36 249.249a1.933 1.933 0 0 1-.458 0 1.65 1.65 0 0 1-1.113-2.058l.458-1.586a1.65 1.65 0 1 1 2.783-.666c.406.43.552 1.043.384 1.61l-.471 1.586a1.636 1.636 0 0 1-1.583 1.114zm3.284-11.09c-.157.019-.315.019-.471 0a1.65 1.65 0 0 1-1.112-2.059l.47-1.586a1.651 1.651 0 1 1 3.167.944l-.47 1.586a1.649 1.649 0 0 1-1.584 1.115zm3.271-11.09a1.933 1.933 0 0 1-.458-.066 1.65 1.65 0 0 1-1.112-2.058l.458-1.587a1.674 1.674 0 0 1 2.054-1.114 1.65 1.65 0 0 1 1.112 2.058l-.47 1.586a1.636 1.636 0 0 1-1.584 1.18zm3.284-11.091a1.946 1.946 0 0 1-.47-.066 1.65 1.65 0 0 1-1.113-2.058l.471-1.586a1.638 1.638 0 0 1 2.041-1.114 1.665 1.665 0 0 1 1.126 2.058l-.471 1.586a1.65 1.65 0 0 1-1.584 1.18zm3.271-11.09a1.933 1.933 0 0 1-.458 0 1.65 1.65 0 0 1-1.112-2.058l.458-1.587a1.651 1.651 0 1 1 3.167.944l-.471 1.586a1.636 1.636 0 0 1-1.584 1.102v.013zm3.285-11.09a1.946 1.946 0 0 1-.471-.066 1.65 1.65 0 0 1-1.113-2.058l.472-1.586a1.638 1.638 0 0 1 2.04-1.115 1.665 1.665 0 0 1 1.126 2.058l-.471 1.587a1.65 1.65 0 0 1-1.583 1.18zm3.27-11.09a1.933 1.933 0 0 1-.457-.066 1.65 1.65 0 0 1-1.112-2.058l.458-1.587a1.65 1.65 0 1 1 2.783-.666c.405.43.551 1.043.383 1.61l-.47 1.586a1.636 1.636 0 0 1-1.584 1.18zm3.285-11.091c-.156.019-.314.019-.47 0a1.65 1.65 0 0 1-1.165-2.137l.47-1.586a1.647 1.647 0 1 1 2.827-.735c.413.456.538 1.102.327 1.679l-.458 1.586a1.662 1.662 0 0 1-1.53 1.193zm3.271-11.09a1.933 1.933 0 0 1-.458 0 1.65 1.65 0 0 1-1.112-2.058l.458-1.587a1.674 1.674 0 0 1 2.054-1.114 1.65 1.65 0 0 1 1.113 2.058l-.471 1.586a1.649 1.649 0 0 1-1.584 1.115zm3.285-11.09c-.157.018-.315.018-.471 0a1.65 1.65 0 0 1-1.113-2.059l.471-1.586a1.651 1.651 0 1 1 3.167.944l-.471 1.586a1.649 1.649 0 0 1-1.583 1.114zm3.27-11.09a1.933 1.933 0 0 1-.457 0 1.65 1.65 0 0 1-1.112-2.059l.458-1.586a1.651 1.651 0 1 1 3.166.944l-.47 1.586a1.636 1.636 0 0 1-1.584 1.114zm3.285-11.091a1.946 1.946 0 0 1-.471-.066 1.65 1.65 0 0 1-1.112-2.058l.47-1.586a1.651 1.651 0 1 1 3.167.944l-.47 1.586a1.662 1.662 0 0 1-1.584 1.18zm3.271-11.09a1.933 1.933 0 0 1-.458 0 1.665 1.665 0 0 1-1.125-2.059l.471-1.586a1.65 1.65 0 1 1 2.783-.666c.406.43.552 1.043.384 1.61l-.445 1.52a1.636 1.636 0 0 1-1.61 1.18zm3.285-11.09a1.946 1.946 0 0 1-.472-.066 1.65 1.65 0 0 1-1.112-2.058l.471-1.587a1.647 1.647 0 1 1 2.827-.735c.412.456.538 1.103.327 1.68l-.458 1.625a1.662 1.662 0 0 1-1.583 1.14zm3.27-11.091a1.933 1.933 0 0 1-.457 0 1.65 1.65 0 0 1-1.112-2.058l.458-1.586a1.651 1.651 0 1 1 3.166.944l-.458 1.52a1.636 1.636 0 0 1-1.596 1.18zm3.285-11.025a1.946 1.946 0 0 1-.471-.065 1.65 1.65 0 0 1-1.112-2.058l.47-1.587a1.638 1.638 0 0 1 2.042-1.114 1.665 1.665 0 0 1 1.125 2.058l-.47 1.586a1.65 1.65 0 0 1-1.584 1.18zm3.271-11.09a1.933 1.933 0 0 1-.458-.066 1.65 1.65 0 0 1-1.112-2.058l.458-1.586a1.651 1.651 0 1 1 3.166.944l-.47 1.52a1.636 1.636 0 0 1-1.584 1.18v.066zm3.284-11.195a1.946 1.946 0 0 1-.47-.066 1.65 1.65 0 0 1-1.113-2.058l.471-1.586a1.647 1.647 0 1 1 2.827-.735c.412.456.538 1.102.327 1.679l-.458 1.586a1.662 1.662 0 0 1-1.584 1.18zm3.272-11.09c-.152.019-.306.019-.458 0a1.665 1.665 0 0 1-1.126-2.059l.471-1.586a1.65 1.65 0 1 1 2.783-.666c.406.43.552 1.043.384 1.61l-.484 1.56c-.204.7-.843 1.18-1.57 1.18v-.04zm3.284-11.09a1.946 1.946 0 0 1-.471-.066 1.65 1.65 0 0 1-1.112-2.058l.47-1.587a1.647 1.647 0 1 1 2.827-.735c.413.456.538 1.103.327 1.68l-.458 1.586a1.65 1.65 0 0 1-1.583 1.219v-.04zm3.271-11.09a1.933 1.933 0 0 1-.458 0 1.65 1.65 0 0 1-1.112-2.059l.458-1.586a1.65 1.65 0 1 1 2.783-.666c.405.43.552 1.043.383 1.61l-.497 1.56a1.636 1.636 0 0 1-1.557 1.18v-.04zm3.284-11.091c-.156.019-.314.019-.47 0a1.65 1.65 0 0 1-1.113-2.058l.471-1.587a1.647 1.647 0 1 1 2.827-.735c.412.456.538 1.103.327 1.68l-.458 1.586a1.662 1.662 0 0 1-1.584 1.153v-.04zm3.272-11.09a1.933 1.933 0 0 1-.458 0 1.665 1.665 0 0 1-1.126-2.059l.51-1.612a1.65 1.65 0 1 1 2.783-.666c.406.43.552 1.043.384 1.61l-.55 1.586c-.2.69-.826 1.168-1.543 1.18v-.04zM175.218 250.94a1.608 1.608 0 0 1-1.309-.656l-.994-1.31a1.654 1.654 0 0 1 .39-2.207 1.647 1.647 0 0 1 2.227.214l.994 1.31c.362.5.416 1.159.14 1.71a1.648 1.648 0 0 1-1.448.913v.026zm-6.961-9.176c-.515 0-1-.243-1.309-.656l-.994-1.31a1.654 1.654 0 0 1 .39-2.208 1.647 1.647 0 0 1 2.227.215l.994 1.31a1.654 1.654 0 0 1-.327 2.32 1.62 1.62 0 0 1-.981.276v.053zm-6.948-9.177c-.515 0-1-.243-1.309-.655l-.994-1.311a1.654 1.654 0 0 1 .39-2.207 1.647 1.647 0 0 1 2.227.214l.994 1.311a1.654 1.654 0 0 1-.327 2.32 1.607 1.607 0 0 1-.981.223v.105zm-6.909-9.36a1.648 1.648 0 0 1-1.308-.655l-.995-1.311a1.654 1.654 0 0 1 .39-2.207 1.647 1.647 0 0 1 2.227.214l.994 1.311a1.654 1.654 0 0 1-1.308 2.648zm-6.961-9.176a1.648 1.648 0 0 1-1.309-.655l-.994-1.311a1.654 1.654 0 0 1 .39-2.207 1.646 1.646 0 0 1 2.227.214l.994 1.311a1.654 1.654 0 0 1-.314 2.307 1.607 1.607 0 0 1-1.046.341h.052zm-6.961-9.176a1.648 1.648 0 0 1-1.309-.656l-.981-1.31a1.654 1.654 0 0 1 .39-2.208 1.647 1.647 0 0 1 2.227.215l.994 1.31a1.64 1.64 0 0 1-.327 2.308c-.307.207-.678.3-1.047.262l.053.079zm-6.961-9.177a1.608 1.608 0 0 1-1.309-.655l-.994-1.311a1.654 1.654 0 0 1 .39-2.207 1.647 1.647 0 0 1 2.227.214l.994 1.311a1.64 1.64 0 0 1-.327 2.307c-.31.189-.675.263-1.034.21l.053.131zm-6.948-9.176c-.515 0-1-.243-1.309-.656l-.994-1.31a1.654 1.654 0 0 1 .39-2.207 1.647 1.647 0 0 1 2.227.214l.994 1.31a1.64 1.64 0 0 1-.327 2.308 1.541 1.541 0 0 1-1.034.157l.053.184zm-6.961-9.176a1.648 1.648 0 0 1-1.309-.656l-.994-1.31a1.654 1.654 0 0 1 .39-2.208 1.647 1.647 0 0 1 2.227.215l.994 1.31a1.654 1.654 0 0 1-.314 2.308 1.607 1.607 0 0 1-1.047.105l.053.236zm-6.961-9.177a1.648 1.648 0 0 1-1.309-.655l-.994-1.311a1.654 1.654 0 0 1 .39-2.207 1.647 1.647 0 0 1 2.227.214l.994 1.311a1.654 1.654 0 0 1-.314 2.307 1.607 1.607 0 0 1-1.047.053l.053.288zm-6.962-9.176a1.648 1.648 0 0 1-1.308-.656l-.994-1.31a1.654 1.654 0 0 1 .39-2.207 1.647 1.647 0 0 1 2.227.214l.994 1.31c.543.73.397 1.76-.327 2.308a1.58 1.58 0 0 1-1.034 0l.052.34zm-6.96-9.176a1.608 1.608 0 0 1-1.31-.656l-.994-1.31a1.654 1.654 0 0 1 .39-2.208 1.647 1.647 0 0 1 2.227.215l.995 1.31a1.64 1.64 0 0 1-.327 2.308 1.58 1.58 0 0 1-1.034-.053l.052.394zm-6.962-9.177c-.514 0-1-.243-1.308-.655l-.995-1.311a1.654 1.654 0 0 1 .39-2.207 1.647 1.647 0 0 1 2.227.214l.995 1.311a1.64 1.64 0 0 1-.327 2.307 1.554 1.554 0 0 1-1.034-.105l.052.446zm-6.948-9.176c-.514 0-1-.243-1.308-.656l-.995-1.31a1.654 1.654 0 0 1 .39-2.207 1.647 1.647 0 0 1 2.227.214l.995 1.31a1.654 1.654 0 0 1-.314 2.308 1.607 1.607 0 0 1-1.047-.157l.052.498zm-6.96-9.176a1.648 1.648 0 0 1-1.31-.656l-.994-1.31a1.654 1.654 0 0 1 .39-2.208 1.646 1.646 0 0 1 2.227.215l.995 1.31a1.654 1.654 0 0 1-.314 2.308 1.607 1.607 0 0 1-1.047-.21l.052.55zm-6.962-9.177a1.648 1.648 0 0 1-1.308-.655l-.995-1.311a1.64 1.64 0 0 1 .327-2.307 1.66 1.66 0 0 1 2.316.314l.995 1.311c.536.73.39 1.756-.327 2.307a1.607 1.607 0 0 1-1.06-.262l.052.603zm-6.96-9.176a1.648 1.648 0 0 1-1.31-.656l-.98-1.31a1.654 1.654 0 0 1 .39-2.208 1.647 1.647 0 0 1 2.226.215l.995 1.31a1.64 1.64 0 0 1-.327 2.308 1.581 1.581 0 0 1-1.047-.315l.052.656zm-6.962-9.177a1.66 1.66 0 0 1-1.308-.655l-.995-1.31a1.654 1.654 0 0 1 .39-2.208 1.647 1.647 0 0 1 2.227.215l.994 1.31a1.667 1.667 0 0 1-1.308 2.622v.026zm-6.948-9.176a1.674 1.674 0 0 1-1.308-.655l-.995-1.311a1.654 1.654 0 0 1 1.065-2.744 1.648 1.648 0 0 1 1.552.751l.994 1.311a1.667 1.667 0 0 1-1.308 2.622v.026zm-6.961-9.176a1.687 1.687 0 0 1-1.309-.656l-.994-1.31a1.654 1.654 0 0 1 1.065-2.745 1.648 1.648 0 0 1 1.552.752l.994 1.31a1.654 1.654 0 0 1-.314 2.308 1.687 1.687 0 0 1-1.046-.472l.052.813zM36.1 67.229a1.687 1.687 0 0 1-1.309-.655l-.994-1.31a1.654 1.654 0 0 1 1.065-2.745 1.648 1.648 0 0 1 1.552.751l.994 1.311a1.654 1.654 0 0 1-.314 2.308c-.4-.045-.771-.23-1.047-.525l.053.865zm-6.961-9.176a1.687 1.687 0 0 1-1.309-.655l-.994-1.311a1.654 1.654 0 0 1 1.065-2.744 1.648 1.648 0 0 1 1.552.751l.994 1.311a1.667 1.667 0 0 1-1.308 2.622v.026zm-6.961-9.176a1.648 1.648 0 0 1-1.309-.656l-.994-1.31a1.654 1.654 0 0 1 1.065-2.745 1.648 1.648 0 0 1 1.552.752l.994 1.31a1.64 1.64 0 0 1-.366 1.338 1.66 1.66 0 0 1-.995.34l.053.97zM15.218 39.7a1.66 1.66 0 0 1-1.309-.655l-.994-1.311a1.654 1.654 0 0 1 1.065-2.744 1.648 1.648 0 0 1 1.552.751l.994 1.311a1.667 1.667 0 0 1-1.308 2.622v.026zM174.459 244.018a1.648 1.648 0 0 1-1.466-.904l-.745-1.482a1.654 1.654 0 0 1 .007-1.72 1.648 1.648 0 0 1 2.924.226l.745 1.468a1.655 1.655 0 0 1-1.465 2.412zm-5.234-10.317c-.62 0-1.188-.343-1.479-.89l-.745-1.482a1.641 1.641 0 0 1 .72-2.216 1.646 1.646 0 0 1 2.224.721l.746 1.469c.41.814.089 1.808-.72 2.228-.232.117-.487.18-.746.184v-.014zm-5.234-10.303a1.635 1.635 0 0 1-1.465-.905l-.76-1.468a1.655 1.655 0 0 1 .727-2.222 1.649 1.649 0 0 1 2.218.728l.746 1.468a1.655 1.655 0 0 1-.72 2.228 1.672 1.672 0 0 1-.759.17h.013zm-5.234-10.304a1.648 1.648 0 0 1-1.465-.905l-.746-1.468a1.654 1.654 0 0 1 .008-1.72 1.648 1.648 0 0 1 2.923.226l.759 1.468c.41.811.088 1.801-.72 2.215a1.58 1.58 0 0 1-.785.184h.026zm-5.234-10.304c-.623 0-1.194-.349-1.478-.904l-.746-1.468a1.658 1.658 0 0 1 .72-2.229 1.652 1.652 0 0 1 2.224.721l.746 1.481a1.641 1.641 0 0 1-.72 2.216 1.529 1.529 0 0 1-.772.183h.026zm-5.234-10.303a1.635 1.635 0 0 1-1.465-.905l-.746-1.468a1.654 1.654 0 0 1 .038-1.69 1.648 1.648 0 0 1 2.893.182l.746 1.482a1.641 1.641 0 0 1-.72 2.215c-.24.13-.511.194-.785.184h.04zm-5.233-10.304c-.624 0-1.194-.35-1.48-.905l-.745-1.468a1.659 1.659 0 0 1 .085-1.654 1.652 1.652 0 0 1 2.86.147l.745 1.48a1.653 1.653 0 0 1-1.505 2.4h.04zm-5.234-10.304a1.635 1.635 0 0 1-1.466-.904l-.759-1.469a1.666 1.666 0 0 1 .733-2.228 1.633 1.633 0 0 1 2.211.72l.746 1.469a1.655 1.655 0 0 1-1.518 2.412h.053zm-5.234-10.304a1.675 1.675 0 0 1-1.466-.904l-.746-1.481a1.653 1.653 0 0 1 .772-2.113 1.647 1.647 0 0 1 2.16.618l.758 1.468c.41.815.09 1.81-.72 2.229a1.75 1.75 0 0 1-.824.223l.066-.04zm-5.234-10.316c-.62 0-1.188-.344-1.479-.892l-.746-1.481a1.656 1.656 0 0 1 .09-1.651 1.65 1.65 0 0 1 2.854.156l.746 1.469a1.655 1.655 0 0 1-.72 2.228c-.251.124-.53.183-.81.17h.065zm-5.234-10.304a1.648 1.648 0 0 1-1.466-.892l-.745-1.48a1.653 1.653 0 0 1 .771-2.114 1.647 1.647 0 0 1 2.16.619l.745 1.468a1.655 1.655 0 0 1-.72 2.228c-.255.127-.539.185-.824.17h.079zm-5.234-10.304a1.648 1.648 0 0 1-1.479-.904l-.745-1.469a1.641 1.641 0 0 1 .72-2.215 1.646 1.646 0 0 1 2.224.72l.746 1.47c.41.814.089 1.808-.72 2.228-.257.124-.54.183-.824.17h.078zm-5.234-10.304a1.635 1.635 0 0 1-1.465-.904l-.76-1.468a1.656 1.656 0 0 1 .09-1.651 1.65 1.65 0 0 1 2.855.156l.746 1.468a1.641 1.641 0 0 1-.72 2.216c-.256.14-.547.203-.837.183h.091zm-5.234-10.303a1.648 1.648 0 0 1-1.57-.866l-.746-1.468a1.661 1.661 0 0 1 .694-2.241 1.655 1.655 0 0 1 2.237.694l.76 1.482a1.653 1.653 0 0 1-1.48 2.399h.105zm-5.234-10.304c-.623 0-1.194-.35-1.478-.905l-.85-1.455a1.659 1.659 0 0 1 .084-1.654 1.652 1.652 0 0 1 2.86.147l.745 1.507a1.641 1.641 0 0 1-.72 2.216c-.232.11-.489.16-.745.144h.104zM95.95 89.436a1.635 1.635 0 0 1-1.465-.904l-.746-1.469a1.655 1.655 0 0 1 1.976-2.33c.415.136.76.432.955.823l.746 1.468a1.655 1.655 0 0 1-.72 2.229c-.266.136-.564.2-.863.183h.117zm-5.233-10.304a1.674 1.674 0 0 1-1.479-.904l-.746-1.481a1.655 1.655 0 0 1 .726-2.222 1.649 1.649 0 0 1 2.218.727l.746 1.468c.41.815.09 1.81-.72 2.229a1.738 1.738 0 0 1-.863.183h.118zM85.483 68.83a1.648 1.648 0 0 1-1.466-.905l-.759-1.481a1.655 1.655 0 0 1 .726-2.222 1.649 1.649 0 0 1 2.218.727l.746 1.469a1.655 1.655 0 0 1-.72 2.228c-.27.139-.573.202-.876.184h.13zm-5.234-10.317a1.661 1.661 0 0 1-1.466-.892l-.746-1.48a1.653 1.653 0 0 1 .772-2.114 1.647 1.647 0 0 1 2.16.619l.758 1.468c.41.815.09 1.809-.72 2.228-.28.137-.591.196-.902.17h.144zm-5.234-10.304c-.62 0-1.188-.343-1.479-.891l-.746-1.482a1.655 1.655 0 0 1 .727-2.222 1.649 1.649 0 0 1 2.218.728l.745 1.468a1.655 1.655 0 0 1-.72 2.229 1.672 1.672 0 0 1-.89.17h.145zM69.78 37.904A1.635 1.635 0 0 1 68.315 37l-.745-1.468a1.653 1.653 0 0 1 .771-2.113 1.647 1.647 0 0 1 2.16.618l.745 1.468a1.641 1.641 0 0 1-.72 2.216c-.274.153-.59.217-.902.183h.157zM178.45 249.249a1.636 1.636 0 0 1-1.583-1.18l-.472-1.586a1.651 1.651 0 1 1 3.167-.944l.471 1.586a1.678 1.678 0 0 1-1.112 2.058 1.946 1.946 0 0 1-.471.066zm-3.285-11.09a1.662 1.662 0 0 1-1.583-1.18l-.458-1.586a1.654 1.654 0 0 1 .327-1.679 1.647 1.647 0 0 1 2.827.735l.47 1.586a1.654 1.654 0 0 1-1.111 2.058 1.946 1.946 0 0 1-.472.066zm-3.27-11.09a1.636 1.636 0 0 1-1.584-1.18l-.471-1.587a1.654 1.654 0 0 1 1.112-2.058 1.674 1.674 0 0 1 2.055 1.114l.47 1.587c.254.879-.249 1.798-1.125 2.058-.149.04-.303.063-.458.065zm-3.285-11.091a1.662 1.662 0 0 1-1.583-1.18l-.458-1.586a1.654 1.654 0 0 1 1.112-2.058 1.633 1.633 0 0 1 2.041 1.114l.471 1.586a1.654 1.654 0 0 1-1.112 2.058 1.946 1.946 0 0 1-.471.066zm-3.271-11.09a1.636 1.636 0 0 1-1.583-1.18l-.471-1.586a1.657 1.657 0 0 1 .383-1.61 1.65 1.65 0 0 1 2.783.666l.471 1.586a1.678 1.678 0 0 1-1.112 2.058 1.946 1.946 0 0 1-.471.053v.013zm-3.284-11.09a1.662 1.662 0 0 1-1.584-1.18l-.458-1.587a1.654 1.654 0 0 1 .327-1.678 1.647 1.647 0 0 1 2.827.735l.47 1.586a1.654 1.654 0 0 1-1.111 2.058 1.946 1.946 0 0 1-.471.065zm-3.272-11.09a1.636 1.636 0 0 1-1.583-1.18l-.47-1.587a1.651 1.651 0 1 1 3.167-.944l.47 1.587a1.678 1.678 0 0 1-1.113 2.058 1.946 1.946 0 0 1-.47.065zm-3.284-11.091a1.662 1.662 0 0 1-1.583-1.18l-.458-1.586a1.654 1.654 0 0 1 .326-1.678 1.647 1.647 0 0 1 2.827.734l.471 1.586a1.654 1.654 0 0 1-1.112 2.058 1.946 1.946 0 0 1-.47.066zm-3.271-11.09a1.65 1.65 0 0 1-1.583-1.18l-.471-1.586a1.651 1.651 0 1 1 3.167-.944l.47 1.586c.253.88-.25 1.799-1.125 2.058a1.75 1.75 0 0 1-.458.066zm-3.284-11.09a1.662 1.662 0 0 1-1.584-1.18l-.458-1.587a1.654 1.654 0 0 1 .327-1.678 1.647 1.647 0 0 1 2.827.735l.47 1.586a1.654 1.654 0 0 1-1.111 2.058 1.946 1.946 0 0 1-.471.065zm-3.272-11.09a1.636 1.636 0 0 1-1.583-1.18l-.47-1.587a1.654 1.654 0 0 1 1.111-2.058 1.674 1.674 0 0 1 2.055 1.114l.47 1.586a1.678 1.678 0 0 1-1.111 2.059 1.946 1.946 0 0 1-.472.065zm-3.284-11.091a1.662 1.662 0 0 1-1.583-1.18l-.458-1.586a1.654 1.654 0 0 1 .326-1.679 1.647 1.647 0 0 1 2.827.735l.471 1.586a1.654 1.654 0 0 1-1.112 2.058 1.946 1.946 0 0 1-.47.066zm-3.271-11.09a1.636 1.636 0 0 1-1.583-1.18l-.471-1.586a1.654 1.654 0 0 1 1.112-2.059 1.674 1.674 0 0 1 2.054 1.115l.471 1.586a1.678 1.678 0 0 1-1.112 2.058 1.946 1.946 0 0 1-.471.066zm-3.284-11.09a1.662 1.662 0 0 1-1.584-1.18l-.457-1.587a1.654 1.654 0 0 1 1.112-2.058 1.633 1.633 0 0 1 2.04 1.114l.472 1.587a1.654 1.654 0 0 1-1.112 2.058 1.946 1.946 0 0 1-.471.065zm-3.271-11.091a1.636 1.636 0 0 1-1.584-1.18l-.47-1.586a1.651 1.651 0 1 1 3.167-.944l.47 1.586a1.678 1.678 0 0 1-1.112 2.058 1.946 1.946 0 0 1-.471.066zm-3.285-11.025a1.662 1.662 0 0 1-1.583-1.18l-.458-1.586a1.654 1.654 0 0 1 .326-1.678 1.647 1.647 0 0 1 2.827.734l.472 1.587a1.654 1.654 0 0 1-1.113 2.058 1.946 1.946 0 0 1-.47.065zm-3.27-11.09a1.636 1.636 0 0 1-1.584-1.18l-.471-1.586a1.657 1.657 0 0 1 .383-1.61 1.65 1.65 0 0 1 2.783.666l.471 1.586a1.678 1.678 0 0 1-1.112 2.058c-.156.02-.314.02-.47 0v.066zm-3.285-11.195a1.662 1.662 0 0 1-1.583-1.18l-.458-1.586a1.654 1.654 0 0 1 .326-1.679 1.647 1.647 0 0 1 2.827.735l.471 1.626a1.654 1.654 0 0 1-1.112 2.084c-.157.019-.315.019-.471 0zm-3.271-11.09a1.636 1.636 0 0 1-1.584-1.18l-.47-1.586a1.657 1.657 0 0 1 .383-1.61 1.65 1.65 0 0 1 2.783.666l.47 1.69a1.678 1.678 0 0 1-1.111 2.059c-.157.019-.315.019-.471 0v-.04zm-3.285-11.09a1.662 1.662 0 0 1-1.583-1.18l-.458-1.547a1.654 1.654 0 0 1 .326-1.679 1.647 1.647 0 0 1 2.828.735l.484 1.586a1.654 1.654 0 0 1-1.112 2.058c-.158.042-.321.064-.485.066v-.04zm-3.27-11.09a1.636 1.636 0 0 1-1.584-1.18l-.471-1.587a1.657 1.657 0 0 1 .384-1.61 1.65 1.65 0 0 1 2.782.666l.471 1.586a1.678 1.678 0 0 1-1.112 2.059c-.152.054-.31.09-.47.104v-.039zm-3.285-11.091a1.662 1.662 0 0 1-1.583-1.18l-.458-1.586a1.654 1.654 0 0 1 .326-1.679 1.647 1.647 0 0 1 2.827.735l.497 1.625a1.654 1.654 0 0 1-1.112 2.059c-.162.043-.33.065-.497.065v-.04zm-3.271-11.09a1.636 1.636 0 0 1-1.584-1.18l-.47-1.547a1.654 1.654 0 0 1 1.112-2.058 1.674 1.674 0 0 1 2.054 1.114l.471 1.586a1.678 1.678 0 0 1-1.112 2.058 1.946 1.946 0 0 1-.471.066v-.04z"/>
        <path fill="#FCD100" d="M22.048 112.233l6.895-1.678-6.817-1.953-1.675-6.909-1.962 6.83-6.896 1.678 6.817 1.966 1.688 6.909zM52.143 133.207l6.895-1.678-6.817-1.953-1.675-6.908-1.962 6.83-6.896 1.677 6.817 1.967 1.688 6.908zM325.038 136.786l-1.675-6.908-1.962 6.83-6.896 1.677 6.817 1.967 1.688 6.908 1.95-6.843 6.895-1.678zM344.665 8.317L342.99 1.41l-1.962 6.83-6.896 1.678 6.817 1.966 1.688 6.908 1.95-6.83 6.895-1.69zM207.08 166.046c0 13.528-14.25 27.856-14.25 27.856s-14.262-14.328-14.262-27.856c0-13.529 6.385-24.514 14.262-24.514 7.877 0 14.25 10.972 14.25 24.514z"/>
        <path fill="#2C85DE" d="M192.83 6.416a4.368 4.368 0 0 1 3.533 1.823c20.046 24.081 25.149 45.2 25.149 82.705a103.301 103.301 0 0 1-14.394 52.685 53.412 53.412 0 0 0-14.393-2.294c-4.88.104-9.722.875-14.393 2.294a103.432 103.432 0 0 1-14.393-52.685c0-37.505 5.103-58.624 25.149-82.705a4.367 4.367 0 0 1 3.742-1.823z"/>
        <path fill="#074480" d="M169.186 44.603c3.781-12.978 10.075-24.278 20.098-36.312a4.277 4.277 0 0 1 7.079 0c10.049 12.074 16.343 23.4 20.124 36.417"/>
        <path fill="#FFF" d="M192.83 6.416a4.368 4.368 0 0 1 3.533 1.823c20.046 24.081 25.149 45.2 25.149 82.705a103.301 103.301 0 0 1-14.394 52.685 53.412 53.412 0 0 0-14.393-2.294" opacity=".26"/>
        <path fill="#074480" d="M178.41 143.682c-1.831-2.622-6.476-2.491-8.675.786-.981 1.455-14.642 18.576-14.642 18.576h-4.854s-.929-19.048 1.309-33.874c2.237-14.827 9.892-20.647 13.673-22.836l13.19 37.348zM207.262 143.682c1.832-2.622 6.543-2.491 8.689.786.968 1.455 14.628 18.576 14.628 18.576h4.868s.916-19.048-1.309-33.874c-2.224-14.827-9.892-20.647-13.66-22.836l-13.216 37.348z"/>
        <ellipse cx="193.314" cy="72.276" fill="#80C0FF" rx="13.15" ry="13.175"/>
        <g fill="#FFF" opacity=".47">
            <path d="M185.24 64.267l9.854 19.323c.314 0 .628 0 .955-.132a11.765 11.765 0 0 0 4.527-1.9l-10.468-20.555a11.474 11.474 0 0 0-4.867 3.264zM203.743 78.228l-9.16-17.855a12.12 12.12 0 0 0-2.826.158l10.154 19.9a12.095 12.095 0 0 0 1.832-2.203z"/>
        </g>
        <path fill="#4D10E1" d="M209.814 141.951l-1.57 4.903a74.354 74.354 0 0 0-14.89-2.7c-3.56 0-10.207 1.704-13.504 2.7l-2.486-4.903 16.12-5.126 16.33 5.126z"/>
        <path fill="#074480" d="M196.638 123.86c0 11.419-1.309 39.184-3.05 39.184-1.74 0-3.048-27.765-3.048-39.183s1.309-17.527 3.049-17.527 3.049 6.109 3.049 17.527z"/>
        <path fill="#9CF" d="M51.45 169.388c-4.83 3.645-20.06 15.482-24.43 23.413 0 0 145.83 10.487 170.481 41.87l.118-6.554-5.692-9.78s-11.148-41.175-102.401-48.359c-7.707-.616-28.486-1.31-34.766-1.573a5.227 5.227 0 0 0-3.31.983z"/>
        <path fill="#2C85DE" d="M13.438 221.51a74.932 74.932 0 0 0-1.937 15.285c11.685-.21 41.57-.695 71.718-.668 56.618 0 74.334 1.848 80.327 3.342a37.662 37.662 0 0 1 4.253-5.243c-7.42-3.435-38.155-12.742-152.96-12.742l-1.401.026z"/>
        <path fill="#2C85DE" stroke="#2C85DE" stroke-linecap="round" stroke-linejoin="round" stroke-width=".525" d="M191.22 222.192s-13.438-37.217-157.605-37.217a67.675 67.675 0 0 0-10.56 13.345c124.436 1.206 153.76 21.578 159.058 26.533a52.63 52.63 0 0 1 9.107-2.661z"/>
        <path fill="#2C85DE" d="M11.462 240.27v10.486h147.125a29.227 29.227 0 0 1 3.075-8.14c-6.163-1.311-24.612-2.91-78.783-2.95-30.108-.065-59.863.42-71.417.603zM21.027 201.846a77.424 77.424 0 0 0-6.634 16.138c119.15 0 149.166 10.133 156.154 13.738a40.555 40.555 0 0 1 8.034-5.244c-3.05-2.36-10.651-6.987-27.295-11.575-20.766-5.715-59.98-12.493-130.259-13.057z"/>
        <path fill="#80C0FF" d="M11.501 236.795v3.474c11.554-.223 41.309-.708 71.417-.668 54.17 0 72.62 1.678 78.783 2.95a38.104 38.104 0 0 1 1.884-3.12c-5.992-1.495-23.71-3.291-80.327-3.344-30.186.013-60.072.498-71.757.708zM14.393 217.984a68.797 68.797 0 0 0-.916 3.513h1.4c114.806 0 145.542 9.307 152.961 12.742a36.153 36.153 0 0 1 2.709-2.517c-6.988-3.592-37.083-13.738-156.154-13.738zM23.055 198.32c-.68 1.101-1.308 2.268-2.028 3.5 70.278.564 109.493 7.341 130.22 13.11 16.643 4.587 24.246 9.176 27.294 11.575a42.596 42.596 0 0 1 3.572-1.6c-5.299-4.981-34.622-25.353-159.058-26.585z"/>
        <path fill="#9CF" d="M335.467 169.48c4.789 3.67 19.745 15.469 24.429 23.387 0 0-145.843 10.487-170.481 41.87l-.131-6.554 5.705-9.78s11.148-41.175 102.401-48.36c7.694-.615 28.42-1.31 34.74-1.572a5.227 5.227 0 0 1 3.337 1.01z"/>
        <path fill="#2C85DE" d="M373.478 221.51a74.932 74.932 0 0 1 1.936 15.285c-11.684-.21-41.57-.695-71.73-.668-56.618 0-74.321 1.848-80.327 3.342a36.588 36.588 0 0 0-4.24-5.243c7.42-3.435 38.155-12.742 152.96-12.742l1.4.026z"/>
        <path fill="#2C85DE" stroke="#2C85DE" stroke-linecap="round" stroke-linejoin="round" stroke-width=".525" d="M195.682 222.192s13.451-37.217 157.606-37.217a67.374 67.374 0 0 1 10.546 13.371c-124.422 1.206-153.745 21.578-159.058 26.533a51.952 51.952 0 0 0-9.094-2.687z"/>
        <path fill="#2C85DE" d="M375.454 240.27v10.486H228.329a29.568 29.568 0 0 0-3.088-8.14c6.163-1.311 24.625-2.91 78.796-2.95 30.095-.065 59.863.42 71.417.603zM365.889 201.846a77.424 77.424 0 0 1 6.673 16.15c-119.163 0-149.166 10.134-156.153 13.74a41.117 41.117 0 0 0-8.048-5.245c3.062-2.36 10.665-6.987 27.295-11.575 20.727-5.728 59.955-12.506 130.233-13.07z"/>
        <path fill="#80C0FF" d="M375.414 236.795v3.474c-11.553-.223-41.321-.708-71.416-.668-54.17 0-72.634 1.678-78.796 2.95a34.752 34.752 0 0 0-1.885-3.12c6.006-1.495 23.71-3.291 80.328-3.344 30.2.013 60.11.498 71.77.708zM372.562 217.984c.327 1.14.628 2.32.916 3.513h-1.4c-114.806 0-145.542 9.307-152.96 12.742a38.898 38.898 0 0 0-2.71-2.517c6.922-3.592 36.991-13.738 156.154-13.738zM363.848 198.32a70.742 70.742 0 0 1 2.04 3.5c-70.277.564-109.505 7.341-130.232 13.11-16.63 4.587-24.233 9.176-27.295 11.575a40.777 40.777 0 0 0-3.572-1.6c5.313-4.981 34.662-25.353 159.059-26.585z"/>
        <path fill="#044181" d="M227.19 246.339c-3.794-17.645-19.025-26.468-34.269-26.48-15.23 0-30.46 8.835-34.255 26.48H6.542c-3.613 0-6.542 2.934-6.542 6.554v2.268h385.856v-2.307c0-3.62-2.93-6.555-6.542-6.555l-152.124.04z"/>
    </g>
</svg>
