<svg xmlns="http://www.w3.org/2000/svg" viewBox="0 0 156.54 201.71"><defs><style>.cls-1{fill:#0b74de;}</style></defs><title>Asset 5</title><g id="Layer_2" data-name="Layer 2"><g id="Layer_1-2" data-name="Layer 1"><path class="cls-1" d="M34.26,195.11V171.17h5.27v9.9l8-9.9h6.14l-8.11,9.35,9,14.59h-6L42.15,184.5l-2.62,2.95v7.66Z"/><path class="cls-1" d="M54.14,201.09l1.09-4c.24.07.66.16,1.23.28a10.17,10.17,0,0,0,2,.18,2.43,2.43,0,0,0,1.36-.34A2.37,2.37,0,0,0,60.7,196l.33-.84-6.6-17.33H59.8l3.78,11.19h.07l3.8-11.19h5l-7.24,19a12.85,12.85,0,0,1-1,2A6.45,6.45,0,0,1,63,200.43a4.88,4.88,0,0,1-1.7.95,7.05,7.05,0,0,1-2.27.33,16.73,16.73,0,0,1-3.08-.22C55.2,201.35,54.6,201.22,54.14,201.09Z"/><path class="cls-1" d="M75.42,195.11V177.87h5.21v2.69a8.48,8.48,0,0,1,.93-1,7.83,7.83,0,0,1,1.26-1,7.31,7.31,0,0,1,1.57-.74,6,6,0,0,1,1.89-.29,5.45,5.45,0,0,1,3.28.82A3.75,3.75,0,0,1,91,180.56c.27-.31.58-.65.94-1a7.16,7.16,0,0,1,1.27-1,7.39,7.39,0,0,1,1.58-.74,6,6,0,0,1,1.9-.29,5.85,5.85,0,0,1,2.23.39,4.11,4.11,0,0,1,1.59,1.09,4.4,4.4,0,0,1,.92,1.67,7.05,7.05,0,0,1,.3,2.12v12.32H96.53v-11a3.55,3.55,0,0,0-.37-1.78,1.65,1.65,0,0,0-1.51-.6,3.48,3.48,0,0,0-1.78.49,11.52,11.52,0,0,0-1.66,1.24v11.6H86v-11a3.45,3.45,0,0,0-.37-1.78,1.63,1.63,0,0,0-1.5-.6,3.47,3.47,0,0,0-1.8.49,12.27,12.27,0,0,0-1.69,1.24v11.6Z"/><path class="cls-1" d="M105.39,190.7a5.25,5.25,0,0,1,2.62-4.65q2.63-1.68,8.31-2.14v-.41a2.16,2.16,0,0,0-.53-1.52,2.41,2.41,0,0,0-1.79-.56,7.73,7.73,0,0,0-3.06.6,10.81,10.81,0,0,0-2.6,1.54l-2.21-3a14.28,14.28,0,0,1,1.48-1.12,11.6,11.6,0,0,1,1.86-1,11.86,11.86,0,0,1,2.35-.69,15.24,15.24,0,0,1,2.92-.26c2.36,0,4.07.57,5.1,1.71a7.29,7.29,0,0,1,1.56,5.05v6.63a25.15,25.15,0,0,0,.11,2.55,5.91,5.91,0,0,0,.38,1.65h-5.18c-.1-.37-.2-.76-.28-1.17a8.05,8.05,0,0,1-.11-1.36,8.36,8.36,0,0,1-2.63,2.07,7.63,7.63,0,0,1-3.37.71,5.71,5.71,0,0,1-1.91-.31,4.63,4.63,0,0,1-1.57-.9,4.09,4.09,0,0,1-1.06-1.47A4.79,4.79,0,0,1,105.39,190.7Zm5.08-.9a1.49,1.49,0,0,0,.53,1.25,2.24,2.24,0,0,0,1.38.41,5.81,5.81,0,0,0,2.33-.42,5.28,5.28,0,0,0,1.61-1.08v-3.19a12.24,12.24,0,0,0-4.47,1.08A2.22,2.22,0,0,0,110.47,189.8Z"/><path class="cls-1" d="M107.46,153.25H49.09a12.6,12.6,0,0,1-9.92-4.78L2.77,102.84A12.64,12.64,0,0,1,.32,92.11l13-56.91a12.63,12.63,0,0,1,6.87-8.61L72.77,1.26a12.66,12.66,0,0,1,11,0l52.59,25.33a12.59,12.59,0,0,1,6.86,8.61l13,56.91a12.64,12.64,0,0,1-2.45,10.73l-36.4,45.63A12.58,12.58,0,0,1,107.46,153.25ZM75.08,6.07,22.49,31.4a7.32,7.32,0,0,0-4,5l-13,56.91A7.32,7.32,0,0,0,7,99.51l36.39,45.63a7.31,7.31,0,0,0,5.75,2.77h58.37a7.32,7.32,0,0,0,5.74-2.76l36.39-45.64A7.29,7.29,0,0,0,151,93.29L138,36.38a7.3,7.3,0,0,0-4-5L81.46,6.07a7.36,7.36,0,0,0-6.38,0Z"/><path class="cls-1" d="M34.91,59.18V91.69A15.63,15.63,0,0,1,42,90h7c11.55,0,19.3-3.56,25.9-8.49-1.89-1.68-3.73-3.39-5.5-5.09C60.46,67.92,51.14,59.89,34.91,59.18Z"/><path class="cls-1" d="M121.63,59.45c-16,.79-24.36,8.75-33.22,17.15-9.67,9.17-19.67,18.66-39.48,18.66H42a7.12,7.12,0,0,0-7,7v8.9h86.67Z"/><path class="cls-1" d="M76.57,56.21C69.18,49.14,61.77,42.07,47,42.07v14a46.81,46.81,0,0,1,17.11,9.15C69,63.07,72.78,59.79,76.57,56.21Z"/><path class="cls-1" d="M107.25,44.51C95,45.22,88.47,51.42,81.63,58c-4,3.86-8.22,7.82-13.64,10.68,1.57,1.43,3.11,2.88,4.63,4.33,1.92,1.85,3.92,3.72,6,5.5,2.11-1.82,4.15-3.74,6.21-5.7,6.4-6.07,13-12.24,22.46-15.74Z"/></g></g></svg>