<svg xmlns="http://www.w3.org/2000/svg" width="134" height="120" viewBox="0 0 134 120">
    <defs>
        <linearGradient id="a" x1="13.102%" x2="125.548%" y1="36.638%" y2="71.339%">
            <stop offset="0%" stop-color="#0B74DE"/>
            <stop offset="32%" stop-color="#2A6EDF"/>
            <stop offset="64%" stop-color="#4469E1"/>
            <stop offset="84%" stop-color="#4D67E1"/>
        </linearGradient>
    </defs>
    <g fill="none" fill-rule="evenodd">
        <path fill="url(#a)" d="M4.685 33.232c-12.547 25.747.895 64.343 30.913 82.303 30.696 15.015 74.513-9.254 93.2-51.59C143.125 24.127 126.623.23 94.457.004 59.652-.233 18.537 9.676 4.685 33.231z"/>
        <path fill="#00E833" d="M78.286 46.382c0 16.721-19.396 29.253-36.849 21.45l-15.515 5.87 5.838-11.698c-5.026-4.046-7.76-9.372-7.76-15.6C24 34.127 36.155 23 51.156 23c15 0 27.13 11.08 27.13 23.382z"/>
        <path fill="#16BB6F" stroke="#16BB6F" stroke-linecap="round" stroke-width="4" d="M63.81 53.331H36.667M63.81 46.993H36.667M52.048 40.655H37.57"/>
        <path fill="#3298FF" d="M54.762 67.577c0 13.738 16.156 24.024 30.697 17.62L98.385 90l-4.845-9.607c4.172-3.327 6.46-7.681 6.46-12.816 0-10.109-10.131-19.226-22.616-19.226s-22.622 9.117-22.622 19.226z"/>
        <g fill="#0B74DE" transform="translate(68 65)">
            <circle cx="3" cy="3" r="3"/>
            <circle cx="13" cy="3" r="3"/>
            <circle cx="24" cy="3" r="3"/>
            <circle cx="13" cy="3" r="3"/>
            <circle cx="24" cy="3" r="3"/>
        </g>
    </g>
</svg>
