<svg xmlns="http://www.w3.org/2000/svg" viewBox="0 0 112 109"><path fill="#449FD8" d="M88.345 51.574c7.588-3.55 12.764-10.49 14.175-18.53-6.124-13.649-17.857-23.99-32.426-28.193a38.454 38.454 0 016.771 24.17c6.446 5.445 10.851 13.529 11.48 22.553zM27.27 38.542a25.184 25.184 0 00-21.858 8.054C3.23 61.683 7.869 76.84 18.099 88.158a38.898 38.898 0 016.831-24.483c-2.74-8.627-1.61-17.731 2.34-25.133zm5.74 38.386c-2.997 8.079-1.755 17.193 3.642 24.215 12.155 4.943 26.051 5.146 38.643-.035-7.818-2.516-14.886-7.518-19.887-14.731-8.175-.147-16.284-3.345-22.398-9.449zm30.112-54.726c-1.507-8.158-7.053-15.383-15.23-18.732C33.778 5.711 20.745 13.966 12.76 26.631c8.115-2.487 16.74-2.178 24.529.639 7.527-5.262 16.754-7.126 25.833-5.068zm22.769 44.255c-3.086 7.399-8.722 13.188-15.678 16.61 6.194 5.604 14.805 7.758 22.852 5.834 9.054-9.587 13.884-22.198 13.9-35.009a38.663 38.663 0 01-21.074 12.565z"/><circle fill="#F04D5C" cx="56.035" cy="53.892" r="15.972"/></svg>