<svg version="1.1" id="Layer_1" xmlns="http://www.w3.org/2000/svg" x="0" y="0" viewBox="0 0 1280 1280" xml:space="preserve"><style>.st1{fill:#0093dd}</style><path d="M810.9 180.9c-253.6 0-459.1 205.5-459.1 459.1s205.5 459.1 459.1 459.1S1270 893.6 1270 640s-205.5-459.1-459.1-459.1zm0 848.3c-215 0-389.2-174.3-389.2-389.2 0-215 174.3-389.2 389.2-389.2S1200.1 425 1200.1 640s-174.2 389.2-389.2 389.2z" fill="#013144"/><path class="st1" d="M653.3 284c-136.4 60.5-231.6 197.1-231.6 356 0 158.8 95.2 295.5 231.6 356 98.4-87.1 160.4-214.3 160.4-356s-62.1-268.9-160.4-356z"/><path class="st1" d="M351.8 640c0-109.8 38.6-210.5 102.8-289.5-39.6-18.2-83.6-28.3-130-28.3C150.9 322.2 10 464.5 10 640s140.9 317.8 314.6 317.8c46.3 0 90.4-10.1 130-28.3-64.3-79-102.8-179.7-102.8-289.5z"/></svg>