<svg xmlns="http://www.w3.org/2000/svg" width="1440" height="647"><linearGradient id="a" gradientUnits="userSpaceOnUse" x1="3345.335" y1="119.791" x2="3344.843" y2="119.645" gradientTransform="matrix(2578.3782 0 0 636.4749 -8625094 -75946.766)"><stop offset="0" stop-color="#87b5ee"/><stop offset="1" stop-color="#ccc"/></linearGradient><path fill="url(#a)" fill-opacity=".25" d="M580.702 16.545c517.121-23.089 1101.582 8.235 1397.027 174.569 299.776 166.14-15.956 413.885-796.806 448.75-780.851 34.864-1576.56-75.143-1669.795-250.505C-463.399 208.697 63.582 39.634 580.702 16.545z"/><linearGradient id="b" gradientUnits="userSpaceOnUse" x1="1314.231" y1=".177" x2="1313.742" y2=".199" gradientTransform="matrix(-3061.8333 0 0 -632.6794 4023222 439.094)"><stop offset="0" stop-color="#87b5ee"/><stop offset="1" stop-color="#ededed"/></linearGradient><path fill="url(#b)" fill-opacity=".5" d="M196.9 19.194c586.618-69.29 1415.425 59.236 1841.655 233.971 419.91 139.544-69.85 280.181-1087.658 348.924-1017.227 71.99-1833.514 13.172-1823.641-133.67 9.999-146.128 487.24-356.474 1069.644-449.225z"/></svg>