<svg xmlns="http://www.w3.org/2000/svg" viewBox="0 0 1440 232" enable-background="new 0 0 1440 232"><style>.st3{fill:#fff}</style><g id="Layer_1"><defs><filter id="Adobe_OpacityMaskFilter" filterUnits="userSpaceOnUse" x="-327" y="-359.4" width="2403" height="591.4"><feColorMatrix values="1 0 0 0 0 0 1 0 0 0 0 0 1 0 0 0 0 0 1 0"/></filter></defs><mask maskUnits="userSpaceOnUse" x="-327" y="-359.4" width="2403" height="591.4" id="group-2-copy-2-d_1_"><g filter="url(#Adobe_OpacityMaskFilter)"><path id="group-2-copy-2-b_1_" class="st3" d="M0 0h1440v232H0z"/></g></mask><linearGradient id="SVGID_1_" gradientUnits="userSpaceOnUse" x1="1327.966" y1="374.461" x2="528.92" y2="-438.191"><stop offset="0" stop-color="#00e833" stop-opacity=".5"/><stop offset="1" stop-color="#0b74de" stop-opacity=".8"/></linearGradient><path d="M874.5-351.6C115.3-393.2-417-264.3-314.3-63.7S320.6 265.8 874.5 224.2 1960.7 53.7 2063.3-63.7 1633.7-310 874.5-351.6z" mask="url(#group-2-copy-2-d_1_)" fill="url(#SVGID_1_)"/><linearGradient id="SVGID_2_" gradientUnits="userSpaceOnUse" x1="721.367" y1="79.757" x2="1104.16" y2="-652.873"><stop offset="0" stop-color="#0b74de"/><stop offset="1" stop-color="#00e833" stop-opacity=".5"/></linearGradient><path d="M1440 0H0v115.1c107.4 9.5 223.4 18.1 347.1 25.8 410.8 26.7 788.8 33.7 1092.9 23.9V0z" fill="url(#SVGID_2_)"/><defs><filter id="Adobe_OpacityMaskFilter_1_" filterUnits="userSpaceOnUse" x="-649.5" y="-402" width="2578.4" height="595"><feColorMatrix values="1 0 0 0 0 0 1 0 0 0 0 0 1 0 0 0 0 0 1 0"/></filter></defs><mask maskUnits="userSpaceOnUse" x="-649.5" y="-402" width="2578.4" height="595" id="group-2-copy-2-d_3_"><g filter="url(#Adobe_OpacityMaskFilter_1_)"><path id="group-2-copy-2-b_3_" class="st3" d="M0 0h1440v232H0z"/></g></mask><linearGradient id="SVGID_3_" gradientUnits="userSpaceOnUse" x1="639.683" y1="-426.482" x2="639.683" y2="311.002"><stop offset="0" stop-color="#4d10e1" stop-opacity=".5"/><stop offset="1" stop-color="#0b74de" stop-opacity=".5"/></linearGradient><path d="M859.3-395.7c-517.1-21.6-1101.6 7.7-1397 163.2-299.8 155.3 16 386.9 796.8 419.5s1576.6-70.2 1669.8-234.2c-25.5-168.9-552.5-326.9-1069.6-348.5z" mask="url(#group-2-copy-2-d_3_)" fill="url(#SVGID_3_)"/></g></svg>