<svg id="Ebene_1" data-name="Ebene 1" xmlns="http://www.w3.org/2000/svg" xmlns:xlink="http://www.w3.org/1999/xlink" viewBox="0 0 185 167"><defs><style>.cls-1{fill:url(#linear-gradient);}.cls-2{fill:#fff;}.cls-3{fill:#3298ff;}.cls-4{fill:#00e833;}.cls-5{fill:#0b74de;}</style><linearGradient id="linear-gradient" x1="419.99" y1="1275.85" x2="563.64" y2="976.84" gradientTransform="translate(-159.46 1386.67) rotate(-150.1)" gradientUnits="userSpaceOnUse"><stop offset="0" stop-color="#0b74de"/><stop offset="0.04" stop-color="#1e70df"/><stop offset="0.1" stop-color="#336ce0"/><stop offset="0.17" stop-color="#4269e0"/><stop offset="0.25" stop-color="#4a68e1"/><stop offset="0.38" stop-color="#4d67e1"/></linearGradient></defs><title>Monitoring</title><path class="cls-1" d="M43,17.16C8.77,32.6-9.72,82.89,5.81,126.28c18.67,41,83.39,53.37,137.64,26.34,47.71-28.12,50.85-66.14,18.37-93.44C126.66,29.64,76.65,5,43,17.16Z"/><path class="cls-2" d="M5.64,125.39a2.32,2.32,0,0,1-1.2-.66,2.4,2.4,0,0,1,0-3.39l.24-.24a2.4,2.4,0,0,1,3.37,3.41l-.24.24A2.39,2.39,0,0,1,5.64,125.39Z"/><path class="cls-2" d="M12.91,118.18a2.34,2.34,0,0,1-1.21-.66,2.4,2.4,0,0,1,0-3.39l.5-.5A2.4,2.4,0,0,1,15.59,117l-.5.5A2.36,2.36,0,0,1,12.91,118.18Zm7.52-7.47a2.32,2.32,0,0,1-1.2-.66,2.4,2.4,0,0,1,0-3.39l.5-.5a2.4,2.4,0,0,1,3.37,3.41l-.5.5A2.4,2.4,0,0,1,20.43,110.71ZM28,103.24a2.32,2.32,0,0,1-1.2-.66,2.4,2.4,0,0,1,0-3.39l.5-.5a2.4,2.4,0,0,1,3.37,3.41l-.5.5A2.4,2.4,0,0,1,28,103.24Zm7.53-7.47a2.32,2.32,0,0,1-1.2-.66,2.4,2.4,0,0,1,0-3.39l.5-.5a2.4,2.4,0,0,1,3.37,3.41l-.5.5A2.4,2.4,0,0,1,35.49,95.77ZM43,88.3a2.32,2.32,0,0,1-1.2-.66,2.4,2.4,0,0,1,0-3.39l.5-.5a2.4,2.4,0,1,1,3.37,3.41l-.5.5A2.41,2.41,0,0,1,43,88.3Z"/><path class="cls-2" d="M50.8,80.93a2.27,2.27,0,0,1-.5-.17,2.33,2.33,0,0,1-.95-.59,2.41,2.41,0,0,1,0-3.4l.24-.23a2.39,2.39,0,0,1,4.07,1.61l0,.33A2.4,2.4,0,0,1,51.4,81,2.43,2.43,0,0,1,50.8,80.93Z"/><path class="cls-2" d="M53.29,142.78a2.4,2.4,0,0,1-1.89-2.25l0-.69a2.4,2.4,0,1,1,4.79-.19l0,.69a2.4,2.4,0,0,1-2.3,2.49A2.43,2.43,0,0,1,53.29,142.78Zm-.41-10.31A2.38,2.38,0,0,1,51,130.22l0-.69a2.4,2.4,0,1,1,4.79-.19l0,.69a2.39,2.39,0,0,1-2.29,2.49A2,2,0,0,1,52.88,132.47Zm-.42-10.3a2.42,2.42,0,0,1-1.89-2.26l0-.68a2.4,2.4,0,1,1,4.79-.2l0,.69a2.42,2.42,0,0,1-2.3,2.5A3,3,0,0,1,52.46,122.17Zm-.41-10.31a2.4,2.4,0,0,1-1.89-2.26l0-.68a2.4,2.4,0,1,1,4.79-.2l0,.69a2.39,2.39,0,0,1-2.29,2.5A2.36,2.36,0,0,1,52.05,111.86Zm-.42-10.31a2.42,2.42,0,0,1-1.89-2.26l0-.68a2.4,2.4,0,1,1,4.79-.19l0,.68a2.4,2.4,0,0,1-2.3,2.5A2.36,2.36,0,0,1,51.63,101.55Zm-.41-10.31A2.38,2.38,0,0,1,49.33,89l0-.69a2.4,2.4,0,1,1,4.79-.19l0,.68a2.39,2.39,0,0,1-2.29,2.5A2.36,2.36,0,0,1,51.22,91.24Z"/><path class="cls-2" d="M53.7,152.74a2,2,0,0,1-.47-.15,2.41,2.41,0,0,1-1.43-2.1v-.34a2.39,2.39,0,0,1,2.3-2.49,2.37,2.37,0,0,1,1.19.26A2.4,2.4,0,0,1,56,152l-.26.21A2.38,2.38,0,0,1,53.7,152.74Z"/><path class="cls-2" d="M60.91,146.67a2.4,2.4,0,0,1-1-4.19l.5-.42a2.4,2.4,0,0,1,3.08,3.68l-.5.42A2.37,2.37,0,0,1,60.91,146.67Zm7.45-6.27a2.37,2.37,0,0,1-1.33-.81,2.4,2.4,0,0,1,.29-3.38l.5-.42a2.4,2.4,0,0,1,3.08,3.68l-.5.42A2.43,2.43,0,0,1,68.36,140.4Zm7.45-6.28a2.39,2.39,0,0,1-1-4.18l.49-.42a2.4,2.4,0,1,1,3.08,3.68l-.5.41A2.36,2.36,0,0,1,75.81,134.12Zm7.46-6.27a2.4,2.4,0,0,1-1-4.19l.5-.42a2.4,2.4,0,0,1,3.07,3.68l-.49.42A2.37,2.37,0,0,1,83.27,127.85Zm7.45-6.27a2.37,2.37,0,0,1-1.33-.81,2.4,2.4,0,0,1,.29-3.38l.5-.42a2.4,2.4,0,0,1,3.08,3.68l-.5.42A2.4,2.4,0,0,1,90.72,121.58Zm7.45-6.28a2.33,2.33,0,0,1-1.33-.8,2.4,2.4,0,0,1,.29-3.38l.5-.42a2.4,2.4,0,1,1,3.08,3.68l-.5.42A2.38,2.38,0,0,1,98.17,115.3Zm7.46-6.27a2.4,2.4,0,0,1-1-4.19l.49-.41a2.4,2.4,0,1,1,3.08,3.67l-.49.42A2.37,2.37,0,0,1,105.63,109Z"/><path class="cls-2" d="M113.38,102.88a3,3,0,0,1-.5-.17,2.42,2.42,0,0,1-.84-4.14l.26-.21a2.39,2.39,0,0,1,3.91,1.5l.05.33a2.4,2.4,0,0,1-2,2.71A2.62,2.62,0,0,1,113.38,102.88Z"/><path class="cls-2" d="M118.37,138.64a2.41,2.41,0,0,1-1.88-2l-.08-.6a2.4,2.4,0,1,1,4.75-.66l.08.59a2.4,2.4,0,0,1-2,2.71A2.29,2.29,0,0,1,118.37,138.64Zm-1.25-8.94a2.39,2.39,0,0,1-1.87-2l-.08-.59a2.39,2.39,0,1,1,4.74-.66l.08.59a2.39,2.39,0,0,1-2,2.71A2.31,2.31,0,0,1,117.12,129.7Zm-1.24-8.94a2.41,2.41,0,0,1-1.88-2l-.08-.6a2.39,2.39,0,1,1,4.74-.67l.09.6a2.41,2.41,0,0,1-2,2.71A2.29,2.29,0,0,1,115.88,120.76Zm-1.25-8.94a2.4,2.4,0,0,1-1.87-2l-.09-.6a2.4,2.4,0,1,1,4.75-.66l.08.6a2.4,2.4,0,0,1-2,2.71A2.56,2.56,0,0,1,114.63,111.82Z"/><path class="cls-2" d="M119.58,147.32l-.25-.06a2.42,2.42,0,0,1-1.63-2l0-.33a2.4,2.4,0,0,1,2-2.71,2.34,2.34,0,0,1,1.21.15,2.4,2.4,0,0,1,1.12,4l-.23.24A2.39,2.39,0,0,1,119.58,147.32Z"/><path class="cls-2" d="M126.49,140.15a2.35,2.35,0,0,1-1.17-.62,2.4,2.4,0,0,1,0-3.39l.47-.5a2.4,2.4,0,0,1,3.45,3.34l-.48.5A2.39,2.39,0,0,1,126.49,140.15Zm7.15-7.42a2.32,2.32,0,0,1-1.16-.62,2.4,2.4,0,0,1-.06-3.39l.48-.5a2.4,2.4,0,1,1,3.44,3.34l-.47.49A2.39,2.39,0,0,1,133.64,132.73Zm7.16-7.42a2.35,2.35,0,0,1-1.17-.62,2.41,2.41,0,0,1-.06-3.39l.48-.5a2.4,2.4,0,1,1,3.45,3.34l-.48.49A2.37,2.37,0,0,1,140.8,125.31Zm7.15-7.42a2.32,2.32,0,0,1-1.16-.62,2.4,2.4,0,0,1-.06-3.39l.48-.5a2.39,2.39,0,0,1,3.38-.06,2.41,2.41,0,0,1,.06,3.4l-.48.49A2.37,2.37,0,0,1,148,117.89Z"/><path class="cls-2" d="M155.1,110.47a2.36,2.36,0,0,1-1.16-.62,2.41,2.41,0,0,1-.06-3.39l.24-.25a2.4,2.4,0,1,1,3.44,3.34l-.23.24A2.39,2.39,0,0,1,155.1,110.47Z"/><path class="cls-3" d="M120.75,98.27A60.46,60.46,0,0,1,61.93,77.46h0a4.57,4.57,0,0,1-.86-4.22h0a60.57,60.57,0,0,1,104.84-21.4h0a4.56,4.56,0,0,1,.85,4.22h0a60.66,60.66,0,0,1-46,42.21Z"/><ellipse class="cls-4" cx="113.92" cy="64.65" rx="23.73" ry="23.7" transform="translate(13.65 148.92) rotate(-69.62)"/><ellipse class="cls-5" cx="113.89" cy="65.26" rx="10.85" ry="10.84" transform="translate(13.05 149.3) rotate(-69.62)"/></svg>