<svg id="Ebene_1" data-name="Ebene 1" xmlns="http://www.w3.org/2000/svg" xmlns:xlink="http://www.w3.org/1999/xlink" viewBox="0 0 185 167"><defs><style>.cls-1{fill:url(#linear-gradient);}.cls-2{opacity:0.7;}.cls-3{fill:#00e833;}.cls-4{fill:#3298ff;}</style><linearGradient id="linear-gradient" x1="533.14" y1="2118.95" x2="684.83" y2="2227.29" gradientTransform="translate(1073.68 2136.16) rotate(170.55)" gradientUnits="userSpaceOnUse"><stop offset="0" stop-color="#0b74de"/><stop offset="0.28" stop-color="#2a6edf"/><stop offset="0.62" stop-color="#4d67e1"/></linearGradient></defs><title>core supporting services</title><path class="cls-1" d="M6.68,49.43c-17.28,34.73.86,87,41.73,111.42,41.82,20.47,101.76-12.09,127.5-69.23C195.69,37.89,173.3,5.5,129.39,5,81.88,4.49,25.71,17.66,6.68,49.43Z"/><g class="cls-2"><path class="cls-3" d="M141.81,113.36a2.79,2.79,0,0,1-1.3-.33,2.74,2.74,0,0,1-1.11-3.71,53.46,53.46,0,0,0-4.86-58.22,2.74,2.74,0,0,1,4.33-3.36,58.94,58.94,0,0,1,5.36,64.18A2.75,2.75,0,0,1,141.81,113.36Z"/><path class="cls-3" d="M126.5,42.06a2.72,2.72,0,0,1-1.66-.56,53.74,53.74,0,0,0-47.76-8.81,2.74,2.74,0,0,1-1.57-5.25,59.29,59.29,0,0,1,52.66,9.71,2.74,2.74,0,0,1-1.67,4.91Z"/><path class="cls-3" d="M36.74,95.77A2.74,2.74,0,0,1,34,93.48a58.87,58.87,0,0,1,8.13-40.66,2.74,2.74,0,0,1,4.66,2.89,53.42,53.42,0,0,0-7.38,36.88,2.74,2.74,0,0,1-2.26,3.15A3.4,3.4,0,0,1,36.74,95.77Z"/><path class="cls-3" d="M92.41,142.84a59.17,59.17,0,0,1-49.26-26.25,2.74,2.74,0,1,1,4.56-3,53.74,53.74,0,0,0,64.64,19.94,2.74,2.74,0,1,1,2.06,5.07A58.64,58.64,0,0,1,92.41,142.84Z"/></g><ellipse class="cls-4" cx="92.34" cy="84.18" rx="35.86" ry="35.8"/><ellipse class="cls-3" cx="92.34" cy="84.18" rx="22.04" ry="22.01"/></svg>