<svg id="Ebene_1" data-name="Ebene 1" xmlns="http://www.w3.org/2000/svg" xmlns:xlink="http://www.w3.org/1999/xlink" viewBox="0 0 185 167"><defs><style>.cls-1{fill:url(#linear-gradient);}.cls-2{fill:#3298ff;}.cls-3{fill:#00e833;}.cls-4{fill:#fff;}.cls-5{fill:#0b74de;}</style><linearGradient id="linear-gradient" x1="-119.53" y1="-1118.39" x2="-265.97" y2="-1354.99" gradientTransform="translate(226.49 1261.21) rotate(0.69)" gradientUnits="userSpaceOnUse"><stop offset="0" stop-color="#0b74de"/><stop offset="0.02" stop-color="#1173de"/><stop offset="0.17" stop-color="#316ce0"/><stop offset="0.3" stop-color="#4668e1"/><stop offset="0.38" stop-color="#4d67e1"/></linearGradient></defs><title>application connectivity</title><path class="cls-1" d="M173,138.25c22.56-30.48,14.13-83.92-20.91-114.49C115.47-3.14,52.32,17.91,17.78,68.52c-28.24,48.34-12.31,83.39,29.76,91.4C93.07,168.59,149.27,165.57,173,138.25Z"/><path class="cls-2" d="M143.18,143.65a2.81,2.81,0,0,1-1.63-.51L32.62,66.74a2.84,2.84,0,0,1,3.26-4.66l108.93,76.4a2.84,2.84,0,0,1-1.63,5.17Z"/><ellipse class="cls-2" cx="26.95" cy="60.76" rx="27.41" ry="27.45"/><ellipse class="cls-3" cx="26.95" cy="60.76" rx="12.03" ry="12.05"/><path class="cls-2" d="M142.47,142.94a2.84,2.84,0,0,1-2.79-2.31L121.94,46.81a2.84,2.84,0,0,1,5.58-1.06l17.74,93.82a2.84,2.84,0,0,1-2.26,3.32A2.44,2.44,0,0,1,142.47,142.94Z"/><ellipse class="cls-4" cx="124.4" cy="46.61" rx="19.07" ry="19.1"/><ellipse class="cls-5" cx="124.4" cy="46.61" rx="9.19" ry="9.21"/><ellipse class="cls-3" cx="142.65" cy="140.26" rx="26.7" ry="26.74"/><ellipse class="cls-5" cx="142.65" cy="140.26" rx="14" ry="14.02"/></svg>