<svg id="Ebene_1" data-name="Ebene 1" xmlns="http://www.w3.org/2000/svg" xmlns:xlink="http://www.w3.org/1999/xlink" viewBox="0 0 185 167"><defs><style>.cls-1{fill:url(#linear-gradient);}.cls-2{fill:#3298ff;}.cls-3{fill:#0b74de;}.cls-4{fill:#00e833;}</style><linearGradient id="linear-gradient" x1="-1796.79" y1="305.75" x2="-1924.44" y2="236.29" gradientTransform="translate(1885.56 649.35) rotate(25.69)" gradientUnits="userSpaceOnUse"><stop offset="0" stop-color="#0b74de"/><stop offset="0.32" stop-color="#2a6edf"/><stop offset="0.64" stop-color="#4469e1"/><stop offset="0.84" stop-color="#4d67e1"/></linearGradient></defs><title>eventing</title><path class="cls-1" d="M142.29,162.38c31.91-17.25,46.19-66.86,28.12-107.44C149.48,16.88,86.13,9.59,35.69,39.4c-44,30.4-44.39,67.14-11.1,91.06C60.62,156.34,110.63,176.42,142.29,162.38Z"/><ellipse class="cls-2" cx="156.16" cy="117.68" rx="28.2" ry="28.13"/><path class="cls-3" d="M144.63,122.31a2.34,2.34,0,0,1-.46-4.64l23.05-4.58a2.35,2.35,0,1,1,.92,4.6l-23,4.58A2.38,2.38,0,0,1,144.63,122.31Z"/><path class="cls-3" d="M158.45,131.52a2.34,2.34,0,0,1-2.3-1.89l-4.59-23a2.35,2.35,0,1,1,4.61-.91l4.59,23a2.34,2.34,0,0,1-1.85,2.75A2.4,2.4,0,0,1,158.45,131.52Z"/><path class="cls-4" d="M61.73,87.12a2.72,2.72,0,0,1-.53-5.38l77.39-15.36a2.71,2.71,0,0,1,1.06,5.32L62.27,87.06A2.48,2.48,0,0,1,61.73,87.12Z"/><path class="cls-4" d="M71,133.75a2.71,2.71,0,0,1-.53-5.37l30.95-6.15a2.71,2.71,0,1,1,1.06,5.32L71.57,133.7A3.27,3.27,0,0,1,71,133.75Z"/><path class="cls-4" d="M66.32,110.09a2.71,2.71,0,0,1-.53-5.37l46.43-9.22a2.71,2.71,0,1,1,1.06,5.32L66.85,110A3.27,3.27,0,0,1,66.32,110.09Z"/><path class="cls-4" d="M71.3,61.56a2.71,2.71,0,0,1-.53-5.37l31-6.15a2.71,2.71,0,1,1,1.06,5.32l-31,6.15A3.07,3.07,0,0,1,71.3,61.56Z"/><ellipse class="cls-2" cx="24" cy="61.8" rx="23.63" ry="23.57"/><path class="cls-4" d="M14.34,65.69a2,2,0,0,1-.38-3.9L33.28,58a2,2,0,0,1,.77,3.85L14.73,65.65A2.58,2.58,0,0,1,14.34,65.69Z"/><path class="cls-4" d="M25.92,73.4A2,2,0,0,1,24,71.82L20.15,52.55A2,2,0,1,1,24,51.79l3.85,19.26a2,2,0,0,1-1.55,2.31A1.72,1.72,0,0,1,25.92,73.4Z"/></svg>