<svg id="Ebene_1" data-name="Ebene 1" xmlns="http://www.w3.org/2000/svg" xmlns:xlink="http://www.w3.org/1999/xlink" viewBox="0 0 185 167"><defs><style>.cls-1{fill:url(#linear-gradient);}.cls-2{fill:#00e833;}.cls-3{fill:#fff;}.cls-4{fill:#3298ff;}.cls-5{fill:#0b74de;}</style><linearGradient id="linear-gradient" x1="67.06" y1="-9.92" x2="105.93" y2="113.9" gradientUnits="userSpaceOnUse"><stop offset="0.13" stop-color="#0b74de"/><stop offset="0.46" stop-color="#2a6edf"/><stop offset="0.87" stop-color="#4d67e1"/></linearGradient></defs><title>Service managment</title><path class="cls-1" d="M6.75,49.43c-17.27,34.73.86,87,41.74,111.42C90.3,181.32,150.24,148.76,176,91.62,195.77,37.89,173.38,5.5,129.47,5,82,4.49,25.79,17.66,6.75,49.43Z"/><path class="cls-2" d="M145.72,83.7a2.91,2.91,0,0,1-2.91-2.9,51.28,51.28,0,0,0-102.56,0,2.91,2.91,0,0,1-5.82,0,57.1,57.1,0,0,1,114.2,0A2.9,2.9,0,0,1,145.72,83.7Z"/><path class="cls-3" d="M45.58,57.58H42.45A10.54,10.54,0,0,0,31.91,68.11V96.75a10.54,10.54,0,0,0,10.54,10.53h3.13Z"/><path class="cls-3" d="M138.13,107.27h3.12A10.54,10.54,0,0,0,151.8,96.75V64.4A6.83,6.83,0,0,0,145,57.57h-6.11l-.72.73Z"/><ellipse class="cls-4" cx="91.53" cy="93.56" rx="49.16" ry="49.09"/><ellipse class="cls-5" cx="91.53" cy="93.56" rx="30.51" ry="30.46"/><ellipse class="cls-2" cx="91.53" cy="93.56" rx="15.74" ry="15.72"/></svg>