<svg id="Ebene_1" data-name="Ebene 1" xmlns="http://www.w3.org/2000/svg" xmlns:xlink="http://www.w3.org/1999/xlink" viewBox="0 0 185 167"><defs><style>.cls-1{fill:url(#linear-gradient);}.cls-2{fill:#0b74de;}.cls-3{fill:#00e833;}.cls-4{fill:#fff;}</style><linearGradient id="linear-gradient" x1="67.96" y1="-10.94" x2="107.06" y2="113.58" gradientUnits="userSpaceOnUse"><stop offset="0.13" stop-color="#0b74de"/><stop offset="0.46" stop-color="#2a6edf"/><stop offset="0.87" stop-color="#4d67e1"/></linearGradient></defs><title>Micro frontend</title><path class="cls-1" d="M7.8,48.7c-17.27,35,.86,87.52,41.73,112.11,41.82,20.6,101.76-12.17,127.5-69.66C196.81,37.09,174.42,4.5,130.52,4,83,3.49,26.84,16.74,7.8,48.7Z"/><ellipse class="cls-2" cx="43.48" cy="72.78" rx="15.97" ry="16.04"/><path class="cls-3" d="M43.53,92.85A20.31,20.31,0,0,1,40,92.53,19.8,19.8,0,0,1,27.1,84.25a20.13,20.13,0,0,1,5-27.93A20,20,0,0,1,54.89,89.25h0A19.71,19.71,0,0,1,43.53,92.85Zm-.07-32.09a12,12,0,0,0-11.76,9.9,12,12,0,0,0,2,9,11.92,11.92,0,0,0,16.66,3h0A12,12,0,0,0,45.59,61,11.8,11.8,0,0,0,43.46,60.76Z"/><ellipse class="cls-2" cx="84.48" cy="111.87" rx="18.51" ry="18.6"/><path class="cls-4" d="M84.51,135.21a23.19,23.19,0,0,1-19.1-10,23.44,23.44,0,0,1,5.79-32.5,23.31,23.31,0,1,1,13.31,42.5ZM84.46,98a13.72,13.72,0,0,0-7.86,2.48,13.92,13.92,0,0,0-3.43,19.28A13.8,13.8,0,1,0,84.46,98Z"/><path class="cls-3" d="M146.76,48.94h-8.68V40.22a10.21,10.21,0,1,0-20.42,0v8.72H109a10.26,10.26,0,0,0,0,20.52h8.68v8.72a10.21,10.21,0,1,0,20.42,0V69.46h8.68a10.26,10.26,0,0,0,0-20.52Z"/></svg>