<svg id="Ebene_1" data-name="Ebene 1" xmlns="http://www.w3.org/2000/svg" xmlns:xlink="http://www.w3.org/1999/xlink" viewBox="0 0 185 167"><defs><style>.cls-1{fill:url(#linear-gradient);}.cls-2{fill:#00e833;}.cls-3{fill:#3298ff;}.cls-4{fill:#fff;}.cls-5{fill:#0b74de;}</style><linearGradient id="linear-gradient" x1="-487.78" y1="1518.73" x2="-343.44" y2="1218.29" gradientTransform="translate(-1066.76 1144.37) rotate(-150.1)" gradientUnits="userSpaceOnUse"><stop offset="0" stop-color="#0b74de"/><stop offset="0.04" stop-color="#1e70df"/><stop offset="0.1" stop-color="#336ce0"/><stop offset="0.17" stop-color="#4269e0"/><stop offset="0.25" stop-color="#4a68e1"/><stop offset="0.38" stop-color="#4d67e1"/></linearGradient></defs><title>Functions</title><path class="cls-1" d="M43.28,16.81C8.9,32.28-9.69,82.69,5.93,126.19c18.77,41.09,83.84,53.49,138.39,26.4,48-28.19,51.13-66.3,18.47-93.66C127.44,29.31,77.16,4.66,43.28,16.81Z"/><path class="cls-2" d="M85.32,85.66a2.83,2.83,0,0,1-2.5-1.49L68.88,58,50.8,67.63a2.82,2.82,0,0,1-2.66-5L68.71,51.7a2.78,2.78,0,0,1,2.15-.21,2.81,2.81,0,0,1,1.67,1.37L87.81,81.51a2.83,2.83,0,0,1-1.16,3.82A2.91,2.91,0,0,1,85.32,85.66Z"/><ellipse class="cls-3" cx="38.08" cy="71.02" rx="16.69" ry="16.68"/><path class="cls-4" d="M38.05,90.52A19.51,19.51,0,1,1,55.45,79.9h0A19.53,19.53,0,0,1,38.05,90.52Zm.05-33.36a13.86,13.86,0,1,0,6.3,1.52A13.91,13.91,0,0,0,38.1,57.16Z"/><path class="cls-4" d="M92.17,136.52a2.76,2.76,0,0,1-.79-.12l-31.2-9.05a2.83,2.83,0,0,1-1.92-3.5l6.5-22.36a2.82,2.82,0,0,1,5.42,1.57l-5.71,19.66L93,131a2.83,2.83,0,0,1-.79,5.54Z"/><ellipse class="cls-5" cx="98.96" cy="135.56" rx="12.55" ry="12.54"/><path class="cls-2" d="M99,150.93a15.36,15.36,0,0,1-9.7-27.32A15.37,15.37,0,1,1,99,150.93Zm0-25.09a9.73,9.73,0,1,0,7.57,3.61A9.71,9.71,0,0,0,99,125.84Z"/><path class="cls-3" d="M167.64,66.09l11.76,2.17,2-10.86-11.77-2.18C169.46,51.94,169.1,47,168,44l9.86-6.78-8.37-12.13-9.86,6.78c-2.38-2.13-6.91-4.25-9.91-5.58l2.17-11.76-10.87-2-2.17,11.76c-3.29.18-8.27.54-11.26,1.68l-6.79-9.85-12.14,8.35,6.78,9.86c-2.13,2.37-4.25,6.9-5.59,9.9L98.05,42,96,52.89l11.77,2.17c.18,3.28.54,8.26,1.68,11.25l-9.86,6.78L108,85.22l9.86-6.78c2.38,2.13,6.91,4.25,9.92,5.59L125.6,95.79l10.87,2L138.64,86c3.28-.19,8.27-.55,11.25-1.69l6.8,9.85,12.14-8.35L162,76C164.18,73.62,166.3,69.09,167.64,66.09Z"/><path class="cls-3" d="M136.47,100.28a2.28,2.28,0,0,1-.45,0l-10.88-2a2.5,2.5,0,0,1-2-2.91L125,85.49a49.07,49.07,0,0,1-7.21-4l-8.34,5.74a2.49,2.49,0,0,1-3.47-.64L97.58,74.5a2.45,2.45,0,0,1-.4-1.86,2.49,2.49,0,0,1,1-1.6l8.36-5.75a48.4,48.4,0,0,1-1.13-8.14l-9.85-1.81a2.5,2.5,0,0,1-2-2.91l2-10.86a2.5,2.5,0,0,1,2.91-2l9.85,1.82a48.44,48.44,0,0,1,4-7.2l-5.75-8.34a2.49,2.49,0,0,1,.64-3.47L119.35,14a2.49,2.49,0,0,1,3.47.64L128.57,23a48.54,48.54,0,0,1,8.14-1.13L138.53,12a2.49,2.49,0,0,1,2.9-2l10.88,2a2.48,2.48,0,0,1,2,2.9l-1.82,9.84a48.54,48.54,0,0,1,7.2,4L168,23a2.49,2.49,0,0,1,3.47.64l8.36,12.13a2.49,2.49,0,0,1-.64,3.47L170.88,45A48.54,48.54,0,0,1,172,53.13L181.86,55a2.48,2.48,0,0,1,2,2.9l-2,10.86a2.49,2.49,0,0,1-2.9,2l-9.85-1.82a49.37,49.37,0,0,1-4,7.2l5.74,8.35a2.48,2.48,0,0,1-.64,3.46L158.1,96.25a2.5,2.5,0,0,1-3.47-.63l-5.75-8.35a48.54,48.54,0,0,1-8.14,1.13l-1.82,9.84a2.5,2.5,0,0,1-2.45,2Zm-8-6.49,6,1.1,1.72-9.31a2.48,2.48,0,0,1,2.31-2c2.09-.12,7.62-.42,10.5-1.52a2.49,2.49,0,0,1,2.95.91l5.38,7.8,8-5.53L160,77.41a2.5,2.5,0,0,1,.2-3.08c2.05-2.29,4.32-7.35,5.17-9.26a2.49,2.49,0,0,1,2.73-1.43l9.31,1.72,1.1-6-9.31-1.72a2.47,2.47,0,0,1-2-2.31c-.11-2.08-.41-7.6-1.52-10.5a2.49,2.49,0,0,1,.92-2.94l7.8-5.36-5.54-8L161,33.89a2.51,2.51,0,0,1-3.08-.19c-2.31-2.08-7.54-4.4-9.26-5.17a2.47,2.47,0,0,1-1.44-2.72L149,16.49l-6-1.1-1.72,9.31a2.49,2.49,0,0,1-2.32,2c-2.08.11-7.6.41-10.5,1.52a2.49,2.49,0,0,1-2.94-.92l-5.38-7.8-8,5.53,5.38,7.8a2.5,2.5,0,0,1-.2,3.08c-2.06,2.29-4.32,7.35-5.17,9.26a2.49,2.49,0,0,1-2.73,1.43l-9.31-1.72-1.11,6,9.32,1.72a2.48,2.48,0,0,1,2,2.31c.12,2.08.43,7.62,1.53,10.49a2.5,2.5,0,0,1-.92,3l-7.8,5.37,5.53,8,7.8-5.38a2.5,2.5,0,0,1,3.08.2c2.3,2.07,7.37,4.32,9.27,5.18a2.48,2.48,0,0,1,1.44,2.72Z"/><ellipse class="cls-2" cx="138.72" cy="55.14" rx="18.31" ry="18.29"/></svg>