<svg id="Ebene_1" data-name="Ebene 1" xmlns="http://www.w3.org/2000/svg" xmlns:xlink="http://www.w3.org/1999/xlink" viewBox="0 0 185 167"><defs><style>.cls-1{fill:url(#linear-gradient);}.cls-2{fill:#00e833;}.cls-3{fill:#0b74de;}.cls-4{fill:#3298ff;}</style><linearGradient id="linear-gradient" x1="-1921.11" y1="-231.34" x2="-2047.75" y2="-300.24" gradientTransform="translate(1762.89 1187.33) rotate(25.69)" gradientUnits="userSpaceOnUse"><stop offset="0" stop-color="#0b74de"/><stop offset="0.32" stop-color="#2a6edf"/><stop offset="0.64" stop-color="#4469e1"/><stop offset="0.84" stop-color="#4d67e1"/></linearGradient></defs><title>Provisioning</title><path class="cls-1" d="M140.27,162.41C171.88,145.28,186,96,168.12,55.71c-20.73-37.8-83.48-45-133.46-15.43C-9,70.47-9.31,107,23.67,130.71,59.36,156.41,108.9,176.36,140.27,162.41Z"/><path class="cls-2" d="M125.84,153.11a2.67,2.67,0,0,1-1.7-.61L28.49,74.9a2.7,2.7,0,0,1-.39-3.79L54.14,39a2.69,2.69,0,1,1,4.18,3.39L34,72.41l91.46,74.21L150.3,116a2.69,2.69,0,1,1,4.18,3.39l-26.55,32.72A2.68,2.68,0,0,1,125.84,153.11Z"/><circle class="cls-3" cx="92.27" cy="93.92" r="21.7"/><path class="cls-2" d="M92.22,119a25.07,25.07,0,1,1,19.51-9.27h0a24.89,24.89,0,0,1-16.87,9.14A23.47,23.47,0,0,1,92.22,119Zm.06-43.4a18.33,18.33,0,1,0,14.22,29.88h0A18.32,18.32,0,0,0,92.28,75.59Z"/><circle class="cls-3" cx="159.28" cy="105.18" r="20.78"/><path class="cls-4" d="M159.25,131.17a26,26,0,1,1,20.22-9.61A25.83,25.83,0,0,1,159.25,131.17Zm.06-41.56a15,15,0,0,0-1.64.09A15.56,15.56,0,1,0,171.36,115h0a15.57,15.57,0,0,0-12.05-25.37Z"/><circle class="cls-2" cx="55.02" cy="40.82" r="18.76"/><path class="cls-4" d="M55,64.63a23.87,23.87,0,1,1,2.48-.13h0A23,23,0,0,1,55,64.63ZM55,27.1a13.9,13.9,0,0,0-1.44.08,13.71,13.71,0,1,0,2.84,27.28h0A13.72,13.72,0,0,0,55,27.1Z"/></svg>