<?xml version="1.0" encoding="utf-8"?>
<svg version="1.1" id="Ebene_1" xmlns="http://www.w3.org/2000/svg" xmlns:xlink="http://www.w3.org/1999/xlink" x="0px" y="0px"
	 width="1749.6px" height="576px" preserveAspectRatio="none" viewBox="0 0 1749.6 576" style="enable-background:new 0 0 1749.6 576;" xml:space="preserve">
<style type="text/css">
	.st0{fill:url(#SVGID_1_);}
	.st1{fill:url(#SVGID_2_);}
	.st2{fill:url(#SVGID_3_);}
</style>
<linearGradient id="SVGID_1_" gradientUnits="userSpaceOnUse" x1="-180" y1="72" x2="1247" y2="1971" gradientTransform="matrix(2804.9272 0 0 1738.3345 -3083560 -235082.4688)">
	<stop  offset="0" style="stop-color:#0B74DE"/>
	<stop  offset="0.2469" style="stop-color:#0A6ACC"/>
	<stop  offset="0.7415" style="stop-color:#06509C"/>
	<stop  offset="1" style="stop-color:#044181"/>
</linearGradient>
<path class="st0" d="M1749.3-0.2H824.2c201.8,183.1,486,342.5,821.7,444.7c34.6,10.5,69.1,20.4,103.5,29.6V-0.2L1749.3-0.2z"/>
<linearGradient id="SVGID_2_" gradientUnits="userSpaceOnUse" x1="-1226" y1="1058" x2="1781" y2="1404" gradientTransform="matrix(3612.8247 0 0 3003.8999 -3972269.25 -406565.0312)">
	<stop  offset="0" style="stop-color:#0B74DE;stop-opacity:0.8"/>
	<stop  offset="1" style="stop-color:#00E833;stop-opacity:0.5"/>
</linearGradient>
<path class="st1" d="M1749.3-0.2H767.5c136,142,284.1,269.2,439.4,373.3c165.9,111.2,350.4,174.9,542.4,195V-0.2L1749.3-0.2z"/>
<linearGradient id="SVGID_3_" gradientUnits="userSpaceOnUse" x1="-180" y1="72" x2="1247" y2="1971"  gradientTransform="matrix(2625.6252 0 0 1899.0656 -2886575.5 -257022.8125)">
	<stop  offset="0" style="stop-color:#4D10E1;stop-opacity:0.5"/>
	<stop  offset="1" style="stop-color:#0B74DE"/>
</linearGradient>
<path class="st2" d="M1749.3-0.2H720.9c157.3,138,344,253.8,545.8,330.2c157.3,59.5,321.5,86.7,482.6,84.9L1749.3-0.2L1749.3-0.2z"
	/>
</svg>

