<svg xmlns="http://www.w3.org/2000/svg" width="1749.6" height="576" preserveAspectRatio="none"><linearGradient id="a" gradientUnits="userSpaceOnUse" x1="-180" y1="72" x2="1247" y2="1971" gradientTransform="matrix(2804.9272 0 0 1738.3345 -3083560 -235082.469)"><stop offset="0" stop-color="#0b74de"/><stop offset=".247" stop-color="#0a6acc"/><stop offset=".742" stop-color="#06509c"/><stop offset="1" stop-color="#044181"/></linearGradient><path d="M1749.3-.2H824.2c201.8 183.1 486 342.5 821.7 444.7 34.6 10.5 69.1 20.4 103.5 29.6V-.2h-.1z" fill="url(#a)"/><linearGradient id="b" gradientUnits="userSpaceOnUse" x1="-1226" y1="1058" x2="1781" y2="1404" gradientTransform="matrix(3612.8247 0 0 3003.8999 -3972269.25 -406565.031)"><stop offset="0" stop-color="#0b74de" stop-opacity=".8"/><stop offset="1" stop-color="#00e833" stop-opacity=".5"/></linearGradient><path d="M1749.3-.2H767.5c136 142 284.1 269.2 439.4 373.3 165.9 111.2 350.4 174.9 542.4 195V-.2z" fill="url(#b)"/><linearGradient id="c" gradientUnits="userSpaceOnUse" x1="-180" y1="72" x2="1247" y2="1971" gradientTransform="matrix(2625.6252 0 0 1899.0656 -2886575.5 -257022.813)"><stop offset="0" stop-color="#4d10e1" stop-opacity=".5"/><stop offset="1" stop-color="#0b74de"/></linearGradient><path d="M1749.3-.2H720.9c157.3 138 344 253.8 545.8 330.2 157.3 59.5 321.5 86.7 482.6 84.9V-.2z" fill="url(#c)"/></svg>