<?xml version="1.0" encoding="utf-8"?>
<!-- Generator: Adobe Illustrator 23.0.4, SVG Export Plug-In . SVG Version: 6.00 Build 0)  -->
<svg version="1.1" id="Ebene_1" xmlns="http://www.w3.org/2000/svg" xmlns:xlink="http://www.w3.org/1999/xlink" x="0px" y="0px"
	 viewBox="0 0 1440 232" style="enable-background:new 0 0 1440 232;" xml:space="preserve">
<style type="text/css">
	.st0{filter:url(#Adobe_OpacityMaskFilter);}
	.st1{fill:#FFFFFF;}
	.st2{mask:url(#group-2-copy-2-d_2_);fill:url(#SVGID_1_);}
	.st3{fill:url(#SVGID_2_);}
	.st4{filter:url(#Adobe_OpacityMaskFilter_1_);}
	.st5{mask:url(#group-2-copy-2-d_4_);fill:url(#SVGID_3_);}
</style>
<g id="Layer_1">
	<defs>
		<filter id="Adobe_OpacityMaskFilter" filterUnits="userSpaceOnUse" x="-327" y="-297.3" width="2402.9" height="490.4">
			<feColorMatrix  type="matrix" values="1 0 0 0 0  0 1 0 0 0  0 0 1 0 0  0 0 0 1 0"/>
		</filter>
	</defs>
	<mask maskUnits="userSpaceOnUse" x="-327" y="-297.3" width="2402.9" height="490.4" id="group-2-copy-2-d_2_">
		<g class="st0">
			<path id="group-2-copy-2-b_2_" class="st1" d="M0,0.7h1440V193H0V0.7z"/>
		</g>
	</mask>
	
		<linearGradient id="SVGID_1_" gradientUnits="userSpaceOnUse" x1="1328.3079" y1="-153.6183" x2="536.0955" y2="652.084" gradientTransform="matrix(1 0 0 -1 0 234)">
		<stop  offset="0" style="stop-color:#00E833;stop-opacity:0.5"/>
		<stop  offset="1" style="stop-color:#0B74DE;stop-opacity:0.8"/>
	</linearGradient>
	<path class="st2" d="M874.5-290.9C115.3-325.4-417-218.5-314.3-52.2S320.6,221,874.5,186.6S1960.7,45.2,2063.3-52.2
		S1633.7-256.4,874.5-290.9z"/>
	
		<linearGradient id="SVGID_2_" gradientUnits="userSpaceOnUse" x1="721.3779" y1="154.2373" x2="1104.171" y2="886.8672" gradientTransform="matrix(1 0 0 -1 0 234)">
		<stop  offset="0" style="stop-color:#0B74DE"/>
		<stop  offset="1" style="stop-color:#00E833;stop-opacity:0.5"/>
	</linearGradient>
	<path class="st3" d="M1440,0H0v115.1c107.4,9.5,223.4,18.1,347.1,25.8c410.8,26.7,788.8,33.7,1092.9,23.9V0z"/>
	<defs>
		<filter id="Adobe_OpacityMaskFilter_1_" filterUnits="userSpaceOnUse" x="-649.5" y="-402" width="2578.4" height="595">
			<feColorMatrix  type="matrix" values="1 0 0 0 0  0 1 0 0 0  0 0 1 0 0  0 0 0 1 0"/>
		</filter>
	</defs>
	<mask maskUnits="userSpaceOnUse" x="-649.5" y="-402" width="2578.4" height="595" id="group-2-copy-2-d_4_">
		<g class="st4">
			<path id="group-2-copy-2-b_4_" class="st1" d="M0,0h1440v232H0V0z"/>
		</g>
	</mask>
	
		<linearGradient id="SVGID_3_" gradientUnits="userSpaceOnUse" x1="639.7097" y1="660.482" x2="639.7097" y2="-77.002" gradientTransform="matrix(1 0 0 -1 0 234)">
		<stop  offset="0" style="stop-color:#4D10E1;stop-opacity:0.5"/>
		<stop  offset="1" style="stop-color:#0B74DE;stop-opacity:0.5"/>
	</linearGradient>
	<path class="st5" d="M859.3-395.7c-517.1-21.6-1101.6,7.7-1397,163.2c-299.8,155.3,16,386.9,796.8,419.5s1576.6-70.2,1669.8-234.2
		C1903.4-216.1,1376.4-374.1,859.3-395.7L859.3-395.7z"/>
</g>
</svg>
