<svg xmlns="http://www.w3.org/2000/svg" viewBox="0 0 1749.6 428"><path d="M824.9.2h924.9v374.6c-.9.7-2 .6-3.2.6-14.2 0-28.4.3-42.7-.1-14.3-.4-27.4-.7-41.1-1.5l-26.6-1.4-23.4-1.8c-18.1-1.4-36.1-3.3-54.1-5.5s-38.5-4.8-57.6-8.2l-3.7-.5c-1.5-.2-2.9-.5-4.3-1-12.4-4.4-25-8.7-37.5-13.1-23.7-8.4-47.3-17.1-70.6-26.1-16-6.2-31.9-12.5-47.6-19-18.9-7.8-37.6-15.6-56.3-23.8-14-6.1-28-12.4-41.9-18.8-23.6-10.9-47.1-22.1-70.2-33.8-23.1-11.7-44.1-22.6-65.7-34.5-29.5-16.1-58.6-32.8-87.1-50.3S957.4 99 929 79.3c-22.1-15.2-43.7-30.9-64.8-47.1-10.8-8.2-21.4-16.5-31.8-25-2.1-1.7-4.1-3.5-6.3-5.1s-1.5-.9-1.2-1.9z" fill="#2655c6"/><path d="M1493 354.8c-4-.4-8-1.3-12-2-10.4-1.9-20.9-3.8-31.3-5.9-7.2-1.4-14.3-2.9-21.4-4.3-18.1-3.9-36-8-53.9-12.6-10.9-2.8-21.6-5.8-32.4-8.7-12.6-3.5-25.1-7.2-37.5-11.1-16.5-5.1-32.9-10.6-49.2-16.3-16.3-5.6-32.4-11.5-48.4-17.6-10.5-4.1-21-8.2-31.4-12.4-14.7-5.9-29.2-12-43.7-18.2s-30.1-13.4-45-20.3-27.6-13.1-41.2-19.8-30.1-15.2-45-23.1-27.1-14.7-40.6-22.2l-20-11.5c-.4-.3-1-.5-1.5-.6l-4.7-3.2c-6.7-4.6-12.6-9.9-18.9-14.9-8.9-7.2-17.6-14.7-26.5-21.9-2.7-2.1-5.3-4.4-7.9-6.6-8.4-7.4-16.9-14.7-25.4-22-21.4-18.2-42.1-37-62.8-55.9-7.8-7.1-15.7-14.1-23.1-21.6-.5-.5-1.3-1-1-1.8h56.7c1.9 1.8 3.9 3.5 6.1 5.1l5.9 4.8c4.6 3.8 9.3 7.4 14 11.1s11.7 9.3 17.8 13.6c4.4 3.2 8.6 6.7 13 9.9l16.7 12.1 15.1 10.9c4.6 3.3 9.3 6.5 14 9.7 7.1 5.1 14.4 9.8 21.7 14.8s14.3 9.6 21.5 14.3c7.2 4.7 16.7 10.8 25.2 16.1 15.1 9.6 30.4 18.9 45.9 28.1 11.2 6.7 22.6 13.2 34 19.6l22.6 12.6 19.2 10.6 15.9 8.3 16.4 8.6 12.5 6.4 15 7.6 11.8 5.8 25.1 12.2.4.2 17.9 8.3c14.1 6.8 28.3 13.1 42.6 19.4 9 4.1 18.1 7.9 27.2 11.9l21.6 9.1 25.8 10.5c9.1 3.7 18.2 7.3 27.4 10.8 9.2 3.5 19.7 7.8 29.7 11.4l26.5 9.9 25.4 9 18.2 6.4 15.5 5.2c.2-.1.3.1.5.2z" fill="#4767cf"/><path d="M1749.8 428c-4.2-.7-8.3-1.7-12.4-2.9-14.1-3.4-28.2-7-42.2-10.6-10-2.5-20-5.3-30-7.9-14.9-4-29.7-8-44.4-12.3-18.7-5.3-37.4-10.7-56-16.5-18.6-5.8-35-10.9-52.3-16.7l-14.8-5-.8-.4c4.1.3 8.1 1.3 12.2 1.8l13.6 2.1 13.9 2 11.1 1.4 13 1.6 9.5 1 9 1 11.4 1.2 11.3 1.2 5.7.5c6.6.3 13 1.1 19.6 1.4l19.5 1.4 16.2.8 21 .9c5.1.3 10.1.1 15.1.4 17 .9 33.9.3 50.8.5V428z" fill="#06a28e"/><path d="M768.2.2l.8.8c5.3 5.1 10.8 10 16.1 15.1 16.2 15.2 32.8 30 49.4 44.8 5.9 5.3 11.9 10.6 18 15.8 3.8 3.2 7.3 6.5 11.1 9.7 6 5 11.9 10.2 17.9 15.2l13.1 11 18.2 15.1c4.7 3.9 9.4 7.8 14.2 11.5 2.1 1.6 4 3.6 6.3 5 .2.2.3.5.5.7-3.8-1.7-7.2-4.1-10.8-6.1-34.3-20.4-67.8-41.8-100.6-64.2-19.5-13.4-38.6-27-57.5-41-13.9-10.5-27.6-21-41.1-31.6-.8-.5-1.4-1.5-2.6-1.4s1-.4 1.4-.4h45.6z" fill="#8278eb"/></svg>