<svg xmlns="http://www.w3.org/2000/svg" viewBox="0 0 1749.6 576"><path d="M824.9.2h924.9v415.2c-.9.8-2 .7-3.2.7-14.2 0-28.4.3-42.7-.1s-27.4-.8-41.1-1.7l-26.6-1.6-23.4-2c-18.1-1.5-36.1-3.7-54.1-6.1s-38.5-5.3-57.6-9.1l-3.7-.6c-1.5-.2-2.9-.6-4.3-1.1-12.4-4.9-25-9.6-37.5-14.5-23.7-9.3-47.3-18.9-70.6-28.9-16-6.9-31.9-13.9-47.6-21.1-18.9-8.6-37.6-17.3-56.3-26.4-14-6.8-28-13.7-41.9-20.8-23.6-12.1-47.1-24.5-70.2-37.5s-44.1-25.1-65.7-38.2c-29.5-17.9-58.6-36.4-87.1-55.8s-58.8-41-87.2-62.8c-22.1-16.8-43.7-34.3-64.8-52.2-10.8-9.1-21.4-18.3-31.8-27.7-2.1-1.9-4.1-3.9-6.3-5.6s-1.5-1-1.2-2.1z" fill="#2655c6"/><path d="M1493 393.3c-4-.4-8-1.4-12-2.2-10.4-2.1-20.9-4.2-31.3-6.5-7.2-1.5-14.3-3.2-21.4-4.8-18.1-4.3-36-8.9-53.9-14-10.9-3.1-21.6-6.4-32.4-9.6-12.6-3.9-25.1-8-37.5-12.3-16.5-5.7-32.9-11.7-49.2-18.1-16.3-6.2-32.4-12.8-48.4-19.5-10.5-4.5-21-9.1-31.4-13.8-14.7-6.5-29.2-13.3-43.7-20.2s-30.1-14.8-45-22.5-27.6-14.5-41.2-22-30.1-16.9-45-25.6-27.1-16.3-40.6-24.6l-20-12.7c-.4-.3-1-.6-1.5-.7l-4.7-3.6c-6.7-5.1-12.6-11-18.9-16.5-8.9-8-17.6-16.3-26.5-24.3-2.7-2.3-5.3-4.9-7.9-7.3-8.4-8.2-16.9-16.3-25.4-24.4-21.4-20.2-42.1-41-62.8-62-7.8-7.9-15.7-15.6-23.1-23.9-.5-.6-1.3-1.1-1-2h56.7c1.9 2 3.9 3.9 6.1 5.6l5.9 5.3c4.6 4.2 9.3 8.2 14 12.3s11.7 10.3 17.8 15.1c4.4 3.6 8.6 7.4 13 11l16.7 13.4L913.5 75c4.6 3.7 9.3 7.2 14 10.8 7.1 5.6 14.4 10.9 21.7 16.4s14.3 10.6 21.5 15.8 16.7 12 25.2 17.9c15.1 10.6 30.4 20.9 45.9 31.1 11.2 7.4 22.6 14.6 34 21.7l22.6 14 19.2 11.7 15.9 9.2 16.4 9.5 12.5 7.1 15 8.4 11.8 6.4 25.1 13.5.4.2 17.9 9.2c14.1 7.5 28.3 14.5 42.6 21.5 9 4.5 18.1 8.8 27.2 13.2l21.6 10.1 25.8 11.6c9.1 4.1 18.2 8.1 27.4 12s19.7 8.6 29.7 12.6l26.5 11 25.4 10 18.2 7.1 15.5 5.8c.2.1.3.3.5.5z" fill="#4767cf"/><path d="M1749.8 474.4c-4.2-.8-8.3-1.9-12.4-3.2-14.1-3.8-28.2-7.8-42.2-11.8-10-2.8-20-5.9-30-8.8-14.9-4.4-29.7-8.9-44.4-13.6-18.7-5.9-37.4-11.9-56-18.3s-35-12.1-52.3-18.5l-14.8-5.5-.8-.4c4.1.3 8.1 1.4 12.2 2l13.6 2.3 13.9 2.2 11.1 1.6 13 1.8 9.5 1.1 9 1.1 11.4 1.3 11.3 1.3 5.7.5c6.6.3 13 1.2 19.6 1.6l19.5 1.5 16.2.9 21 1c5.1.3 10.1.1 15.1.4 17 1 33.9.3 50.8.5v59z" fill="#06a28e"/><path d="M768.2.2l.8.9c5.3 5.6 10.8 11.1 16.1 16.7 16.2 16.9 32.8 33.2 49.4 49.7 5.9 5.9 11.9 11.8 18 17.5 3.8 3.5 7.3 7.2 11.1 10.7 6 5.5 11.9 11.3 17.9 16.9l13.1 12.2 18.2 16.7c4.7 4.3 9.4 8.6 14.2 12.8 2.1 1.8 4 4 6.3 5.5.2.2.3.6.5.8-3.8-1.9-7.2-4.5-10.8-6.8-34.3-22.6-67.8-46.3-100.6-71.2-19.5-14.8-38.6-29.9-57.5-45.5C751 25.6 737.3 14 723.8 2.2c-.8-.6-1.4-1.7-2.6-1.6s1-.4 1.4-.4h45.6z" fill="#8278eb"/></svg>