<svg id="Ebene_1" data-name="Ebene 1" xmlns="http://www.w3.org/2000/svg" viewBox="0 0 600 400"><defs><style>.cls-1{fill:#ff9500;}</style></defs><title>accenture</title><path d="M19.822,178.613h12.9l14.188,43.77H36.576l-3.019-9.72H17.739l-3.018,9.72h-9.3Zm0,26.971H31.384l-5.751-18.9Z"/><path d="M47.624,206.747v-.483c0-10.339,7.4-16.6,16.512-16.6,7.4,0,14.248,3.245,15.094,12.422H70.853a5.887,5.887,0,0,0-6.278-5.467c-.071,0-.142.011-.212.018-4.528,0-7.653,3.426-7.653,9.539v.483c0,6.43,2.868,9.72,7.834,9.72a6.49,6.49,0,0,0,6.849-6.11l0-.063H79.32c-.483,7.547-6.037,12.845-15.289,12.845S47.624,217.206,47.624,206.747Z"/><path d="M81.418,206.747v-.483c0-10.339,7.4-16.6,16.512-16.6,7.4,0,14.248,3.245,15.094,12.422h-8.377a5.887,5.887,0,0,0-6.278-5.467c-.071,0-.142.011-.212.018-4.528,0-7.653,3.426-7.653,9.539v.483c0,6.43,2.868,9.72,7.834,9.72a6.49,6.49,0,0,0,6.849-6.11l0-.063h8.015c-.483,7.547-6.038,12.845-15.29,12.845S81.418,217.206,81.418,206.747Z"/><path d="M115.2,206.747v-.483c0-10.1,7.154-16.6,16.452-16.6,8.256,0,15.591,4.83,15.591,16.271v2.445H124.193c.241,5.328,3.124,8.377,7.954,8.377,4.105,0,6.113-1.781,6.671-4.528h8.422c-1.041,6.912-6.55,10.761-15.289,10.761C122.246,223.017,115.2,216.965,115.2,206.747Zm23.425-3.849c-.3-4.83-2.747-7.154-6.973-7.154-3.97,0-6.671,2.626-7.336,7.154Z"/><path d="M151.542,190.355h8.875v5.072a11.048,11.048,0,0,1,10.4-5.811c6.309,0,10.762,3.788,10.762,12.361v20.376H172.7V203.26c0-4.347-1.721-6.43-5.63-6.43s-6.671,2.325-6.671,7.034v18.474h-8.875Z"/><path d="M188.762,212.875V196.589h-4.09V190.3h4.1v-6.913h8.815V190.3h6.731v6.294h-6.731V212c0,2.566,1.283,3.789,3.547,3.789a8.283,8.283,0,0,0,3.365-.6v6.852a16.128,16.128,0,0,1-5.388.861C192.369,222.957,188.762,219.531,188.762,212.875Z"/><path d="M207.825,210.973V190.355h8.845v19.4c0,4.347,1.781,6.415,5.569,6.415s6.671-2.324,6.671-7.034V190.355h8.815v32H228.91v-5.011c-1.645,3.245-4.89,5.69-10.157,5.69C212.474,223.017,207.825,219.35,207.825,210.973Z"/><path d="M243.566,190.355h8.875v6.113a10.566,10.566,0,0,1,10.339-6.611V198.1c-6.551,0-10.339,2.083-10.339,8.2v16.029h-8.875Z"/><path d="M264.244,206.747v-.483c0-10.1,7.154-16.6,16.452-16.6,8.256,0,15.591,4.83,15.591,16.271v2.445H273.224c.242,5.328,3.125,8.377,7.955,8.377,4.105,0,6.112-1.781,6.671-4.528h8.377c-1.042,6.912-6.551,10.761-15.29,10.761C271.277,223.017,264.244,216.965,264.244,206.747Zm23.364-3.849c-.3-4.83-2.747-7.154-6.973-7.154-3.969,0-6.671,2.626-7.335,7.154Z"/><path class="cls-1" d="M314.293,178.6h5.328v43.77h-5.328Z"/><path class="cls-1" d="M329.16,190.34h5.072v5.072c1.509-3.019,5.011-5.63,10.278-5.63,6.611,0,11.26,3.607,11.26,12.9v19.622H350.7V202.339c0-5.629-2.385-8.135-7.547-8.135a8.423,8.423,0,0,0-8.927,7.886,8.667,8.667,0,0,0-.008.868v19.4h-5.072Z"/><path class="cls-1" d="M364.856,214.324v-19.7h-4.528V190.34h4.528v-7.335h5.071v7.275h7.457v4.286h-7.457V213.78c0,3.125,1.4,4.649,3.97,4.649a10.431,10.431,0,0,0,3.909-.679v4.286a12.06,12.06,0,0,1-4.347.679C367.6,222.761,364.856,219.335,364.856,214.324Z"/><path class="cls-1" d="M380.8,206.671v-.483c0-9.66,6.173-16.391,14.987-16.391,7.4,0,14.369,4.528,14.369,15.908v1.645H386c.241,7.275,3.728,11.32,10.278,11.32,4.951,0,7.834-1.841,8.5-5.569h5.086c-1.1,6.43-6.429,9.78-13.584,9.78C387.224,222.881,380.8,216.527,380.8,206.671Zm24.149-3.426c-.483-6.611-3.909-9.237-9.177-9.237s-8.678,3.547-9.539,9.237Z"/><path class="cls-1" d="M416.868,190.34h5.071v5.751A11.168,11.168,0,0,1,432.5,189.8v4.769c-6.429.3-10.565,2.325-10.565,10.218v17.554h-5.071Z"/><path class="cls-1" d="M435.433,213.463c0-7.4,7.833-9.916,16.029-9.916h4.528v-2.325c0-5.071-1.962-7.214-6.853-7.214-4.407,0-6.852,1.841-7.335,5.75h-5.071c.679-7.275,6.49-9.976,12.663-9.976s11.682,2.5,11.682,11.44v21.131H456.05v-4.045a11.53,11.53,0,0,1-9.977,4.528C440.142,222.881,435.433,220.014,435.433,213.463Zm20.617-2.324v-3.985h-4.407c-6.43,0-11.139,1.585-11.139,6.294,0,3.306,1.585,5.388,6.037,5.388,5.419.016,9.509-2.731,9.509-7.7Z"/><path class="cls-1" d="M467.431,206.671v-.483c0-9.78,6.973-16.391,15.546-16.391,6.671,0,12.9,3.019,13.886,11.2h-5.011c-.8-5.071-4.528-6.973-8.875-6.973-5.811,0-10.279,4.649-10.279,12.18v.483c0,7.834,4.287,11.984,10.46,11.984,4.528,0,8.633-2.626,9.177-7.833h4.709c-.68,6.913-6.234,12.075-13.947,12.075C474.162,222.881,467.431,216.588,467.431,206.671Z"/><path class="cls-1" d="M504.621,214.324v-19.7h-4.528V190.34h4.528v-7.335h5.071v7.275h7.456v4.286h-7.456V213.78c0,3.125,1.4,4.649,3.969,4.649a10.439,10.439,0,0,0,3.91-.679v4.286a12.063,12.063,0,0,1-4.347.679C507.443,222.761,504.621,219.335,504.621,214.324Z"/><path class="cls-1" d="M522.385,180.318a3.366,3.366,0,1,1,3.366,3.366h0A3.4,3.4,0,0,1,522.385,180.318Zm.921,10.037h5.071v32h-5.071Z"/><path class="cls-1" d="M533.63,190.34h5.509l9.479,26.851,9.358-26.851h5.267l-11.5,32h-6.49Z"/><path class="cls-1" d="M565.22,206.671v-.483c0-9.66,6.173-16.391,14.988-16.391,7.4,0,14.369,4.528,14.369,15.908v1.645h-24.15c.242,7.275,3.729,11.32,10.279,11.32,4.951,0,7.834-1.841,8.5-5.569h5.071c-1.1,6.43-6.43,9.78-13.584,9.78C571.65,222.881,565.22,216.527,565.22,206.671Zm24.15-3.426c-.483-6.611-3.91-9.237-9.177-9.237s-8.694,3.547-9.539,9.237Z"/></svg>