<?xml version="1.0" encoding="utf-8"?>
<!-- Generator: Adobe Illustrator 16.0.3, SVG Export Plug-In . SVG Version: 6.00 Build 0)  -->
<!DOCTYPE svg PUBLIC "-//W3C//DTD SVG 1.1//EN" "http://www.w3.org/Graphics/SVG/1.1/DTD/svg11.dtd">
<svg version="1.1" id="Ebene_1" xmlns="http://www.w3.org/2000/svg" xmlns:xlink="http://www.w3.org/1999/xlink" x="0px" y="0px"
	 width="600px" height="246.402px" viewBox="0 0 600 246.402" enable-background="new 0 0 600 246.402" xml:space="preserve">
<g>
	<defs>
		<rect id="SVGID_1_" y="31.402" width="1014.943" height="215"/>
	</defs>
	<clipPath id="SVGID_2_">
		<use xlink:href="#SVGID_1_"  overflow="visible"/>
	</clipPath>
	<path clip-path="url(#SVGID_2_)" fill="#1D71B8" d="M429.952,161.867V98.604c-9.382-4.81-15.396-6.495-22.373-6.495
		c-17.079,0-26.46,14.192-26.46,40.654c0,28.382,6.253,40.412,20.928,40.412C410.706,173.175,417.922,170.289,429.952,161.867
		 M447.515,111.53l-0.002,35.426c0,12.988,0,18.761,0.48,26.219l0.721,13.471c0.242,5.292,0.482,9.862,0.482,13.23
		c0,27.182-14.434,41.615-41.617,41.615c-12.99,0-27.664-4.089-38.007-10.345c-1.203-0.479-1.445-1.201-1.445-2.404v-0.722
		c0,0,0.242-0.241,0.481-0.721l4.091-9.382c0.48-0.963,0.962-1.444,1.684-1.444c0.239,0,1.202,0.241,1.683,0.722
		c10.345,5.292,21.89,8.661,30.552,8.661c17.8,0,25.017-7.217,25.017-25.741c0-3.607-0.24-7.456-0.24-11.785
		c-0.241-5.773-0.482-8.901-0.482-9.623v-2.406c-10.825,8.901-20.928,12.75-32.474,12.75c-22.373,0-36.326-19.726-36.326-51.716
		c0-38.97,15.879-60.619,44.264-60.619c8.936,0,15.434,1.713,23.644,6.591v-3.919c0-2.165,0.48-2.645,2.645-2.645h12.028
		c1.925,0,2.887,0.48,2.887,1.684v0.961L447.515,111.53z"/>
	<path clip-path="url(#SVGID_2_)" fill="#1D71B8" d="M483.757,88.481c11.388-8.428,20.081-11.767,30.385-11.767
		c11.061,0,18.274,4.33,22.363,13.711c13.947-9.862,23.328-13.711,34.152-13.711c17.803,0,25.262,9.622,25.262,32.956v79.861
		c0,2.166-0.483,2.647-2.646,2.647h-12.029c-2.404,0-2.888-0.481-2.888-2.647v-80.583c0-11.786-4.57-17.078-14.915-17.078
		c-7.455,0-13.229,2.164-23.81,9.381v88.28v0.963c0,1.203-0.72,1.685-2.646,1.685h-12.023c-2.164,0-2.646-0.481-2.646-2.647v-80.342
		c0-11.547-5.05-17.319-15.149-17.319c-7.455,0-13.947,2.645-23.326,9.861v87.8c0,2.166-0.48,2.647-2.645,2.647h-12.025
		c-1.925,0-2.885-0.481-2.885-1.685v-0.963v-83.988l-0.063-26.352c0-2.165,0.483-2.647,2.645-2.647h12.023
		c1.925,0,2.887,0.482,2.887,1.684v0.963L483.757,88.481z"/>
	<path clip-path="url(#SVGID_2_)" fill="#1D71B8" d="M234.601,88.679c11.393-8.428,20.087-11.767,30.395-11.767
		c11.065,0,18.284,4.33,22.375,13.711c13.95-9.862,23.333-13.711,34.158-13.711c17.801,0,25.259,9.622,25.259,32.956v79.861
		c0,2.164-0.482,2.646-2.647,2.646h-12.028c-2.406,0-2.887-0.481-2.887-2.646v-80.583c0-11.786-4.569-17.079-14.914-17.079
		c-7.458,0-13.231,2.165-23.815,9.382v88.28v0.963c0,1.201-0.722,1.683-2.646,1.683h-12.03c-2.166,0-2.646-0.481-2.646-2.646
		v-80.342c0-11.547-5.052-17.32-15.155-17.32c-7.457,0-13.952,2.645-23.334,9.862v87.8c0,2.164-0.481,2.646-2.647,2.646h-12.027
		c-1.926,0-2.887-0.481-2.887-1.683v-0.963v-83.988l-0.063-26.353c0-2.165,0.481-2.646,2.647-2.646h12.026
		c1.925,0,2.887,0.481,2.887,1.684v0.962L234.601,88.679z"/>
	<path clip-path="url(#SVGID_2_)" fill="#1D71B8" d="M111.96,169.537c0-1.294-0.716-2.01-2.012-2.01
		c-60.521-0.003-63.135-0.003-70.825-0.003s-10.717-4.999-10.717-11.144c0-6.147,0.003-77.536,0.003-77.536
		c0-1.294-0.707-2.015-2.001-2.015L5.985,76.835c-1.296,0-2.011,0.716-2.011,2.014c-0.003,60.522-0.003,67.276-0.003,72.942
		l0.02,0.004v12.738c0,18.073,8.191,27.423,27.527,27.423c2.644,0,78.434,0.005,78.434,0.005c1.292,0,2.013-0.709,2.013-2.001
		L111.96,169.537z"/>
	<path clip-path="url(#SVGID_2_)" fill="#1D71B8" d="M46.253,59.014c0,1.296,0.717,2.013,2.013,2.013
		c60.52,0.003,63.134,0.003,70.824,0.003s10.717,4.996,10.717,11.143c0,6.148-0.004,77.528-0.004,77.528
		c0,1.292,0.709,2.016,2.002,2.016l20.424-0.006c1.295,0,2.01-0.718,2.01-2.012c0.004-60.518,0.004-67.272,0.004-72.938
		l-0.021-0.004V64.018c0-18.075-8.19-27.425-27.526-27.425c-2.645,0-78.433-0.004-78.433-0.004c-1.293,0-2.014,0.708-2.014,2.001
		L46.253,59.014z"/>
</g>
</svg>