<?xml version="1.0" standalone="no"?>
<!DOCTYPE svg PUBLIC "-//W3C//DTD SVG 20010904//EN"
 "http://www.w3.org/TR/2001/REC-SVG-20010904/DTD/svg10.dtd">
<svg version="1.0" xmlns="http://www.w3.org/2000/svg"
 width="305.000000pt" height="68.000000pt" viewBox="0 0 305.000000 68.000000"
 preserveAspectRatio="xMidYMid meet">
<metadata>
Created by potrace 1.16, written by Peter Selinger 2001-2019
</metadata>
<g transform="translate(0.000000,68.000000) scale(0.100000,-0.100000)"
fill="#000000" stroke="none">
<path d="M145 665 c-148 -57 -169 -230 -37 -303 l42 -23 0 28 c0 15 5 35 10
43 7 11 2 20 -17 36 -62 49 -13 135 85 149 90 12 172 -26 188 -89 6 -24 11
-26 55 -26 l49 0 -6 33 c-9 49 -55 109 -104 137 -37 20 -61 25 -135 27 -62 2
-102 -2 -130 -12z"/>
<path d="M1015 445 c-18 -18 -25 -35 -25 -65 0 -36 -2 -40 -25 -40 -21 0 -25
-5 -25 -30 0 -25 4 -30 25 -30 l25 0 0 -125 0 -125 45 0 45 0 0 125 0 125 49
0 49 0 4 -109 c4 -135 14 -151 93 -151 28 0 54 2 57 5 2 3 3 19 0 35 -3 22 -9
30 -21 28 -34 -6 -41 11 -41 103 l0 89 30 0 c27 0 30 3 30 30 0 27 -3 30 -30
30 -30 0 -30 1 -30 55 0 30 -2 55 -5 55 -3 0 -23 -11 -45 -25 -32 -20 -40 -31
-40 -55 0 -29 -1 -30 -50 -30 -46 0 -50 2 -50 24 0 30 23 50 48 42 15 -5 21
-1 26 19 10 38 1 45 -60 45 -45 0 -59 -4 -79 -25z"/>
<path d="M199 431 c-23 -24 -29 -38 -29 -73 0 -51 18 -81 59 -98 95 -39 183
59 136 150 -19 37 -43 50 -95 50 -33 0 -48 -6 -71 -29z"/>
<path d="M400 345 c0 -14 -4 -35 -10 -45 -8 -15 -4 -25 20 -49 17 -16 30 -39
30 -51 0 -33 -28 -78 -58 -94 -107 -55 -264 -6 -288 90 -5 21 -12 24 -51 24
l-46 0 6 -41 c14 -105 104 -170 248 -177 182 -9 287 70 277 208 -5 67 -29 106
-87 138 l-41 23 0 -26z"/>
<path d="M670 332 c-43 -23 -80 -91 -80 -147 0 -23 10 -60 23 -85 70 -137 287
-92 304 63 7 59 -10 106 -52 147 -31 30 -43 34 -98 38 -47 2 -71 -1 -97 -16z
m127 -66 c24 -21 27 -31 27 -81 0 -50 -3 -60 -27 -81 -35 -30 -49 -30 -84 0
-25 21 -28 31 -28 81 0 50 3 60 28 81 35 30 49 30 84 0z"/>
<path d="M1593 330 c-43 -26 -63 -58 -69 -116 -8 -65 9 -124 46 -159 25 -24
41 -29 92 -33 74 -6 117 13 144 64 17 30 17 36 4 44 -24 16 -80 12 -80 -5 0
-8 -11 -22 -25 -31 -38 -25 -71 -7 -85 47 -14 51 -6 103 21 130 26 26 45 24
73 -6 22 -24 57 -32 89 -19 22 8 9 40 -30 74 -29 26 -42 30 -91 30 -39 0 -67
-6 -89 -20z"/>
<path d="M2100 332 c-43 -23 -80 -91 -80 -147 0 -23 10 -60 23 -85 70 -137
287 -92 304 63 7 59 -10 106 -52 147 -31 30 -43 34 -98 38 -47 2 -71 -1 -97
-16z m127 -66 c24 -21 27 -31 27 -81 0 -50 -3 -60 -27 -81 -35 -30 -49 -30
-84 0 -25 21 -28 31 -28 81 0 50 3 60 28 81 35 30 49 30 84 0z"/>
<path d="M2811 337 c-29 -17 -50 -53 -51 -88 0 -46 33 -75 107 -94 38 -10 73
-23 80 -29 18 -16 2 -35 -34 -42 -26 -5 -36 -1 -56 20 -38 41 -122 32 -99 -10
26 -48 61 -68 127 -72 102 -7 165 32 165 102 0 59 -24 78 -142 111 -57 15 -75
36 -42 49 29 11 54 6 71 -14 17 -19 56 -26 86 -14 20 7 11 37 -20 65 -20 20
-37 24 -96 27 -48 1 -80 -2 -96 -11z"/>
<path d="M1380 185 l0 -155 45 0 45 0 0 155 0 155 -45 0 -45 0 0 -155z"/>
<path d="M1880 185 l0 -155 45 0 45 0 0 155 0 155 -45 0 -45 0 0 -155z"/>
<path d="M2410 209 l0 -131 29 -29 c24 -23 38 -29 73 -29 25 0 54 7 68 17 17
12 25 13 28 5 2 -7 23 -12 48 -12 l44 0 0 155 0 155 -45 0 -45 0 -1 -92 c-1
-114 -8 -139 -41 -158 -24 -13 -29 -13 -47 4 -19 17 -21 31 -21 133 l0 113
-45 0 -45 0 0 -131z"/>
</g>
</svg>
