<?xml version="1.0" encoding="utf-8"?>
<!-- Generator: Adobe Illustrator 21.1.0, SVG Export Plug-In . SVG Version: 6.00 Build 0)  -->
<svg version="1.1" id="Layer_1" xmlns="http://www.w3.org/2000/svg" xmlns:xlink="http://www.w3.org/1999/xlink" x="0px" y="0px"
	 viewBox="0 0 266.4 57.1" style="enable-background:new 0 0 266.4 57.1;" xml:space="preserve">
<g>
	<g>
		
			<linearGradient id="SVGID_1_" gradientUnits="userSpaceOnUse" x1="94.1019" y1="217.1622" x2="41.3278" y2="262.0904" gradientTransform="matrix(0.9968 -8.004659e-02 8.004659e-02 0.9968 -51.7864 -206.9074)">
			<stop  offset="0" style="stop-color:#F79A31"/>
			<stop  offset="1" style="stop-color:#E70042"/>
		</linearGradient>
		<path style="fill:url(#SVGID_1_);" d="M22.6,51.5c-2,0-3.9-0.1-5.7-0.4C12,50.3,5.5,47.5,2.1,42.2c-2-3.1-2.6-6.7-1.6-10.3
			C2,26.2,6.8,21.5,14.7,17.8c1.9-0.9,3.9-1.7,6.1-2.5c1.5-1.3,3.2-2.7,5.1-4C34.5,5.2,47-2.6,56.8,0.9c5,1.8,8.1,7.2,8.1,14.5
			c0.1,9-4.1,18.1-11.2,24.4C45.5,47.1,33.4,51.5,22.6,51.5z M17.9,18.1c-0.9,0.4-1.7,0.7-2.5,1.1C7.8,22.6,3.3,27,1.9,32.3
			c-0.9,3.3-0.4,6.3,1.4,9.1c2.6,4,8,7.2,13.8,8.2c7.4,1.2,16-0.2,23.7-3.5c-1.3,0.4-2.7,0.8-4,1c-7.7,1.5-23.1,1.2-26.2-10.4
			C9,30.8,11.5,24.5,17.9,18.1z M21.6,16.6c-8,7-11.2,13.6-9.6,19.7c2.8,10.5,17.2,10.7,24.5,9.3c0.1,0,0.1,0,0.2,0
			c-4.2,0.4-8.6,0-12.4-1.6c-3.6-1.5-6-4-7.2-7.4c-3.2-8.6,4-16.8,10.1-21.9C25.2,15.4,23.4,16,21.6,16.6z M25.6,42.9
			c10.6,2.8,23.7-2.4,29.9-12c3.3-5.2,5-13.9,1.9-19C56,9.6,53.9,8.4,51,8.1c-2.4,0-5.2,0.6-8.3,1.9c3.6,0.1,7,1.1,8.9,4.5
			c4,7-1.4,15.8-5.9,20c-5.2,4.8-13.5,8.5-20.5,5.9c-2.9-1.1-4.8-3-5.6-5.5c-1.1-3.5-0.1-8,2.6-12c2.5-3.6,5.8-6.8,9.4-9.5
			c-0.2,0-0.4,0.1-0.5,0.1c-6,4.4-16,13.3-12.6,22.5c1.1,3,3.3,5.2,6.4,6.6C25.2,42.8,25.4,42.8,25.6,42.9z M59.1,11.9
			c2.8,5.7,1.1,14.5-2.3,19.8c-3.2,5-8.2,8.8-13.8,11.1c0.9-0.3,1.7-0.6,2.5-0.9c7.8-3.2,13.5-9.8,15.2-17.7
			C61.7,20,61.4,15.2,59.1,11.9z M36.4,12.3c-5.1,2.9-9.8,6.9-12.9,11.5c-2.5,3.6-3.4,7.6-2.4,10.7c0.7,2.2,2.3,3.7,4.7,4.6
			c6.4,2.3,14.1-1.2,18.9-5.6c4.2-3.9,9.2-11.9,5.6-18.1c-2.2-3.9-6.9-4.2-11.4-3.5c-0.1,0-0.2,0-0.3,0C37.9,12,37.1,12.1,36.4,12.3
			z M51,6.6c1.7,0,3.2,0.3,4.7,0.8c3.8,1.4,5.9,4.7,6.7,8.5c-0.1-1.1-0.4-2.2-0.7-3.3c-1-3.4-2.9-5.7-5.7-6.7
			c-5.8-2.2-14.5,1.1-21.1,5.2c0.3-0.1,0.5-0.1,0.8-0.2c4.1-2.3,8.4-3.8,12.4-4.2c1-0.1,1.9-0.1,2.7-0.1C50.9,6.6,50.9,6.6,51,6.6z
			 M51.7,1.5c-9.6,0-20.7,8.1-24.8,11c-0.6,0.5-1.2,0.9-1.8,1.4c1.7-0.6,3.5-1.1,5.5-1.6c1.1-0.8,2-1.4,2.7-1.8
			c7-4.5,16.8-8.3,23.3-5.9c3.2,1.2,5.4,3.8,6.6,7.7c0,0.1,0,0.1,0.1,0.2C62.7,8.9,61.1,4,56.3,2.3C54.8,1.8,53.3,1.5,51.7,1.5z"/>
	</g>
	<g>
		<g>
			<path style="fill:#2C3438;" d="M110.1,13.9l-12.7,0l0,30.5h-5.6l0-30.5l-12.7,0V8.7l30.9,0V13.9z"/>
			<path style="fill:#2C3438;" d="M145.8,19.7l-8.9,24.7h-4.8l-5.8-17.1l-5.8,17.1h-4.8l-8.9-24.7l5.9,0l5.4,16.5l5.9-16.5l4.7,0
				l5.9,16.4l5.4-16.4H145.8z"/>
			<path style="fill:#2C3438;" d="M150.9,10.6c0-1.9,1.5-3.4,3.5-3.4c1.9,0,3.5,1.4,3.5,3.4s-1.6,3.4-3.5,3.4
				C152.4,14,150.9,12.6,150.9,10.6z M157,19.7v24.7h-5.4V19.7L157,19.7z"/>
			<path style="fill:#2C3438;" d="M190,19.7v25.4c0,7.5-5.1,12-12.5,12c-6.9,0-12-4.1-12.7-10l5.6,0c0.5,3,3.1,5,7.1,5
				c4.1,0,7.1-2.6,7.1-7.1v-3.9c-2.1,1.6-4.9,2.6-8,2.6c-6.9,0-12.4-5.6-12.4-12.2c0-7.4,5.5-12.5,12.4-12.5c3.2,0,5.9,0.9,8,2.6
				v-1.9L190,19.7z M184.6,35.3v-7.7c-1.8-2.7-4.5-3.8-7.2-3.8c-4.6,0-7.7,3.3-7.7,7.8c0,3.8,3.2,7.5,7.7,7.5
				C180.1,39.1,182.7,38,184.6,35.3z"/>
			<path style="fill:#2C3438;" d="M222.2,19.7v25.4c0,7.5-5.1,12-12.5,12c-6.9,0-12-4.1-12.7-10h5.6c0.5,3,3.1,5,7.1,5
				c4.1,0,7.1-2.6,7.1-7.1v-3.9c-2.1,1.6-4.9,2.6-8,2.6c-6.9,0-12.4-5.6-12.4-12.2c0-7.4,5.5-12.5,12.4-12.5c3.2,0,5.9,0.9,8,2.6
				l0-1.9L222.2,19.7z M216.8,35.3v-7.7c-1.8-2.7-4.5-3.8-7.2-3.8c-4.6,0-7.7,3.3-7.7,7.8c0,3.8,3.2,7.5,7.7,7.5
				C212.2,39.1,214.9,38,216.8,35.3z"/>
			<path style="fill:#2C3438;" d="M235.2,7.1v37.3h-5.5l0-37.3L235.2,7.1z"/>
			<path style="fill:#2C3438;" d="M266.3,33.7l-0.1-0.1v0.1l-19.3,0c0.5,3.7,2.9,6.6,7.5,6.6c2.4,0,4.3-0.7,5.3-2.3h6
				c-1.6,4.5-5.9,7.1-11.3,7.1c-7.8,0-13-5.6-13-13c0-7.3,5.2-13,12.7-13c7.2,0,12.3,4.9,12.3,12.3
				C266.4,32.3,266.4,32.9,266.3,33.7z M247,29.9l13.9,0c-0.4-4-2.9-6.2-6.8-6.2C250,23.7,247.6,26.4,247,29.9z"/>
		</g>
	</g>
</g>
</svg>