<?xml version="1.0" encoding="utf-8"?>
<!-- Generator: Adobe Illustrator 16.0.4, SVG Export Plug-In . SVG Version: 6.00 Build 0)  -->
<!DOCTYPE svg PUBLIC "-//W3C//DTD SVG 1.1//EN" "http://www.w3.org/Graphics/SVG/1.1/DTD/svg11.dtd">
<svg version="1.1" id="Ebene_1" xmlns="http://www.w3.org/2000/svg" xmlns:xlink="http://www.w3.org/1999/xlink" x="0px" y="0px"
	 width="12px" height="12px" viewBox="0 0 12 12" enable-background="new 0 0 12 12" xml:space="preserve">
<path id="Combined-Shape-Copy-3" d="M10.998,1.718L4.932,7.783c-0.195,0.195-0.512,0.195-0.707,0l0,0
	c-0.195-0.195-0.195-0.512,0-0.707l0,0L10.301,1H7.498c-0.275,0-0.5-0.224-0.5-0.5l0,0c0-0.276,0.225-0.5,0.5-0.5H12v4.499
	C12,4.775,11.775,5,11.499,5l0,0c-0.276,0-0.501-0.225-0.501-0.501V1.718z M6,1.5L6,1.5C6,1.776,5.776,2,5.5,2H1v9h9V6.5
	C10,6.224,10.224,6,10.5,6l0,0C10.776,6,11,6.224,11,6.5V11c0,0.553-0.447,1-1,1H1c-0.553,0-1-0.447-1-1V2c0-0.553,0.447-1,1-1h4.5
	C5.776,1,6,1.224,6,1.5z"/>
</svg>
