<?xml version="1.0" encoding="utf-8"?>
<!-- Generator: Adobe Illustrator 16.0.4, SVG Export Plug-In . SVG Version: 6.00 Build 0)  -->
<!DOCTYPE svg PUBLIC "-//W3C//DTD SVG 1.1//EN" "http://www.w3.org/Graphics/SVG/1.1/DTD/svg11.dtd">
<svg version="1.1" id="Ebene_1" xmlns="http://www.w3.org/2000/svg" xmlns:xlink="http://www.w3.org/1999/xlink" x="0px" y="0px"
	 width="28px" height="25px" viewBox="0 0 28 25" enable-background="new 0 0 28 25" xml:space="preserve">
<path id="Combined-Shape" d="M25.951,5.819c-0.063,0.307-0.139,0.58-0.227,0.817C27.241,8.419,28,10.544,28,13.01
	c0,1.376-0.12,2.625-0.357,3.745c-0.238,1.119-0.569,2.089-0.992,2.91c-0.422,0.822-0.96,1.545-1.61,2.163
	c-0.651,0.618-1.359,1.128-2.123,1.53c-0.763,0.4-1.634,0.725-2.61,0.973s-1.973,0.421-2.99,0.521C16.302,24.95,15.186,25,13.971,25
	s-2.328-0.05-3.34-0.148c-1.011-0.1-2.005-0.272-2.981-0.521c-0.978-0.248-1.846-0.572-2.603-0.973
	c-0.76-0.402-1.461-0.912-2.109-1.531c-0.646-0.619-1.181-1.34-1.604-2.162c-0.423-0.821-0.752-1.791-0.984-2.911
	C0.116,15.635,0,14.386,0,13.01c0-2.476,0.759-4.601,2.275-6.373C2.188,6.409,2.109,6.138,2.042,5.819
	C1.975,5.503,1.911,5.067,1.853,4.513c-0.06-0.555-0.034-1.199,0.073-1.932c0.105-0.732,0.301-1.48,0.583-2.244
	C2.557,0.317,2.632,0.3,2.734,0.286c0.103-0.016,0.334-0.003,0.691,0.037C3.787,0.362,4.178,0.452,4.601,0.59
	c0.424,0.14,0.987,0.397,1.691,0.772C6.998,1.738,7.739,2.22,8.517,2.804C9.849,2.397,11.677,1.973,14,1.973
	c2.324,0,4.146,0.425,5.469,0.831c0.777-0.584,1.516-1.068,2.217-1.447c0.701-0.383,1.271-0.637,1.714-0.767
	c0.442-0.128,0.828-0.218,1.158-0.267c0.331-0.05,0.569-0.06,0.715-0.029l0.219,0.043c0.282,0.764,0.474,1.512,0.575,2.244
	c0.104,0.732,0.126,1.38,0.067,1.939C26.074,5.079,26.014,5.513,25.951,5.819z M23.96,18.663c0.194-0.734,0.292-1.571,0.292-2.51
	c0-1.602-0.582-3.053-1.75-4.355c-0.351-0.397-0.758-0.699-1.226-0.902c-0.466-0.205-0.993-0.32-1.582-0.348
	c-0.588-0.027-1.149-0.023-1.684,0.016s-1.196,0.092-1.984,0.158c-0.786,0.065-1.467,0.098-2.042,0.098
	c-0.572,0-1.252-0.032-2.041-0.098c-0.787-0.066-1.449-0.119-1.983-0.158s-1.096-0.043-1.684-0.016
	c-0.589,0.027-1.114,0.143-1.575,0.348C6.24,11.099,5.834,11.4,5.483,11.798c-1.166,1.303-1.75,2.754-1.75,4.355
	c0,0.938,0.097,1.775,0.292,2.51c0.193,0.733,0.44,1.35,0.735,1.846c0.298,0.498,0.714,0.917,1.248,1.26
	c0.536,0.342,1.052,0.605,1.554,0.795c0.5,0.188,1.146,0.333,1.938,0.438c0.794,0.105,1.5,0.17,2.123,0.191
	c0.621,0.021,1.41,0.033,2.361,0.033c0.953,0,1.744-0.012,2.37-0.033c0.628-0.021,1.338-0.086,2.13-0.191
	c0.793-0.104,1.439-0.25,1.939-0.438c0.501-0.189,1.02-0.453,1.554-0.795c0.535-0.343,0.95-0.762,1.247-1.26
	C23.521,20.013,23.766,19.396,23.96,18.663z M14.567,19.794c0.213-0.216,0.558-0.216,0.771,0c0.214,0.215,0.214,0.564,0,0.78
	c-0.542,0.548-1.065,0.82-1.589,0.82c-0.524,0-1.048-0.272-1.589-0.821c-0.215-0.215-0.215-0.564,0-0.779
	c0.213-0.217,0.558-0.217,0.771,0c0.335,0.336,0.603,0.5,0.817,0.5S14.232,20.13,14.567,19.794z M8.15,13.18
	c0.966,0,1.75,1.187,1.75,2.649s-0.784,2.648-1.75,2.648c-0.967,0-1.75-1.186-1.75-2.648S7.184,13.18,8.15,13.18z M18.55,13.18
	c0.966,0,1.75,1.187,1.75,2.649s-0.784,2.648-1.75,2.648s-1.75-1.186-1.75-2.648S17.584,13.18,18.55,13.18z"/>
</svg>
