<?xml version="1.0" encoding="utf-8"?>
<!-- Generator: Adobe Illustrator 24.2.0, SVG Export Plug-In . SVG Version: 6.00 Build 0)  -->
<svg version="1.1" id="Ebene_1" xmlns="http://www.w3.org/2000/svg" xmlns:xlink="http://www.w3.org/1999/xlink" x="0px" y="0px"
	 viewBox="0 0 1440 1282" style="enable-background:new 0 0 1440 1282;" xml:space="preserve">
<style type="text/css">
	.st0{filter:url(#Adobe_OpacityMaskFilter);}
	.st1{fill-rule:evenodd;clip-rule:evenodd;fill:#FFFFFF;}
	.st2{opacity:0.8171;mask:url(#mask-2_1_);fill:url(#Oval-5_1_);enable-background:new    ;}
	.st3{filter:url(#Adobe_OpacityMaskFilter_1_);}
	.st4{mask:url(#mask-2_2_);fill:url(#Oval-6_1_);}
</style>
<g id="Rectangle-3">
</g>
<defs>
	<filter id="Adobe_OpacityMaskFilter" filterUnits="userSpaceOnUse" x="-668.5" y="62.3" width="2166.1" height="1201.7">
		<feColorMatrix  type="matrix" values="1 0 0 0 0  0 1 0 0 0  0 0 1 0 0  0 0 0 1 0"/>
	</filter>
</defs>
<mask maskUnits="userSpaceOnUse" x="-668.5" y="62.3" width="2166.1" height="1201.7" id="mask-2_1_">
	<g class="st0">
		<polygon id="path-1_1_" class="st1" points="0,0 1440,0 1440,1282 0,1282 		"/>
	</g>
</mask>
<linearGradient id="Oval-5_1_" gradientUnits="userSpaceOnUse" x1="615.3636" y1="788.5305" x2="615.063" y2="789.3396" gradientTransform="matrix(2161.5002 0 0 -1201.4222 -1329376.125 948476.8125)">
	<stop  offset="0.2563" style="stop-color:#2C85DE;stop-opacity:0"/>
	<stop  offset="0.7272" style="stop-color:#1369BF;stop-opacity:0.6332"/>
	<stop  offset="1" style="stop-color:#095EB3"/>
</linearGradient>
<path id="Oval-5" class="st2" d="M859.3,1251.8c-517.1,42.1-1101.6-15-1397-318.3C-837.5,630.5-627.9,135.6,153,72
	s1305.7,195.2,1340,526.5C1527.1,927.2,1376.4,1209.7,859.3,1251.8z"/>
<defs>
	<filter id="Adobe_OpacityMaskFilter_1_" filterUnits="userSpaceOnUse" x="-749" y="128.1" width="3061.8" height="1153.8">
		<feColorMatrix  type="matrix" values="1 0 0 0 0  0 1 0 0 0  0 0 1 0 0  0 0 0 1 0"/>
	</filter>
</defs>
<mask maskUnits="userSpaceOnUse" x="-749" y="128.1" width="3061.8" height="1153.8" id="mask-2_2_">
	<g class="st3">
		<polygon id="path-1_2_" class="st1" points="0,0 1440,0 1440,1282 0,1282 		"/>
	</g>
</mask>
<linearGradient id="Oval-6_1_" gradientUnits="userSpaceOnUse" x1="615.4346" y1="788.53" x2="615.2295" y2="789.361" gradientTransform="matrix(3061.833 0 0 -1153.7625 -1883161.25 910938.6875)">
	<stop  offset="0" style="stop-color:#2C85DE;stop-opacity:0"/>
	<stop  offset="1" style="stop-color:#095EB3"/>
</linearGradient>
<path id="Oval-6" class="st4" d="M1243.1,1247C656.5,1373.4-172.3,1139-598.6,820.3C-1018.5,565.9-528.7,309.4,489.1,184
	c1017.2-131.3,1833.5-24,1823.6,243.8C2302.7,694.3,1825.5,1077.9,1243.1,1247z"/>
</svg>
