<?xml version="1.0" encoding="utf-8"?><!--Generator: Adobe Illustrator 21.0.0, SVG Export Plug-In . SVG Version: 6.00 Build 0)--><svg id="Ebene_1" xmlns="http://www.w3.org/2000/svg" xmlns:xlink="http://www.w3.org/1999/xlink" x="0px" y="0px" viewBox="0 0 532 436.7" style="enable-background:new 0 0 532 436.7"><style>.st0{fill:#096FD5;} .st1{fill:#2C85DE;} .st2{fill:#086BCF;} .st3{fill:#095EB3;} .st4{fill:#096ED4;} .st5{fill:#086DD2;} .st6{fill:#1A71C8;} .st7{opacity:0.6;fill:#095EB3;enable-background:new ;} .st8{fill:#00E833;} .st9{fill:#FCD100;} .st10{fill:#FCD000;} .st11{fill:#085CB0;} .st12{fill:#3298FF;} .st13{fill:none;stroke:#00E833;stroke-width:4;stroke-linecap:round;stroke-miterlimit:10;} .st14{fill:none;stroke:#00E833;stroke-width:4;stroke-linecap:round;stroke-miterlimit:10;stroke-dasharray:1.9677,11.8065;} .st15{fill:#4D10E1;} .st16{fill:#1F087F;} .st17{fill:none;stroke:#00E833;stroke-width:4;stroke-linecap:round;stroke-miterlimit:10;stroke-dasharray:2,12;} .st18{fill:none;stroke:#00E833;stroke-width:4;stroke-linecap:round;stroke-miterlimit:10;stroke-dasharray:2.061,12.366;} .st19{opacity:0.6;fill:#00E833;} .st20{fill:none;stroke:#00E833;stroke-width:4;stroke-linecap:round;stroke-miterlimit:10;stroke-dasharray:1.9513,11.7076;} .st21{opacity:0.5;fill:#00E833;} .st22{fill:none;stroke:#00E833;stroke-width:7;stroke-linecap:round;stroke-miterlimit:10;} .st23{fill:none;stroke:#00E833;stroke-width:7;stroke-linecap:round;stroke-miterlimit:10;stroke-dasharray:2.0242,16.1937;} .st24{fill:none;stroke:#00E833;stroke-width:7;stroke-linecap:round;stroke-miterlimit:10;stroke-dasharray:2,16;}</style><path class="st0" d="M-1811.5 237.2c-8.5-17.1-22.9-20.9-36-16.8-17.7 5.5-22.4 28.2-16.4 42.3 4.2 11.9 19.8 16.6 34.8 11.7 15.3-4.6 24.2-20.7 17.6-37.2zM-1578.2 210.8c-3.3-29.7-20.1-40.9-38.7-39.4-25.1 2-41.3 35.7-39.8 59.7.1 20 18 33.1 39.4 31.1 21.7-1.6 40.2-23.3 39.1-51.4z"/><path class="st1" d="M-1714.9 127.9c-79.3 0-143.5 64.2-143.5 143.5 0 29.3 8.8 56.5 23.8 79.2 3.7-34.2 35.8-72.3 77.5-65.2 32.4 5.4 59.8 28.4 60.9 72.7-1.6 27.6-18 47.3-40 55.3 6.9 1 14 1.6 21.3 1.6 14.3 0 28.1-2.1 41.1-6-8.3-24.5 1-57.6 32.4-65.2 15.5-3.8 32.2-2.5 46.9 5.9 14.6-22.5 23.2-49.3 23.2-78.2-.1-79.4-64.3-143.6-143.6-143.6zM-1830.8 308c-5.4 1.7-11 0-12.5-4.2-2.2-5.1-.5-13.3 5.9-15.2 4.7-1.5 9.9-.1 13 6.1 2.4 5.9-.8 11.7-6.4 13.3zm28.9-87.4c-3.5 2.2-9.8 1.9-12-2.6-1.6-3.3-1.2-7.3 3-10.3 4.1-2.5 8.8-.8 10.7 3.1 1.9 3.8 1.3 8.1-1.7 9.8zm20.5-13.9c-1.6 1-4.6.9-5.6-1.2-.8-1.6-.6-3.4 1.4-4.8 1.9-1.1 4.1-.4 5 1.5.9 1.7.6 3.8-.8 4.5zm-3.8-8.8c-9.6 3.1-28.7.3-31.4-7.3-3.8-9-.8-23.5 10.5-27 8.4-2.6 17.6-.2 23 10.7 4.1 10.6 7.7 20.6-2.1 23.6zm37.9-11c-3.4 1.5-7.4.9-10.1-3.5-2.2-4.3-.3-8.8 3.7-10.5 3.9-1.7 5 1.9 6.5 5 1.9 3.6 4.5 7-.1 9zm66.9 176.8c-1.6 1-4.6.9-5.6-1.2-.8-1.6-.6-3.4 1.4-4.8 1.9-1.1 4.1-.4 5 1.5.9 1.7.6 3.8-.8 4.5zm17-27.8c-3.4 1.5-5.2 2.4-8-2-2.2-4.3-.3-7.3 3.6-9 3.9-1.7 8.2-.9 9.7 2.2 2 3.6-.7 6.8-5.3 8.8zm62-62.7c-18.3 8.7-56.3-1-63.7-26.2-5.4-18.7 8.9-39.2 33.4-50.8 23.7-8.9 40.4 8.3 46.6 30.1 6.5 21.4 1.2 42.2-16.3 46.9z"/><path class="st2" d="M-1696.1 358c-1.1-44.2-28.5-67.2-60.9-72.7-41.7-7-73.8 31.1-77.5 65.2 3.9 5.8 8.2 11.4 12.8 16.6-.1-.5-.2-.9-.3-1.4-4.2-26.2 6.9-52.8 41.9-64.5 33.5-8.2 61.8 13.1 66.5 43.7 5.2 30-8 58.5-31.8 63.5-2.3.6-4.6 1.1-7 1.4 5.3 1.4 10.8 2.6 16.4 3.4 21.9-7.9 38.2-27.7 39.9-55.2z"/><path class="st3" d="M-1713.6 345c-4.7-30.6-33-51.8-66.5-43.7-35 11.7-46.1 38.3-41.9 64.5.1.5.2.9.3 1.4 18.2 20.3 42.1 35.4 69.2 42.7 2.4-.3 4.8-.8 7-1.4 23.9-4.9 37.1-33.5 31.9-63.5z"/><path class="st2" d="M-1641.4 343.7c-31.4 7.6-40.6 40.8-32.4 65.2 3-.9 5.9-1.9 8.8-3-1-21.8 9.1-46.2 32.2-53.4 11.7-3.6 24-3.6 35.2 1.4 1-1.5 2-2.9 3-4.4-14.6-8.3-31.3-9.6-46.8-5.8z"/><path class="st4" d="M-1585.1 226.4c-6.2-21.8-22.9-39-46.6-30.1-24.5 11.6-38.9 32.1-33.4 50.8 7.3 25.2 45.4 34.9 63.7 26.2 17.5-4.8 22.8-25.6 16.3-46.9zm-22.3 40.2c-16.3 6.3-42.3.7-48.3-18.7-4.4-14.4 4.7-34.3 24.5-43.3 19.2-6.9 33 7.3 38 24.1 5.3 16.5-.4 33.5-14.2 37.9z"/><path class="st3" d="M-1631.1 204.6c-19.8 9-28.9 28.9-24.5 43.3 5.9 19.5 32 25.1 48.3 18.7 13.7-4.4 19.5-21.4 14.2-37.9-5.1-16.9-18.9-31-38-24.1zM-1632.7 352.6c-23.1 7.1-33.2 31.5-32.2 53.4 27.4-10.2 50.8-28.5 67.4-51.9-11.2-5.1-23.6-5.1-35.2-1.5z"/><path class="st5" d="M-1806.2 163.6c-11.3 3.5-14.3 18-10.5 27 2.7 7.6 21.8 10.4 31.4 7.3 9.8-2.9 6.3-12.9 2.1-23.5-5.4-11-14.6-13.4-23-10.8zm16.3 28.5c-7.1 2.3-21.4.2-23.4-5.4-2.9-6.7-.6-17.5 7.8-20.1 6.2-1.9 13.1-.1 17.2 8 3.1 7.9 5.7 15.3-1.6 17.5z"/><path class="st3" d="M-1805.5 166.6c-8.4 2.6-10.7 13.4-7.8 20.1 2 5.7 16.3 7.7 23.4 5.4 7.3-2.2 4.7-9.7 1.6-17.5-4.1-8.2-10.9-10-17.2-8z"/><path class="st6" d="M-1837.4 288.5c-6.4 2-8.1 10.2-5.9 15.2 1.5 4.3 7.1 6 12.5 4.2 5.5-1.7 8.7-7.4 6.3-13.4-3-6.1-8.2-7.4-12.9-6zM-1810.9 207.7c-4.2 3-4.6 7-3 10.3 2.2 4.5 8.5 4.8 12 2.6 3-1.6 3.6-6 1.7-9.8-1.9-3.9-6.6-5.6-10.7-3.1zM-1785.6 200.7c-2 1.4-2.1 3.3-1.4 4.8 1 2.1 4 2.2 5.6 1.2 1.4-.8 1.7-2.8.8-4.6-.9-1.8-3-2.5-5-1.4zM-1684.6 357.7c-2 1.4-2.1 3.3-1.4 4.8 1 2.1 4 2.2 5.6 1.2 1.4-.8 1.7-2.8.8-4.6s-3-2.5-5-1.4zM-1753.7 172.9c-4 1.7-5.9 6.2-3.7 10.5 2.8 4.4 6.7 5 10.1 3.5 4.6-2 2-5.4 0-9-1.4-3.1-2.6-6.7-6.4-5zM-1667.7 324.9c-4 1.7-5.9 4.7-3.6 9 2.8 4.4 4.6 3.5 8 2 4.6-2 7.3-5.2 5.3-8.8-1.5-3.1-5.9-3.9-9.7-2.2z"/><path class="st7" d="M-1674.6 179.8c-8.9-10-22.1-14.7-33.6-15.2-15.5-.8-18.1 9.5-11.7 17.5 4.7 6.6 19 12 32.1 12.5 13.5.7 20.3-5.5 13.2-14.8z"/><path class="st8" d="M-1823.9 291.5c-2.7-4-8.8-4.6-14.1-.9-5.3 4.4-5.5 9-3.1 12.4 3.2 4.5 11.4 3.2 15.8-.1 3.7-2.7 4.2-7.7 1.4-11.4z"/><path class="st9" d="M-1553.3 104.9l-2.8 10.3-10.3 2.7 10.3 2.8 2.8 10.3 2.7-10.3 10.3-2.8-10.3-2.7zM-1905.3 408.9l-2.8 10.3-10.3 2.7 10.3 2.8 2.8 10.3 2.7-10.3 10.3-2.8-10.3-2.7zM-1754.6 17.7l10.3-2.8-10.3-2.7-2.7-10.3-2.8 10.3-10.3 2.7 10.3 2.8 2.8 10.3z"/><path class="st10" d="M-1834.6 84.7l10.3-2.8-10.3-2.7-2.7-10.3-2.8 10.3-10.3 2.7 10.3 2.8 2.8 10.3z"/><circle class="st11" cx="-1906.9" cy="207.4" r="15.5"/><circle class="st11" cx="-1951.6" cy="309.6" r="32"/><path class="st12" d="M-1983.6 307.5c-.1.6-.1 2.2-.1 2.8-6.3 4-11 7.3-9.6 8.6 2.7 2.5 22.1 1.3 45.2-4s40-12.5 39.2-16.1c-.5-2.1-4.1-4.1-13.9-3.2-.3-.8-1.2-2.2-1.4-2.5 17-1.8 21 1.5 22.2 6.7 1.6 7.1-18.9 17.8-45.9 24.1s-50.2 5.6-51.9-1.5c-1-4.2 5.7-10 16.2-14.9z"/><path class="st13" d="M-1723.3 124.5c-.3-.1-.6-.2-1-.3"/><path class="st14" d="M-1735.9 121.8c-83.5-11.8-151.9 98.3-107.1 167.6"/><path class="st13" d="M-1839.6 294.2c.2.3.4.5.6.8"/><path class="st15" d="M-1611.2 297.2l-.4-.1c-1.2-.3-2.5.3-2.9 1.5l-23.5 64.8c-.3 1.2 2.1 2.9 3.4 3.2 0 0 4.4 1.4 4.8.1l20.1-66.7c.3-1-.3-2.3-1.5-2.8z"/><path class="st16" d="M-1609.6 299.7c-.4-.1-.9-.1-1.4-.2-1.4 0-2.7 0-3.8.3l-4.3 12.9c1.2 1.1 2.6 2.2 4.3 3l5-15.5c.1-.3.2-.4.2-.5z"/><path class="st15" d="M-1601.4 299.5c.7-4.8-3.5-9.3-10-10.1-6.9-.2-10.1 3-10.6 7.1-.6 5.5 6.4 9.9 11.8 10.4 4.7.7 8.4-2.7 8.8-7.4zM-1717.7 114.6c-3-2.4-7.8-1.3-10.9 2.9-2.9 4.7-1.9 8.2.7 10.1 3.5 2.6 9.4-.4 11.9-4 2.3-3 1.4-6.9-1.7-9z"/><path transform="rotate(-45.077 -1716.3852 126.6004)" class="st15" d="M-1720 119h7v15.2h-7z"/><path class="st15" d="M-1682.6 157.2c13.4-18 10.4-37.1-.5-48.7-1.5-1.6-4.1-1.6-5.7 0-9.5 9.7-33.8 33.8-43.3 43.4-1.6 1.6-1.5 4.2.1 5.7 11.6 10.8 30.6 13.8 48.5.4.4-.1.7-.4.9-.8z"/><path class="st15" d="M-1698.1 160.5h9.2V173h-9.2z"/><path class="st15" d="M-1681.8 183.5h-23.2c-1.8 0-3.1-1.7-2.7-3.5l1.5-5.7c.3-1.2 1.4-2.1 2.7-2.1h19.7c1.2 0 2.2.7 2.6 1.8l2 5.7c.6 1.9-.7 3.8-2.6 3.8z"/><path class="st17" d="M-1720.5 122.5s209.5 80.5 83.2 243.2"/><path class="st0" d="M-1136.5 237.2c-8.5-17.1-22.9-20.9-36-16.8-17.7 5.5-22.4 28.2-16.4 42.3 4.2 11.9 19.8 16.6 34.8 11.7 15.3-4.6 24.2-20.7 17.6-37.2zM-903.2 210.8c-3.3-29.7-20.1-40.9-38.7-39.4-25.1 2-41.3 35.7-39.8 59.7.1 20 18 33.1 39.4 31.1 21.7-1.6 40.2-23.3 39.1-51.4z"/><path class="st1" d="M-1039.9 127.9c-79.3 0-143.5 64.2-143.5 143.5 0 29.3 8.8 56.5 23.8 79.2 3.7-34.2 35.8-72.3 77.5-65.2 32.4 5.4 59.8 28.4 60.9 72.7-1.6 27.6-18 47.3-40 55.3 6.9 1 14 1.6 21.3 1.6 14.3 0 28.1-2.1 41.1-6-8.3-24.5 1-57.6 32.4-65.2 15.5-3.8 32.2-2.5 46.9 5.9 14.6-22.5 23.2-49.3 23.2-78.2-.1-79.4-64.3-143.6-143.6-143.6zM-1155.8 308c-5.4 1.7-11 0-12.5-4.2-2.2-5.1-.5-13.3 5.9-15.2 4.7-1.5 9.9-.1 13 6.1 2.4 5.9-.8 11.7-6.4 13.3zm28.9-87.4c-3.5 2.2-9.8 1.9-12-2.6-1.6-3.3-1.2-7.3 3-10.3 4.1-2.5 8.8-.8 10.7 3.1 1.9 3.8 1.3 8.1-1.7 9.8zm20.5-13.9c-1.6 1-4.6.9-5.6-1.2-.8-1.6-.6-3.4 1.4-4.8 1.9-1.1 4.1-.4 5 1.5.9 1.7.6 3.8-.8 4.5zm-3.8-8.8c-9.6 3.1-28.7.3-31.4-7.3-3.8-9-.8-23.5 10.5-27 8.4-2.6 17.6-.2 23 10.7 4.1 10.6 7.7 20.6-2.1 23.6zm37.9-11c-3.4 1.5-7.4.9-10.1-3.5-2.2-4.3-.3-8.8 3.7-10.5 3.9-1.7 5 1.9 6.5 5 1.9 3.6 4.5 7-.1 9zm66.9 176.8c-1.6 1-4.6.9-5.6-1.2-.8-1.6-.6-3.4 1.4-4.8 1.9-1.1 4.1-.4 5 1.5.9 1.7.6 3.8-.8 4.5zm17-27.8c-3.4 1.5-5.2 2.4-8-2-2.2-4.3-.3-7.3 3.6-9s8.2-.9 9.7 2.2c2 3.6-.7 6.8-5.3 8.8zm62-62.7c-18.3 8.7-56.3-1-63.7-26.2-5.4-18.7 8.9-39.2 33.4-50.8 23.7-8.9 40.4 8.3 46.6 30.1 6.5 21.4 1.2 42.2-16.3 46.9z"/><path class="st2" d="M-1021.1 358c-1.1-44.2-28.5-67.2-60.9-72.7-41.7-7-73.8 31.1-77.5 65.2 3.9 5.8 8.2 11.4 12.8 16.6-.1-.5-.2-.9-.3-1.4-4.2-26.2 6.9-52.8 41.9-64.5 33.5-8.2 61.8 13.1 66.5 43.7 5.2 30-8 58.5-31.8 63.5-2.3.6-4.6 1.1-7 1.4 5.3 1.4 10.8 2.6 16.4 3.4 21.9-7.9 38.2-27.7 39.9-55.2z"/><path class="st3" d="M-1038.6 345c-4.7-30.6-33-51.8-66.5-43.7-35 11.7-46.1 38.3-41.9 64.5.1.5.2.9.3 1.4 18.2 20.3 42.1 35.4 69.2 42.7 2.4-.3 4.8-.8 7-1.4 23.9-4.9 37.1-33.5 31.9-63.5z"/><path class="st2" d="M-966.4 343.7c-31.4 7.6-40.6 40.8-32.4 65.2 3-.9 5.9-1.9 8.8-3-1-21.8 9.1-46.2 32.2-53.4 11.7-3.6 24-3.6 35.2 1.4 1-1.5 2-2.9 3-4.4-14.6-8.3-31.3-9.6-46.8-5.8z"/><path class="st4" d="M-910.1 226.4c-6.2-21.8-22.9-39-46.6-30.1-24.5 11.6-38.9 32.1-33.4 50.8 7.3 25.2 45.4 34.9 63.7 26.2 17.5-4.8 22.8-25.6 16.3-46.9zm-22.3 40.2c-16.3 6.3-42.3.7-48.3-18.7-4.4-14.4 4.7-34.3 24.5-43.3 19.2-6.9 33 7.3 38 24.1 5.3 16.5-.4 33.5-14.2 37.9z"/><path class="st3" d="M-956.1 204.6c-19.8 9-28.9 28.9-24.5 43.3 5.9 19.5 32 25.1 48.3 18.7 13.7-4.4 19.5-21.4 14.2-37.9-5.1-16.9-18.9-31-38-24.1zM-957.7 352.6c-23.1 7.1-33.2 31.5-32.2 53.4 27.4-10.2 50.8-28.5 67.4-51.9-11.2-5.1-23.6-5.1-35.2-1.5z"/><path class="st5" d="M-1131.2 163.6c-11.3 3.5-14.3 18-10.5 27 2.7 7.6 21.8 10.4 31.4 7.3 9.8-2.9 6.3-12.9 2.1-23.5-5.4-11-14.6-13.4-23-10.8zm16.3 28.5c-7.1 2.3-21.4.2-23.4-5.4-2.9-6.7-.6-17.5 7.8-20.1 6.2-1.9 13.1-.1 17.2 8 3.1 7.9 5.7 15.3-1.6 17.5z"/><path class="st3" d="M-1130.5 166.6c-8.4 2.6-10.7 13.4-7.8 20.1 2 5.7 16.3 7.7 23.4 5.4 7.3-2.2 4.7-9.7 1.6-17.5-4.1-8.2-10.9-10-17.2-8z"/><path class="st6" d="M-1162.4 288.5c-6.4 2-8.1 10.2-5.9 15.2 1.5 4.3 7.1 6 12.5 4.2 5.5-1.7 8.7-7.4 6.3-13.4-3-6.1-8.2-7.4-12.9-6zM-1135.9 207.7c-4.2 3-4.6 7-3 10.3 2.2 4.5 8.5 4.8 12 2.6 3-1.6 3.6-6 1.7-9.8-1.9-3.9-6.6-5.6-10.7-3.1zM-1110.6 200.7c-2 1.4-2.1 3.3-1.4 4.8 1 2.1 4 2.2 5.6 1.2 1.4-.8 1.7-2.8.8-4.6-.9-1.8-3-2.5-5-1.4zM-1009.6 357.7c-2 1.4-2.1 3.3-1.4 4.8 1 2.1 4 2.2 5.6 1.2 1.4-.8 1.7-2.8.8-4.6s-3-2.5-5-1.4zM-1078.7 172.9c-4 1.7-5.9 6.2-3.7 10.5 2.8 4.4 6.7 5 10.1 3.5 4.6-2 2-5.4 0-9-1.4-3.1-2.6-6.7-6.4-5zM-992.7 324.9c-4 1.7-5.9 4.7-3.6 9 2.8 4.4 4.6 3.5 8 2 4.6-2 7.3-5.2 5.3-8.8-1.5-3.1-5.9-3.9-9.7-2.2z"/><path class="st7" d="M-999.6 179.8c-8.9-10-22.1-14.7-33.6-15.2-15.5-.8-18.1 9.5-11.7 17.5 4.7 6.6 19 12 32.1 12.5 13.5.7 20.3-5.5 13.2-14.8z"/><path class="st9" d="M-878.3 104.9l-2.8 10.3-10.3 2.7 10.3 2.8 2.8 10.3 2.7-10.3 10.3-2.8-10.3-2.7zM-1230.3 408.9l-2.8 10.3-10.3 2.7 10.3 2.8 2.8 10.3 2.7-10.3 10.3-2.8-10.3-2.7zM-1079.6 17.7l10.3-2.8-10.3-2.7-2.7-10.3-2.8 10.3-10.3 2.7 10.3 2.8 2.8 10.3z"/><path class="st10" d="M-1159.6 84.7l10.3-2.8-10.3-2.7-2.7-10.3-2.8 10.3-10.3 2.7 10.3 2.8 2.8 10.3z"/><circle class="st11" cx="-1231.9" cy="207.4" r="15.5"/><circle class="st11" cx="-1276.6" cy="309.6" r="32"/><path class="st12" d="M-1308.6 307.5c-.1.6-.1 2.2-.1 2.8-6.3 4-11 7.3-9.6 8.6 2.7 2.5 22.1 1.3 45.2-4s40-12.5 39.2-16.1c-.5-2.1-4.1-4.1-13.9-3.2-.3-.8-1.2-2.2-1.4-2.5 17-1.8 21 1.5 22.2 6.7 1.6 7.1-18.9 17.8-45.9 24.1s-50.2 5.6-51.9-1.5c-1-4.2 5.7-10 16.2-14.9z"/><path class="st13" d="M-1006 109c-.3-.1-.6-.3-.9-.4"/><path class="st18" d="M-1018.3 103.9c-80.5-28.7-154 40.5-116.3 110.4"/><path class="st13" d="M-1131.5 219.7c.2.3.4.6.5.8"/><path class="st15" d="M-998.7 108.7l-.4-.1c-1.2-.3-2.5.3-2.9 1.5l-23.5 64.8c-.3 1.2 2.1 2.9 3.4 3.2 0 0 4.4 1.4 4.8.1l20.1-66.7c.3-1-.3-2.3-1.5-2.8z"/><path class="st16" d="M-997.1 111.2c-.4-.1-.9-.1-1.4-.2-1.4 0-2.7 0-3.8.3l-4.3 12.9c1.2 1.1 2.6 2.2 4.3 3l5-15.5c.1-.3.2-.4.2-.5z"/><path class="st17" d="M-993 112c70.5.5 155.3 115.7 34 197.7"/><path class="st0" d="M-481.5 237.2c-8.5-17.1-22.9-20.9-36-16.8-17.7 5.5-22.4 28.2-16.4 42.3 4.2 11.9 19.8 16.6 34.8 11.7 15.3-4.6 24.2-20.7 17.6-37.2zM-248.2 210.8c-3.3-29.7-20.1-40.9-38.7-39.4-25.1 2-41.3 35.7-39.8 59.7.1 20 18 33.1 39.4 31.1 21.7-1.6 40.2-23.3 39.1-51.4z"/><path class="st1" d="M-384.9 127.9c-79.3 0-143.5 64.2-143.5 143.5 0 29.3 8.8 56.5 23.8 79.2 3.7-34.2 35.8-72.3 77.5-65.2 32.4 5.4 59.8 28.4 60.9 72.7-1.6 27.6-18 47.3-40 55.3 6.9 1 14 1.6 21.3 1.6 14.3 0 28.1-2.1 41.1-6-8.3-24.5 1-57.6 32.4-65.2 15.5-3.8 32.2-2.5 46.9 5.9 14.6-22.5 23.2-49.3 23.2-78.2-.1-79.4-64.3-143.6-143.6-143.6zM-500.8 308c-5.4 1.7-11 0-12.5-4.2-2.2-5.1-.5-13.3 5.9-15.2 4.7-1.5 9.9-.1 13 6.1 2.4 5.9-.8 11.7-6.4 13.3zm28.9-87.4c-3.5 2.2-9.8 1.9-12-2.6-1.6-3.3-1.2-7.3 3-10.3 4.1-2.5 8.8-.8 10.7 3.1 1.9 3.8 1.3 8.1-1.7 9.8zm20.5-13.9c-1.6 1-4.6.9-5.6-1.2-.8-1.6-.6-3.4 1.4-4.8 1.9-1.1 4.1-.4 5 1.5.9 1.7.6 3.8-.8 4.5zm-3.8-8.8c-9.6 3.1-28.7.3-31.4-7.3-3.8-9-.8-23.5 10.5-27 8.4-2.6 17.6-.2 23 10.7 4.1 10.6 7.7 20.6-2.1 23.6zm37.9-11c-3.4 1.5-7.4.9-10.1-3.5-2.2-4.3-.3-8.8 3.7-10.5 3.9-1.7 5 1.9 6.5 5 1.9 3.6 4.5 7-.1 9zm66.9 176.8c-1.6 1-4.6.9-5.6-1.2-.8-1.6-.6-3.4 1.4-4.8 1.9-1.1 4.1-.4 5 1.5.9 1.7.6 3.8-.8 4.5zm17-27.8c-3.4 1.5-5.2 2.4-8-2-2.2-4.3-.3-7.3 3.6-9s8.2-.9 9.7 2.2c2 3.6-.7 6.8-5.3 8.8zm62-62.7c-18.3 8.7-56.3-1-63.7-26.2-5.4-18.7 8.9-39.2 33.4-50.8 23.7-8.9 40.4 8.3 46.6 30.1 6.5 21.4 1.2 42.2-16.3 46.9z"/><path class="st2" d="M-366.1 358c-1.1-44.2-28.5-67.2-60.9-72.7-41.7-7-73.8 31.1-77.5 65.2 3.9 5.8 8.2 11.4 12.8 16.6-.1-.5-.2-.9-.3-1.4-4.2-26.2 6.9-52.8 41.9-64.5 33.5-8.2 61.8 13.1 66.5 43.7 5.2 30-8 58.5-31.8 63.5-2.3.6-4.6 1.1-7 1.4 5.3 1.4 10.8 2.6 16.4 3.4 21.9-7.9 38.2-27.7 39.9-55.2z"/><path class="st3" d="M-383.6 345c-4.7-30.6-33-51.8-66.5-43.7-35 11.7-46.1 38.3-41.9 64.5.1.5.2.9.3 1.4 18.2 20.3 42.1 35.4 69.2 42.7 2.4-.3 4.8-.8 7-1.4 23.9-4.9 37.1-33.5 31.9-63.5z"/><path class="st2" d="M-311.4 343.7c-31.4 7.6-40.6 40.8-32.4 65.2 3-.9 5.9-1.9 8.8-3-1-21.8 9.1-46.2 32.2-53.4 11.7-3.6 24-3.6 35.2 1.4 1-1.5 2-2.9 3-4.4-14.6-8.3-31.3-9.6-46.8-5.8z"/><path class="st4" d="M-255.1 226.4c-6.2-21.8-22.9-39-46.6-30.1-24.5 11.6-38.9 32.1-33.4 50.8 7.3 25.2 45.4 34.9 63.7 26.2 17.5-4.8 22.8-25.6 16.3-46.9zm-22.3 40.2c-16.3 6.3-42.3.7-48.3-18.7-4.4-14.4 4.7-34.3 24.5-43.3 19.2-6.9 33 7.3 38 24.1 5.3 16.5-.4 33.5-14.2 37.9z"/><path class="st3" d="M-301.1 204.6c-19.8 9-28.9 28.9-24.5 43.3 5.9 19.5 32 25.1 48.3 18.7 13.7-4.4 19.5-21.4 14.2-37.9-5.1-16.9-18.9-31-38-24.1zM-302.7 352.6c-23.1 7.1-33.2 31.5-32.2 53.4 27.4-10.2 50.8-28.5 67.4-51.9-11.2-5.1-23.6-5.1-35.2-1.5z"/><path class="st5" d="M-476.2 163.6c-11.3 3.5-14.3 18-10.5 27 2.7 7.6 21.8 10.4 31.4 7.3 9.8-2.9 6.3-12.9 2.1-23.5-5.4-11-14.6-13.4-23-10.8zm16.3 28.5c-7.1 2.3-21.4.2-23.4-5.4-2.9-6.7-.6-17.5 7.8-20.1 6.2-1.9 13.1-.1 17.2 8 3.1 7.9 5.7 15.3-1.6 17.5z"/><path class="st3" d="M-475.5 166.6c-8.4 2.6-10.7 13.4-7.8 20.1 2 5.7 16.3 7.7 23.4 5.4 7.3-2.2 4.7-9.7 1.6-17.5-4.1-8.2-10.9-10-17.2-8z"/><path class="st6" d="M-507.4 288.5c-6.4 2-8.1 10.2-5.9 15.2 1.5 4.3 7.1 6 12.5 4.2 5.5-1.7 8.7-7.4 6.3-13.4-3-6.1-8.2-7.4-12.9-6zM-480.9 207.7c-4.2 3-4.6 7-3 10.3 2.2 4.5 8.5 4.8 12 2.6 3-1.6 3.6-6 1.7-9.8-1.9-3.9-6.6-5.6-10.7-3.1zM-455.6 200.7c-2 1.4-2.1 3.3-1.4 4.8 1 2.1 4 2.2 5.6 1.2 1.4-.8 1.7-2.8.8-4.6-.9-1.8-3-2.5-5-1.4zM-354.6 357.7c-2 1.4-2.1 3.3-1.4 4.8 1 2.1 4 2.2 5.6 1.2 1.4-.8 1.7-2.8.8-4.6-.9-1.8-3-2.5-5-1.4zM-423.7 172.9c-4 1.7-5.9 6.2-3.7 10.5 2.8 4.4 6.7 5 10.1 3.5 4.6-2 2-5.4 0-9-1.4-3.1-2.6-6.7-6.4-5zM-337.7 324.9c-4 1.7-5.9 4.7-3.6 9 2.8 4.4 4.6 3.5 8 2 4.6-2 7.3-5.2 5.3-8.8-1.5-3.1-5.9-3.9-9.7-2.2z"/><path class="st7" d="M-344.6 179.8c-8.9-10-22.1-14.7-33.6-15.2-15.5-.8-18.1 9.5-11.7 17.5 4.7 6.6 19 12 32.1 12.5 13.5.7 20.3-5.5 13.2-14.8z"/><path class="st9" d="M-223.3 104.9l-2.8 10.3-10.3 2.7 10.3 2.8 2.8 10.3 2.7-10.3 10.3-2.8-10.3-2.7zM-575.3 408.9l-2.8 10.3-10.3 2.7 10.3 2.8 2.8 10.3 2.7-10.3 10.3-2.8-10.3-2.7zM-424.6 17.7l10.3-2.8-10.3-2.7-2.7-10.3-2.8 10.3-10.3 2.7 10.3 2.8 2.8 10.3z"/><path class="st10" d="M-504.6 84.7l10.3-2.8-10.3-2.7-2.7-10.3-2.8 10.3-10.3 2.7 10.3 2.8 2.8 10.3z"/><circle class="st15" cx="-576.9" cy="207.4" r="15.5"/><circle class="st15" cx="-621.6" cy="309.6" r="32"/><path class="st12" d="M-653.6 307.5c-.1.6-.1 2.2-.1 2.8-6.3 4-11 7.3-9.6 8.6 2.7 2.5 22.1 1.3 45.2-4s40-12.5 39.2-16.1c-.5-2.1-4.1-4.1-13.9-3.2-.3-.8-1.2-2.2-1.4-2.5 17-1.8 21 1.5 22.2 6.7 1.6 7.1-18.9 17.8-45.9 24.1s-50.2 5.6-51.9-1.5c-1-4.2 5.7-10 16.2-14.9z"/><circle class="st19" cx="-475.5" cy="216" r="12"/><circle class="st8" cx="-475.4" cy="216.1" r="8.1"/><path class="st13" d="M-355.5 143.5l-.7-.7"/><path class="st20" d="M-364.7 134.7c-62.5-52.2-152 10.2-114.7 79.9"/><path class="st13" d="M-476.5 219.7c.2.3.4.6.5.8"/><path class="st17" d="M-352 145.5c59.5-48 189 32 73 139"/><circle class="st19" cx="-314.5" cy="312" r="12"/><circle class="st8" cx="-314.5" cy="312.1" r="8.1"/><circle class="st19" cx="-354.5" cy="148" r="12"/><circle class="st8" cx="-354.5" cy="148" r="8.1"/><path class="st17" d="M-354.5 148C-329 225-383 369-440 404"/><circle class="st21" cx="-1129.5" cy="218" r="12"/><circle class="st8" cx="-1129.4" cy="218" r="8.1"/><circle class="st21" cx="-968.5" cy="314" r="12"/><circle class="st8" cx="-968.5" cy="314.1" r="8.1"/><path class="st15" d="M-988.9 111c.7-4.8-3.5-9.3-10-10.1-6.9-.2-10.1 3-10.6 7.1-.6 5.5 6.4 9.9 11.8 10.4 4.7.7 8.4-2.7 8.8-7.4z"/><path class="st17" d="M-473.3 224.3s-56 126 101.3 189.3M-314.5 312c50 4 89.2 57.7-1.5 86.3"/><path class="st17" d="M-317.3 313.7s-120.7 80.7-190.2 32.8c-84-41.5-38-152 30.5-130.5 0 0 130-53 163.5 95"/><path class="st0" d="M260.5 167.2c-8.5-17.1-22.9-20.9-36-16.8-17.7 5.5-22.4 28.2-16.4 42.3 4.2 11.9 19.8 16.6 34.8 11.7 15.3-4.6 24.2-20.7 17.6-37.2zM493.8 140.8c-3.3-29.7-20.1-40.9-38.7-39.4-25.1 2-41.3 35.7-39.8 59.7.1 20 18 33.1 39.4 31.1 21.7-1.6 40.2-23.3 39.1-51.4z"/><g><path class="st1" d="M357.1 57.9c-79.3 0-143.5 64.2-143.5 143.5 0 29.3 8.8 56.5 23.8 79.2 3.7-34.2 35.8-72.3 77.5-65.2 32.4 5.4 59.8 28.4 60.9 72.7-1.6 27.6-18 47.3-40 55.3 6.9 1 14 1.6 21.3 1.6 14.3 0 28.1-2.1 41.1-6-8.3-24.5 1-57.6 32.4-65.2 15.5-3.8 32.2-2.5 46.9 5.9 14.6-22.5 23.2-49.3 23.2-78.2-.1-79.4-64.3-143.6-143.6-143.6zM241.2 238c-5.4 1.7-11 0-12.5-4.2-2.2-5.1-.5-13.3 5.9-15.2 4.7-1.5 9.9-.1 13 6.1 2.4 5.9-.8 11.7-6.4 13.3zm28.9-87.4c-3.5 2.2-9.8 1.9-12-2.6-1.6-3.3-1.2-7.3 3-10.3 4.1-2.5 8.8-.8 10.7 3.1 1.9 3.8 1.3 8.1-1.7 9.8zm20.5-13.9c-1.6 1-4.6.9-5.6-1.2-.8-1.6-.6-3.4 1.4-4.8 1.9-1.1 4.1-.4 5 1.5.9 1.7.6 3.8-.8 4.5zm-3.8-8.8c-9.6 3.1-28.7.3-31.4-7.3-3.8-9-.8-23.5 10.5-27 8.4-2.6 17.6-.2 23 10.7 4.1 10.6 7.7 20.6-2.1 23.6zm37.9-11c-3.4 1.5-7.4.9-10.1-3.5-2.2-4.3-.3-8.8 3.7-10.5 3.9-1.7 5 1.9 6.5 5 1.9 3.6 4.5 7-.1 9zm66.9 176.8c-1.6 1-4.6.9-5.6-1.2-.8-1.6-.6-3.4 1.4-4.8 1.9-1.1 4.1-.4 5 1.5.9 1.7.6 3.8-.8 4.5zm17-27.8c-3.4 1.5-5.2 2.4-8-2-2.2-4.3-.3-7.3 3.6-9 3.9-1.7 8.2-.9 9.7 2.2 2 3.6-.7 6.8-5.3 8.8zm62-62.7c-18.3 8.7-56.3-1-63.7-26.2-5.4-18.7 8.9-39.2 33.4-50.8 23.7-8.9 40.4 8.3 46.6 30.1 6.5 21.4 1.2 42.2-16.3 46.9z"/><path class="st2" d="M375.9 288c-1.1-44.2-28.5-67.2-60.9-72.7-41.7-7-73.8 31.1-77.5 65.2 3.9 5.8 8.2 11.4 12.8 16.6-.1-.5-.2-.9-.3-1.4-4.2-26.2 6.9-52.8 41.9-64.5 33.5-8.2 61.8 13.1 66.5 43.7 5.2 30-8 58.5-31.8 63.5-2.3.6-4.6 1.1-7 1.4 5.3 1.4 10.8 2.6 16.4 3.4 21.9-7.9 38.2-27.7 39.9-55.2z"/><path class="st3" d="M358.4 275c-4.7-30.6-33-51.8-66.5-43.7-35 11.7-46.1 38.3-41.9 64.5.1.5.2.9.3 1.4 18.2 20.3 42.1 35.4 69.2 42.7 2.4-.3 4.8-.8 7-1.4 23.9-4.9 37.1-33.5 31.9-63.5z"/><path class="st2" d="M430.6 273.7c-31.4 7.6-40.6 40.8-32.4 65.2 3-.9 5.9-1.9 8.8-3-1-21.8 9.1-46.2 32.2-53.4 11.7-3.6 24-3.6 35.2 1.4 1-1.5 2-2.9 3-4.4-14.6-8.3-31.3-9.6-46.8-5.8z"/><path class="st4" d="M486.9 156.4c-6.2-21.8-22.9-39-46.6-30.1-24.5 11.6-38.9 32.1-33.4 50.8 7.3 25.2 45.4 34.9 63.7 26.2 17.5-4.8 22.8-25.6 16.3-46.9zm-22.3 40.2c-16.3 6.3-42.3.7-48.3-18.7-4.4-14.4 4.7-34.3 24.5-43.3 19.2-6.9 33 7.3 38 24.1 5.3 16.5-.4 33.5-14.2 37.9z"/><path class="st3" d="M440.9 134.6c-19.8 9-28.9 28.9-24.5 43.3 5.9 19.5 32 25.1 48.3 18.7 13.7-4.4 19.5-21.4 14.2-37.9-5.1-16.9-18.9-31-38-24.1zM439.3 282.6c-23.1 7.1-33.2 31.5-32.2 53.4 27.4-10.2 50.8-28.5 67.4-51.9-11.2-5.1-23.6-5.1-35.2-1.5z"/><path class="st5" d="M265.8 93.6c-11.3 3.5-14.3 18-10.5 27 2.7 7.6 21.8 10.4 31.4 7.3 9.8-2.9 6.3-12.9 2.1-23.5-5.4-11-14.6-13.4-23-10.8zm16.3 28.5c-7.1 2.3-21.4.2-23.4-5.4-2.9-6.7-.6-17.5 7.8-20.1 6.2-1.9 13.1-.1 17.2 8 3.1 7.9 5.7 15.3-1.6 17.5z"/><path class="st3" d="M266.5 96.6c-8.4 2.6-10.7 13.4-7.8 20.1 2 5.7 16.3 7.7 23.4 5.4 7.3-2.2 4.7-9.7 1.6-17.5-4.1-8.2-10.9-10-17.2-8z"/><path class="st6" d="M234.6 218.5c-6.4 2-8.1 10.2-5.9 15.2 1.5 4.3 7.1 6 12.5 4.2 5.5-1.7 8.7-7.4 6.3-13.4-3-6.1-8.2-7.4-12.9-6zM261.1 137.7c-4.2 3-4.6 7-3 10.3 2.2 4.5 8.5 4.8 12 2.6 3-1.6 3.6-6 1.7-9.8-1.9-3.9-6.6-5.6-10.7-3.1zM286.4 130.7c-2 1.4-2.1 3.3-1.4 4.8 1 2.1 4 2.2 5.6 1.2 1.4-.8 1.7-2.8.8-4.6-.9-1.8-3-2.5-5-1.4zM387.4 287.7c-2 1.4-2.1 3.3-1.4 4.8 1 2.1 4 2.2 5.6 1.2 1.4-.8 1.7-2.8.8-4.6-.9-1.8-3-2.5-5-1.4zM318.3 102.9c-4 1.7-5.9 6.2-3.7 10.5 2.8 4.4 6.7 5 10.1 3.5 4.6-2 2-5.4 0-9-1.4-3.1-2.6-6.7-6.4-5zM404.3 254.9c-4 1.7-5.9 4.7-3.6 9 2.8 4.4 4.6 3.5 8 2 4.6-2 7.3-5.2 5.3-8.8-1.5-3.1-5.9-3.9-9.7-2.2z"/></g><path class="st7" d="M397.4 109.8c-8.9-10-22.1-14.7-33.6-15.2-15.5-.8-18.1 9.5-11.7 17.5 4.7 6.6 19 12 32.1 12.5 13.5.7 20.3-5.5 13.2-14.8z"/><path class="st9" d="M498.8 8.7L496 19l-10.3 2.7 10.3 2.8 2.8 10.3 2.7-10.3 10.3-2.8-10.3-2.7zM70.7 353.9l-2.8 10.3-10.3 2.7 10.3 2.8 2.8 10.3 2.7-10.3 10.3-2.8-10.3-2.7z"/><path class="st10" d="M101.5 208.5l10.3-2.8-10.3-2.7-2.7-10.3L96 203l-10.3 2.7 10.3 2.8 2.8 10.3z"/><circle class="st15" cx="153.1" cy="205.4" r="15.5"/><circle class="st15" cx="124.4" cy="305.6" r="32"/><path class="st12" d="M92.4 303.5c-.1.6-.1 2.2-.1 2.8-6.3 4-11 7.3-9.6 8.6 2.7 2.5 22.1 1.3 45.2-4s40-12.5 39.2-16.1c-.5-2.1-4.1-4.1-13.9-3.2-.3-.8-1.2-2.2-1.4-2.5 17-1.8 21 1.5 22.2 6.7 1.6 7.1-18.9 17.8-45.9 24.1s-50.2 5.6-51.9-1.5c-1-4.2 5.7-10 16.2-14.9z"/><circle class="st19" cx="266.5" cy="146" r="12"/><circle class="st8" cx="266.6" cy="146" r="8.1"/><circle class="st19" cx="427.5" cy="242" r="12"/><circle class="st8" cx="427.5" cy="242" r="8.1"/><circle class="st19" cx="387.5" cy="78" r="12"/><circle class="st8" cx="387.5" cy="78" r="8.1"/><path class="st0" d="M-481.5 767.2c-8.5-17.1-22.9-20.9-36-16.8-17.7 5.5-22.4 28.2-16.4 42.3 4.2 11.9 19.8 16.6 34.8 11.7 15.3-4.6 24.2-20.7 17.6-37.2zM-248.2 740.8c-3.3-29.7-20.1-40.9-38.7-39.4-25.1 2-41.3 35.7-39.8 59.7.1 20 18 33.1 39.4 31.1 21.7-1.6 40.2-23.3 39.1-51.4z"/><g><path class="st1" d="M-384.9 657.9c-79.3 0-143.5 64.2-143.5 143.5 0 29.3 8.8 56.5 23.8 79.2 3.7-34.2 35.8-72.3 77.5-65.2 32.4 5.4 59.8 28.4 60.9 72.7-1.6 27.6-18 47.3-40 55.3 6.9 1 14 1.6 21.3 1.6 14.3 0 28.1-2.1 41.1-6-8.3-24.5 1-57.6 32.4-65.2 15.5-3.8 32.2-2.5 46.9 5.9 14.6-22.5 23.2-49.3 23.2-78.2-.1-79.4-64.3-143.6-143.6-143.6zM-500.8 838c-5.4 1.7-11 0-12.5-4.2-2.2-5.1-.5-13.3 5.9-15.2 4.7-1.5 9.9-.1 13 6.1 2.4 5.9-.8 11.7-6.4 13.3zm28.9-87.4c-3.5 2.2-9.8 1.9-12-2.6-1.6-3.3-1.2-7.3 3-10.3 4.1-2.5 8.8-.8 10.7 3.1 1.9 3.8 1.3 8.1-1.7 9.8zm20.5-13.9c-1.6 1-4.6.9-5.6-1.2-.8-1.6-.6-3.4 1.4-4.8 1.9-1.1 4.1-.4 5 1.5.9 1.7.6 3.8-.8 4.5zm-3.8-8.8c-9.6 3.1-28.7.3-31.4-7.3-3.8-9-.8-23.5 10.5-27 8.4-2.6 17.6-.2 23 10.7 4.1 10.6 7.7 20.6-2.1 23.6zm37.9-11c-3.4 1.5-7.4.9-10.1-3.5-2.2-4.3-.3-8.8 3.7-10.5 3.9-1.7 5 1.9 6.5 5 1.9 3.6 4.5 7-.1 9zm66.9 176.8c-1.6 1-4.6.9-5.6-1.2-.8-1.6-.6-3.4 1.4-4.8 1.9-1.1 4.1-.4 5 1.5.9 1.7.6 3.8-.8 4.5zm17-27.8c-3.4 1.5-5.2 2.4-8-2-2.2-4.3-.3-7.3 3.6-9 3.9-1.7 8.2-.9 9.7 2.2 2 3.6-.7 6.8-5.3 8.8zm62-62.7c-18.3 8.7-56.3-1-63.7-26.2-5.4-18.7 8.9-39.2 33.4-50.8 23.7-8.9 40.4 8.3 46.6 30.1 6.5 21.4 1.2 42.2-16.3 46.9z"/><path class="st2" d="M-366.1 888c-1.1-44.2-28.5-67.2-60.9-72.7-41.7-7-73.8 31.1-77.5 65.2 3.9 5.8 8.2 11.4 12.8 16.6-.1-.5-.2-.9-.3-1.4-4.2-26.2 6.9-52.8 41.9-64.5 33.5-8.2 61.8 13.1 66.5 43.7 5.2 30-8 58.5-31.8 63.5-2.3.6-4.6 1.1-7 1.4 5.3 1.4 10.8 2.6 16.4 3.4 21.9-7.9 38.2-27.7 39.9-55.2z"/><path class="st3" d="M-383.6 875c-4.7-30.6-33-51.8-66.5-43.7-35 11.7-46.1 38.3-41.9 64.5.1.5.2.9.3 1.4 18.2 20.3 42.1 35.4 69.2 42.7 2.4-.3 4.8-.8 7-1.4 23.9-4.9 37.1-33.5 31.9-63.5z"/><path class="st2" d="M-311.4 873.7c-31.4 7.6-40.6 40.8-32.4 65.2 3-.9 5.9-1.9 8.8-3-1-21.8 9.1-46.2 32.2-53.4 11.7-3.6 24-3.6 35.2 1.4 1-1.5 2-2.9 3-4.4-14.6-8.3-31.3-9.6-46.8-5.8z"/><path class="st4" d="M-255.1 756.4c-6.2-21.8-22.9-39-46.6-30.1-24.5 11.6-38.9 32.1-33.4 50.8 7.3 25.2 45.4 34.9 63.7 26.2 17.5-4.8 22.8-25.6 16.3-46.9zm-22.3 40.2c-16.3 6.3-42.3.7-48.3-18.7-4.4-14.4 4.7-34.3 24.5-43.3 19.2-6.9 33 7.3 38 24.1 5.3 16.5-.4 33.5-14.2 37.9z"/><path class="st3" d="M-301.1 734.6c-19.8 9-28.9 28.9-24.5 43.3 5.9 19.5 32 25.1 48.3 18.7 13.7-4.4 19.5-21.4 14.2-37.9-5.1-16.9-18.9-31-38-24.1zM-302.7 882.6c-23.1 7.1-33.2 31.5-32.2 53.4 27.4-10.2 50.8-28.5 67.4-51.9-11.2-5.1-23.6-5.1-35.2-1.5z"/><path class="st5" d="M-476.2 693.6c-11.3 3.5-14.3 18-10.5 27 2.7 7.6 21.8 10.4 31.4 7.3 9.8-2.9 6.3-12.9 2.1-23.5-5.4-11-14.6-13.4-23-10.8zm16.3 28.5c-7.1 2.3-21.4.2-23.4-5.4-2.9-6.7-.6-17.5 7.8-20.1 6.2-1.9 13.1-.1 17.2 8 3.1 7.9 5.7 15.3-1.6 17.5z"/><path class="st3" d="M-475.5 696.6c-8.4 2.6-10.7 13.4-7.8 20.1 2 5.7 16.3 7.7 23.4 5.4 7.3-2.2 4.7-9.7 1.6-17.5-4.1-8.2-10.9-10-17.2-8z"/><path class="st6" d="M-507.4 818.5c-6.4 2-8.1 10.2-5.9 15.2 1.5 4.3 7.1 6 12.5 4.2 5.5-1.7 8.7-7.4 6.3-13.4-3-6.1-8.2-7.4-12.9-6zM-480.9 737.7c-4.2 3-4.6 7-3 10.3 2.2 4.5 8.5 4.8 12 2.6 3-1.6 3.6-6 1.7-9.8-1.9-3.9-6.6-5.6-10.7-3.1zM-455.6 730.7c-2 1.4-2.1 3.3-1.4 4.8 1 2.1 4 2.2 5.6 1.2 1.4-.8 1.7-2.8.8-4.6-.9-1.8-3-2.5-5-1.4zM-354.6 887.7c-2 1.4-2.1 3.3-1.4 4.8 1 2.1 4 2.2 5.6 1.2 1.4-.8 1.7-2.8.8-4.6-.9-1.8-3-2.5-5-1.4zM-423.7 702.9c-4 1.7-5.9 6.2-3.7 10.5 2.8 4.4 6.7 5 10.1 3.5 4.6-2 2-5.4 0-9-1.4-3.1-2.6-6.7-6.4-5zM-337.7 854.9c-4 1.7-5.9 4.7-3.6 9 2.8 4.4 4.6 3.5 8 2 4.6-2 7.3-5.2 5.3-8.8-1.5-3.1-5.9-3.9-9.7-2.2z"/></g><path class="st7" d="M-344.6 709.8c-8.9-10-22.1-14.7-33.6-15.2-15.5-.8-18.1 9.5-11.7 17.5 4.7 6.6 19 12 32.1 12.5 13.5.7 20.3-5.5 13.2-14.8z"/><path class="st9" d="M-223.3 634.9l-2.8 10.3-10.3 2.7 10.3 2.8 2.8 10.3 2.7-10.3 10.3-2.8-10.3-2.7zM-575.3 938.9l-2.8 10.3-10.3 2.7 10.3 2.8 2.8 10.3 2.7-10.3 10.3-2.8-10.3-2.7zM-424.6 547.7l10.3-2.8-10.3-2.7-2.7-10.3-2.8 10.3-10.3 2.7 10.3 2.8 2.8 10.3z"/><path class="st10" d="M-504.6 614.7l10.3-2.8-10.3-2.7-2.7-10.3-2.8 10.3-10.3 2.7 10.3 2.8 2.8 10.3z"/><circle class="st15" cx="-576.9" cy="737.4" r="15.5"/><circle class="st15" cx="-621.6" cy="839.6" r="32"/><path class="st12" d="M-653.6 837.5c-.1.6-.1 2.2-.1 2.8-6.3 4-11 7.3-9.6 8.6 2.7 2.5 22.1 1.3 45.2-4s40-12.5 39.2-16.1c-.5-2.1-4.1-4.1-13.9-3.2-.3-.8-1.2-2.2-1.4-2.5 17-1.8 21 1.5 22.2 6.7 1.6 7.1-18.9 17.8-45.9 24.1-27 6.3-50.2 5.6-51.9-1.5-1-4.2 5.7-10 16.2-14.9z"/><circle class="st19" cx="-472.7" cy="748.8" r="19.5"/><circle class="st8" cx="-472.6" cy="748.9" r="13.2"/><g><path class="st22" d="M-355.5 673.5l-.7-.7"/><path class="st23" d="M-368.2 661.9c-61.6-46.6-146.1 13.1-112.3 80.7"/><path class="st22" d="M-476.5 749.7c.2.3.4.6.5.8"/></g><path class="st24" d="M-352 675.5c76.7-19.8 152 64.2 106.7 164.2"/><circle class="st19" cx="-311.6" cy="844.9" r="21.6"/><circle class="st8" cx="-311.5" cy="845" r="14.7"/><circle class="st19" cx="-355.1" cy="678.2" r="16.7"/><circle class="st8" cx="-355.1" cy="678.2" r="11.4"/><path class="st24" d="M-354.5 678c25.5 77-42.9 215.6-111.5 243M-507.5 876.5c-84-41.5-38-152 30.5-130.5 0 0 135-49.5 163.5 95 2.5 55-17.5 95-56.5 105"/><path class="st17" d="M-1128.3 224.3s-56 126 101.3 189.3M-969.5 312c50 4 89.2 57.7-1.5 86.3"/><path class="st17" d="M-972.3 313.7s-120.7 80.7-190.2 32.8c-84-41.5-38-152 30.5-130.5 0 0 130-53 163.5 95M-990 123c57 79-72 247-140 259M323.9 59.8c12.1-19.6 24.9-30.3 36.6-28.3 28.6 4.7 39.7 82.9 24.8 174.7S335.1 368.6 306.5 364c-11.6-1.9-20.3-15.8-25.6-37.7"/><path class="st17" d="M496.7 155.7c9.3 3.7 15.3 8.8 17 15.4 7.2 27.1-59.4 68.2-148.7 91.8s-167.5 20.9-174.7-6.2c-2.9-10.9 6.3-24.2 24.1-37.6"/><path class="st17" d="M502.8 206.8c17.4 19.2 25.2 35.3 19.7 44.9-12.5 21.6-88.8.8-170.4-46.5S214.5 102 227 80.4c5.3-9.2 22.2-10.7 46.2-5.8"/><g id="_x36_BaSFZ.tif"><image style="overflow:visible" width="609" height="518" id="Layer_0_1_" xlink:href="1740F96CC7D61FB2.png" transform="translate(558 -79)"/></g></svg>