<?xml version="1.0" encoding="UTF-8"?>
<svg width="28px" height="25px" viewBox="0 0 28 25" version="1.1" xmlns="http://www.w3.org/2000/svg" xmlns:xlink="http://www.w3.org/1999/xlink">
    <!-- Generator: Sketch 51 (57462) - http://www.bohemiancoding.com/sketch -->
    <title>Combined Shape</title>
    <desc>Created with Sketch.</desc>
    <defs></defs>
    <g id="kyma" stroke="none" stroke-width="1" fill="none" fill-rule="evenodd">
        <g id="Kyma-landingpage" transform="translate(-1185.000000, -49.000000)" fill="#FFFFFF">
            <g id="gh-button" transform="translate(1160.000000, 36.000000)">
                <path d="M50.9510222,18.5433471 C50.8875556,18.8500706 50.8122667,19.1228882 50.7248444,19.36023 C52.2412,21.1431195 53,23.2672663 53,25.7332985 C53,27.1099441 52.8799111,28.3585004 52.6428444,29.4783396 C52.4039111,30.5972369 52.0732,31.5673247 51.6507111,32.3892308 C51.2282222,33.2114508 50.6906222,33.9328947 50.0400889,34.5519928 C49.388,35.1698351 48.6808444,35.6803085 47.9170667,36.0818432 C47.1539111,36.4830639 46.2837333,36.8067405 45.3068444,37.0550704 C44.3302667,37.3021445 43.3337778,37.4754417 42.3170667,37.5749621 C41.3019111,37.6738545 40.1856444,37.7234577 38.9710667,37.7234577 C37.7558667,37.7234577 36.6430222,37.6738545 35.6309778,37.5749621 C34.6198667,37.4754417 33.6258667,37.3021445 32.6492889,37.0550704 C31.6717778,36.8067405 30.8037778,36.4830639 30.0462222,36.0818432 C29.2874222,35.6803085 28.5858667,35.1698351 27.9381333,34.551051 C27.2916444,33.9319529 26.7568444,33.2114508 26.3343556,32.3892308 C25.9109333,31.5673247 25.5827111,30.5972369 25.35,29.4773978 C25.1163556,28.3585004 25,27.1099441 25,25.7332985 C25,23.257848 25.7588,21.1333872 27.2751556,19.36023 C27.1874222,19.1323065 27.1096444,18.8607447 27.0421333,18.5433471 C26.974,18.2265773 26.9111556,17.7905087 26.8526667,17.2360832 C26.7935556,16.6813437 26.8184444,16.0377579 26.9251556,15.3046981 C27.0315556,14.5719522 27.2269333,13.8241369 27.5088,13.0609384 C27.5567111,13.040846 27.6316889,13.023893 27.7343556,13.0094516 C27.8367111,12.9943823 28.0678667,13.0066261 28.4262667,13.046497 C28.7871556,13.086054 29.1779111,13.1752142 29.6004,13.3136636 C30.0244444,13.4524269 30.5884889,13.7104891 31.2919111,14.0862804 C31.9981333,14.4620717 32.7392,14.9430343 33.5163556,15.5272846 C34.8488444,15.1210407 36.6766222,14.6962741 39,14.6962741 C41.3236889,14.6962741 43.1455556,15.1210407 44.4687111,15.5272846 C45.2468,14.9430343 45.9850667,14.4595601 46.6853778,14.0793736 C47.386,13.6979313 47.9562667,13.4426947 48.3992889,13.3136636 C48.8413778,13.1849464 49.2277778,13.0954723 49.5575556,13.046497 C49.8882667,12.9968938 50.1272,12.9868476 50.2724889,13.0169862 L50.4912,13.0609384 C50.7730667,13.8241369 50.9653333,14.5719522 51.0670667,15.3046981 C51.1697333,16.0377579 51.1924444,16.6844831 51.1336444,17.2439318 C51.0748444,17.8027526 51.0138667,18.2366235 50.9510222,18.5433471 Z M48.9599111,31.3864928 C49.1543556,30.6518632 49.2520444,29.8155157 49.2520444,28.8768224 C49.2520444,27.2760206 48.6693333,25.8237145 47.5020444,24.5214737 C47.1514222,24.1240202 46.7438667,23.8229477 46.2762667,23.6188839 C45.8102222,23.4138783 45.2835111,23.2983468 44.6942667,23.2713476 C44.1062667,23.2437205 43.5453333,23.2487436 43.0108444,23.2867309 C42.4763556,23.32566 41.8146222,23.3784026 41.0262667,23.4449588 C40.2397778,23.5108871 39.5593778,23.5435373 38.9850667,23.5435373 C38.412,23.5435373 37.7319111,23.5108871 36.9435556,23.4449588 C36.1561333,23.3784026 35.4947111,23.32566 34.9599111,23.2867309 C34.4254222,23.2487436 33.8644889,23.2437205 33.2764889,23.2713476 C32.6878667,23.2983468 32.1627111,23.4138783 31.7010222,23.6188839 C31.2396444,23.8229477 30.8336444,24.1240202 30.4836444,24.5214737 C29.3172889,25.8237145 28.7336444,27.2760206 28.7336444,28.8768224 C28.7336444,29.8155157 28.8307111,30.6518632 29.0251556,31.3864928 C29.2189778,32.1198666 29.466,32.7364531 29.7609333,33.232799 C30.0580444,33.7297728 30.474,34.1492023 31.0088,34.4920294 C31.5442222,34.8342287 32.0600444,35.0982558 32.5618667,35.2866224 C33.0621333,35.474675 33.7089333,35.6203451 34.5007111,35.7252025 C35.2937333,35.829432 36.0002667,35.8941045 36.6228,35.9160806 C37.2447111,35.9380567 38.0330667,35.9487308 38.9850667,35.9487308 C39.938,35.9487308 40.7282222,35.9380567 41.3544889,35.9160806 C41.982,35.8941045 42.6922667,35.829432 43.4843556,35.7252025 C44.2770667,35.6203451 44.9238667,35.474675 45.4241333,35.2866224 C45.9247111,35.0982558 46.4427111,34.8342287 46.9775111,34.4920294 C47.5129333,34.1492023 47.9276444,33.7297728 48.2241333,33.232799 C48.5209333,32.7364531 48.7657778,32.1198666 48.9599111,31.3864928 Z M39.5671333,32.5173049 C39.7802444,32.3016252 40.1252667,32.3016252 40.3386889,32.5173049 C40.5530444,32.7329846 40.5530444,33.0824045 40.3386889,33.2977703 C39.7970444,33.8452891 39.2740667,34.1181066 38.7498444,34.1181066 C38.2256222,34.1181066 37.7020222,33.8452891 37.161,33.2968285 C36.9463333,33.0824045 36.9463333,32.7329846 37.161,32.5173049 C37.3741111,32.3006833 37.7188222,32.3006833 37.9325556,32.5173049 C38.267,32.8535392 38.5345556,33.017732 38.7498444,33.017732 C38.9651333,33.017732 39.2326889,32.8535392 39.5671333,32.5173049 Z M33.15,25.9032258 C34.116,25.9032258 34.9,27.0893072 34.9,28.5522875 C34.9,30.0152677 34.116,31.2010352 33.15,31.2010352 C32.184,31.2010352 31.4,30.0152677 31.4,28.5522875 C31.4,27.0893072 32.184,25.9032258 33.15,25.9032258 Z M43.55,25.9032258 C44.516,25.9032258 45.3,27.0893072 45.3,28.5522875 C45.3,30.0152677 44.516,31.2010352 43.55,31.2010352 C42.584,31.2010352 41.8,30.0152677 41.8,28.5522875 C41.8,27.0893072 42.584,25.9032258 43.55,25.9032258 Z" id="Combined-Shape"></path>
            </g>
        </g>
    </g>
</svg>