<?xml version="1.0" encoding="utf-8"?><!--Generator: Adobe Illustrator 21.0.0, SVG Export Plug-In . SVG Version: 6.00 Build 0)--><svg id="Ebene_1" xmlns="http://www.w3.org/2000/svg" x="0px" y="0px" viewBox="0 0 500 500" style="enable-background:new 0 0 500 500"><style>.st0{fill:#095EB3;} .st1{fill:none;} .st2{opacity:0.2;fill:#095EB3;} .st3{fill:#FCD100;} .st4{fill:#00E833;} .st5{fill:none;stroke:#00E833;stroke-width:5;stroke-linecap:round;stroke-miterlimit:10;stroke-dasharray:0,12;} .st6{fill:#174CE0;} .st7{fill:#052D54;} .st8{fill:#063A6E;} .st9{fill:#074480;} .st10{fill:#FFFFFF;} .st11{fill:url(#SVGID_1_);} .st12{fill:url(#SVGID_2_);} .st13{fill:#DEEEFF;} .st14{fill:#2C85DE;} .st15{fill:#3298FF;} .st16{clip-path:url(#SVGID_6_);fill:#044181;} .st17{clip-path:url(#SVGID_8_);fill:#00E833;} .st18{clip-path:url(#SVGID_10_);fill:#0B74DE;} .st19{clip-path:url(#SVGID_12_);fill:#4D10E1;} .st20{fill:#0B74DE;stroke:#0B74DE;stroke-width:5;stroke-linecap:round;stroke-miterlimit:10;stroke-dasharray:0,10;} .st21{fill:#0B74DE;} .st22{fill:#065AB3;} .st23{fill:#FFFFFF;stroke:#FFFFFF;stroke-width:5;stroke-miterlimit:10;} .st24{fill:#326DE6;} .st25{fill:#80C0FF;} .st26{fill:#4D10E1;} .st27{fill:#B3D9FF;} .st28{fill:#99CCFF;} .st29{clip-path:url(#SVGID_14_);} .st30{opacity:0.5;clip-path:url(#SVGID_16_);} .st31{opacity:0.5;} .st32{clip-path:url(#SVGID_18_);} .st33{opacity:0.5;fill:#095EB3;} .st34{clip-path:url(#SVGID_20_);} .st35{fill:#044181;} .st36{clip-path:url(#SVGID_22_);} .st37{clip-path:url(#SVGID_26_);fill:#00E833;} .st38{opacity:0.3;clip-path:url(#SVGID_22_);} .st39{opacity:0.3;clip-path:url(#SVGID_28_);} .st40{opacity:0.3;clip-path:url(#SVGID_30_);} .st41{clip-path:url(#SVGID_30_);fill:#00E833;} .st42{clip-path:url(#SVGID_32_);} .st43{opacity:0.4;clip-path:url(#SVGID_32_);} .st44{clip-path:url(#SVGID_34_);} .st45{clip-path:url(#SVGID_36_);fill:#044181;} .st46{clip-path:url(#SVGID_36_);fill:none;stroke:#3298FF;stroke-width:5;stroke-linecap:round;stroke-miterlimit:10;stroke-dasharray:0,12;} .st47{opacity:0.4;clip-path:url(#SVGID_36_);} .st48{clip-path:url(#SVGID_36_);} .st49{fill:none;stroke:#3298FF;stroke-width:25;stroke-linecap:round;stroke-miterlimit:10;} .st50{fill:none;stroke:#3298FF;stroke-width:5;stroke-linecap:round;stroke-miterlimit:10;stroke-dasharray:0,12;} .st51{opacity:0.2;fill:#00E833;} .st52{opacity:0.2;} .st53{fill:#FFFFFF;stroke:#3298FF;stroke-width:5;stroke-miterlimit:10;} .st54{fill:#FFFFFF;stroke:#3298FF;stroke-width:5;stroke-linecap:round;stroke-miterlimit:10;stroke-dasharray:0,12;} .st55{fill:none;stroke:#3298FF;stroke-width:5;stroke-linecap:round;stroke-miterlimit:10;stroke-dasharray:0,11.8555;} .st56{fill:none;stroke:#3298FF;stroke-width:5;stroke-miterlimit:10;} .st57{fill:#096FD5;} .st58{fill:#086BCF;} .st59{fill:#096ED4;} .st60{fill:#086DD2;} .st61{fill:#1A71C8;} .st62{opacity:0.6;fill:#095EB3;enable-background:new ;} .st63{fill:#FCD000;} .st64{opacity:0.6;fill:#00E833;enable-background:new ;} .st65{fill:#162D50;} .st66{opacity:0.7;} .st67{opacity:0.7;fill:#FFFFFF;} .st68{opacity:0.7;fill:none;stroke:#FFFFFF;stroke-width:4;stroke-linecap:round;stroke-miterlimit:10;stroke-dasharray:2,12;} .st69{display:none;} .st70{fill:#074380;} .st71{fill:#261E65;} .st72{fill:#05294D;} .st73{fill:url(#SVGID_41_);} .st74{fill:url(#SVGID_42_);} .st75{fill:#084787;} .st76{fill:url(#SVGID_43_);} .st77{fill:url(#SVGID_44_);} .st78{fill:url(#SVGID_45_);} .st79{fill:url(#SVGID_46_);} .st80{clip-path:url(#SVGID_48_);fill:#0B74DE;} .st81{clip-path:url(#SVGID_50_);fill:#0B74DE;} .st82{clip-path:url(#SVGID_52_);fill:#0B74DE;} .st83{clip-path:url(#SVGID_54_);fill:#0B74DE;} .st84{clip-path:url(#SVGID_56_);fill:#0B74DE;} .st85{clip-path:url(#SVGID_58_);fill:#0B74DE;} .st86{clip-path:url(#SVGID_60_);fill:#0B74DE;} .st87{clip-path:url(#SVGID_62_);fill:#0B74DE;} .st88{clip-path:url(#SVGID_64_);fill:#0B74DE;} .st89{fill:url(#SVGID_65_);} .st90{fill:url(#SVGID_66_);} .st91{fill:url(#SVGID_67_);} .st92{fill:url(#SVGID_68_);} .st93{clip-path:url(#SVGID_70_);fill:#80C0FF;} .st94{clip-path:url(#SVGID_72_);fill:#80C0FF;} .st95{clip-path:url(#SVGID_74_);fill:#80C0FF;} .st96{clip-path:url(#SVGID_76_);fill:#80C0FF;} .st97{clip-path:url(#SVGID_78_);fill:#80C0FF;} .st98{fill:#0260DF;} .st99{opacity:0.3;} .st100{clip-path:url(#SVGID_80_);fill:#0B74DE;} .st101{clip-path:url(#SVGID_82_);fill:#0B74DE;} .st102{clip-path:url(#SVGID_84_);fill:#0B74DE;} .st103{clip-path:url(#SVGID_86_);fill:#0B74DE;} .st104{clip-path:url(#SVGID_88_);fill:#0B74DE;}</style><path class="st0" d="M179.5 381.7c15.4-9.5 36-14.7 54-13.3 6.3.5 12.4 2.1 18.5 3.8 35.2 9.5 71.5 20.3 107.4 14 29-5.1 56.1-21.3 85.6-20.9 17 .3 33.9 6.4 47.2 17.1 2.6 2.1 5.2 4.5 6.1 7.8 1.8 6.7-4.2 12.8-10 16.5-18.7 12-41 16.6-63.1 19.2-22 2.6-44.3 3.3-65.9 8.4-25.7 6.1-51 18.6-77.2 15.4-24.3-3-44.9-19.1-68.1-26.8-7.8-2.6-15.9-4.2-23-8.3-4.8-2.8-9.1-6.6-12.3-11.2-3.1-4.4-5.2-9.8-4-15.1 1.2-5.2 7-9.5 12-7.6"/><path class="st3" d="M228.4 253.8l6.1-1.6-6.1-1.6-1.6-6.1-1.6 6.1-6.1 1.6 6.1 1.6 1.6 6.1zM81.9 218.5l6-1.6-6-1.6-1.6-6.1-1.6 6.1-6.1 1.6 6.1 1.6 1.6 6.1zM170.9 138.3l6.1-1.6-6.1-1.6-1.6-6.1-1.6 6.1-6 1.6 6 1.6 1.6 6z"/><path class="st5" d="M160.5 307.5l-27-114M317.5 246.5l-132.4 71.4M298.5 96.6l37 119.9M145.5 175.5l131-86M40 106.5l79.8 66.3"/><path class="st4" d="M23 72c-8.4 0-15.3 6.8-15.3 15.3 0 8.4 6.8 15.3 15.3 15.3s15.3-6.8 15.3-15.3C38.2 78.8 31.4 72 23 72zm-1.5 10.6v11.1l-6.1 1 6.1-12.1zm0 16.2l-6.1-3h16.2l-10.1 3zm1-5V74.5l9.1 20.2-9.1-.9z"/><path transform="rotate(-64.5 394.2653 333.4457)" class="st7" d="M382.3 331.4h24v4.1h-24z"/><path transform="rotate(-64.5 361.7147 317.9197)" class="st7" d="M355.2 279.8h13.1v76.3h-13.1z"/><circle class="st7" cx="320.5" cy="326" r="8.2"/><path class="st7" d="M317.7 339h5.5v81.1h-5.5z"/><path transform="rotate(30 295.0866 379.536)" class="st7" d="M292.3 334.9h5.5v89.3h-5.5z"/><path transform="rotate(150 345.2226 379.5608)" class="st7" d="M342.5 334.9h5.5v89.3h-5.5z"/><path class="st7" d="M301.9 337.7H339v4.1h-37.1z"/><path transform="rotate(-64.5 327.614 301.6542)" class="st8" d="M315.6 263.5h24v76.3h-24z"/><path transform="rotate(-64.5 283.4822 280.8895)" class="st9" d="M263.6 242.8h39.8v76.3h-39.8z"/><path class="st4" d="M131.1 166.1c-8.4 0-15.3 6.8-15.3 15.3 0 8.4 6.8 15.3 15.3 15.3s15.3-6.8 15.3-15.3c-.1-8.5-6.9-15.3-15.3-15.3zm0 25.5c-1.9 0-3.5-1.3-3.5-2.9h7c0 1.6-1.6 2.9-3.5 2.9zm5.7-3.9h-11.5v-2.1h11.5v2.1zm0-3.1h-11.5l-.1-.1c-1.2-1.4-1.5-2.2-1.7-2.9 0 0 1.4.3 2.4.5 0 0 .5.1 1.3.3-.7-.9-1.2-2-1.2-3.1 0-2.5 1.9-4.6 1.2-6.3.7.1 1.4 1.4 1.4 3.5.7-1 1-2.7 1-3.8 0-1.1.7-2.4 1.5-2.5-.7 1.1.2 2 .9 4.4.3.9.2 2.3.5 3.3.1-1.9.4-4.8 1.6-5.7-.5 1.2.1 2.8.5 3.5.7 1.2 1.1 2.1 1.1 3.8 0 1.1-.4 2.2-1.1 3.1.8-.2 1.4-.3 1.4-.3l2.6-.5c.1-.3-.3 1.3-1.8 2.8zM167.9 311.7c-8.4 0-15.3 6.8-15.3 15.3 0 8.4 6.8 15.3 15.3 15.3 8.4 0 15.3-6.8 15.3-15.3 0-8.4-6.8-15.3-15.3-15.3zm9 20.8h-5.1l-10.3-9.6v9.6H158v-12.4h5.4l10.1 9.6v-9.6h3.3v12.4zM290.3 62.4c-8.4 0-15.3 6.8-15.3 15.3 0 8.4 6.8 15.3 15.3 15.3 8.4 0 15.3-6.8 15.3-15.3s-6.8-15.3-15.3-15.3zm-.5 22.4c0 .2-.1.3-.3.3h-8c-.2 0-.3-.1-.3-.3v-14c0-.2.1-.3.3-.3h1.9c.2 0 .3.1.3.3v11.7h5.8c.2 0 .3.1.3.3v2zm0-4.1c0 .2-.1.3-.3.3h-4c-.2 0-.3-.1-.3-.3v-4c0-.2.1-.3.3-.3h4c.2 0 .3.1.3.3v4zm0-5.8c0 .2-.1.3-.3.3h-4c-.2 0-.3-.1-.3-.3v-4c0-.2.1-.3.3-.3h4c.2 0 .3.1.3.3v4zm1.1-4c0-.2.1-.3.3-.3h4c.2 0 .3.1.3.3v4c0 .2-.1.3-.3.3h-4c-.2 0-.3-.1-.3-.3v-4zm4.7 5.8v4c0 .2-.1.3-.3.3h-4c-.2 0-.3-.1-.3-.3v-4c0-.2.1-.3.3-.3h4c.1 0 .3.1.3.3zm4 6.2v1.9c0 .2-.1.3-.3.3h-8c-.2 0-.3-.1-.3-.3v-1.9c0-.2.1-.3.3-.3h5.8V70.7c0-.2.1-.3.3-.3h1.9c.2 0 .3.1.3.3v12.2z"/><g><path class="st4" d="M331.7 232.8c.2-.3.2-.6-.1-.8l-2.7-2.4c-.8 1.3-1.2 2.9-1 4.4l3.5-1c.1 0 .2-.1.3-.2zM333.2 230.5c.3 0 .6-.3.6-.6l.2-3.6-.7.1c-1.3.3-2.4.9-3.4 1.8l3 2.1c.2.1.2.2.3.2zM331.9 235.1l-3.6.6c.5 1.4 1.5 2.7 2.8 3.5l1.4-3.3c.1-.1.1-.3 0-.4-.1-.2-.3-.4-.6-.4zM334 234.1l.9.5 1-.5.3-1.1-.7-.8h-1.1l-.7.8zM336.1 230.2c.2.3.5.3.8.1l3-2.1c-1.1-1.1-2.5-1.8-4.1-1.9l.2 3.6c0 .2 0 .3.1.3zM337.6 235.1c-.3.1-.4.4-.3.7l1.4 3.4c.9-.5 1.6-1.3 2.2-2.2.3-.4.5-.9.7-1.4l-3.6-.6c-.1.1-.2.1-.4.1z"/><path class="st4" d="M334.9 218.3c-8.4 0-15.3 6.8-15.3 15.3 0 8.4 6.8 15.3 15.3 15.3s15.3-6.8 15.3-15.3c-.1-8.4-6.9-15.3-15.3-15.3zm11.4 18.2h-.2-.2c-.1 0-.3-.1-.4-.2-.1 0-.1 0-.2-.1-.4-.1-.8-.3-1.2-.3-.1 0-.2 0-.3.1h-.3c-.6 2.1-2.1 3.8-3.9 4.9l.1.3c-.1.1-.1.3 0 .4.1.4.3.7.6 1v.1c.1.1.1.1.1.2.1.1.2.2.3.4l.1.1c.1.2.1.4 0 .5s-.2.3-.3.4c-.1 0-.2.1-.3.1-.3 0-.5-.2-.7-.4 0 0 0-.1-.1-.1-.1-.1-.1-.3-.1-.4l-.1-.2c-.1-.4-.3-.8-.5-1.1-.1-.1-.2-.2-.3-.2l-.1-.3c-.4.1-.8.3-1.2.3-.6.2-1.3.3-1.9.3-1.1 0-2.1-.2-3.1-.6l-.1.3c-.1 0-.2.1-.3.2-.2.4-.4.7-.5 1.1l-.1.2c0 .1-.1.3-.1.4l-.1.1c-.1.3-.4.4-.7.4-.1 0-.2 0-.3-.1-.3-.2-.5-.6-.3-1 0 0 0-.1.1-.1.1-.1.2-.3.3-.4.1-.1.1-.1.1-.2.2-.3.4-.7.6-1v-.4l.2-.3c-.4-.2-.6-.4-1-.6-1.4-1.1-2.4-2.6-3-4.2h-.3c-.1-.1-.2-.1-.3-.1l-1.2.3c-.1 0-.1 0-.2.1-.1 0-.3.1-.4.1H324.2c-.3 0-.6-.2-.7-.5-.1-.4.2-.8.6-.8h.8c.4 0 .8-.1 1.2-.2.1-.1.2-.1.3-.3l.3-.1c-.3-2.1.1-4.2 1.3-5.9 0-.1.1-.1.1-.2l-.2-.2c0-.1 0-.2-.1-.3-.3-.3-.6-.5-1-.7-.1 0-.1-.1-.2-.1-.1-.1-.3-.1-.4-.2l-.1-.1c-.3-.3-.4-.7-.1-1 .1-.2.3-.3.5-.3s.4.1.5.2c0 0 .1 0 .1.1l.3.3.1.1c.3.3.6.6.9.8.1 0 .1.1.2.1h.1l.2.1c1.2-1.3 2.7-2.2 4.4-2.5.4-.1.8-.1 1.2-.2v-.4c.1-.1.1-.2.2-.3 0-.4 0-.8-.1-1.2v-.2c0-.1-.1-.3-.1-.4v-.2c0-.2.1-.4.2-.5.2-.2.4-.3.6-.3.4 0 .6.4.6.8v.2c0 .1 0 .3-.1.4v.2c-.1.4-.1.8-.1 1.2 0 .1.1.2.2.3v.3c1.7.2 3.4.8 4.7 1.9l.9.9.3-.2h.1c.1 0 .1 0 .2-.1.3-.2.6-.5.9-.8l.1-.1.3-.3s.1 0 .1-.1c.1-.1.3-.2.5-.2s.4.1.5.3c.3.3.2.8-.1 1v.1s-.1 0-.1.1c-.1.1-.3.1-.4.2-.1 0-.1.1-.2.1-.4.2-.7.4-1 .7-.1.1-.1.2-.1.3l-.2.2c.6.9 1 1.9 1.3 3 .2 1 .3 2.1.1 3.2l.3.1c0 .1.1.2.3.3.4.1.8.2 1.2.2h.8c.3.1.6.4.6.8-.1.2-.4.4-.7.4z"/><path class="st4" d="M335.2 236.7c-.3-.1-.5-.1-.7.1l-1.8 3.2c.7.2 1.5.4 2.3.4.5 0 1-.1 1.6-.2.3-.1.5-.1.7-.1l-1.7-3.1c-.3-.2-.3-.3-.4-.3zM340.9 229.6l-2.7 2.5c-.1.1-.1.1-.1.3-.1.3.1.6.4.7l3.4 1c.1-.8 0-1.5-.1-2.3-.2-.8-.5-1.5-.9-2.2z"/><path class="st10" d="M248.5 177.3z"/></g><circle class="st4" cx="273.6" cy="153.5" r="2.6"/><circle class="st4" cx="72.7" cy="50.8" r="2.6"/><circle class="st4" cx="61.4" cy="165.1" r="2.6"/></svg>