<?xml version="1.0" encoding="utf-8"?>
<svg viewBox="0 0 505 351" class="mission-svg" version="1.1" xmlns="http://www.w3.org/2000/svg" xmlns:xlink="http://www.w3.org/1999/xlink" aria-labelledby="mission-title">
    <title id="mission-title">Illustration showing mountains</title>
    <style>
        #cloud-1 {
        animation: cloud-1 30s linear infinite;
        }

        #cloud-2 {
        animation: cloud-2 30s linear infinite;
        }

        #cloud-3 {
        animation: cloud-3 50s linear infinite;
        }

        @keyframes cloud-1 {
        0% {
            transform: translate3d(0, 0, 0);
        }
        60% {
            transform: translate3d(490px, 0, 0);
        }
        62% {
            opacity: 0;
            transform: translate3d(-300px, 0, 0);
        }
        63% {
            opacity: 0.2;
            transform: translate3d(-300px, 0, 0);
        }
        100% {
            transform: translate3d(0, 0, 0);
        }
        }

        @keyframes cloud-2 {
        0% {
            transform: translate3d(0, 0, 0);
        }
        30% {
            transform: translate3d(150px, 0, 0);
        }
        32% {
            opacity: 0;
            transform: translate3d(-500px, 0, 0);
        }
        33% {
            opacity: 0.2;
            transform: translate3d(-500px, 0, 0);
        }
        100% {
            transform: translate3d(0, 0, 0);
        }
        }

        @keyframes cloud-3 {
        0% {
            transform: translate3d(0, 0, 0);
        }
        75% {
            transform: translate3d(550px, 0, 0);
        }
        77% {
            opacity: 0;
            transform: translate3d(-150px, 0, 0);
        }
        78% {
            opacity: 0.2;
            transform: translate3d(-150px, 0, 0);
        }
        100% {
            transform: translate3d(0, 0, 0);
        }
        }
    </style>
    <g id="kyma" stroke="none" stroke-width="1" fill="none" fill-rule="evenodd">
        <path d="M27.7264636,248.400288 C50.6978267,234.206898 81.4739558,226.423092 108.450491,228.5784 C117.857308,229.32996 127.043414,231.738246 136.155128,234.192048 C188.67529,248.335848 243.001809,264.488664 296.569446,255.049488 C339.942401,247.406724 380.384206,223.232688 424.421065,223.918284 C450.095512,224.394566 474.889558,233.352046 494.932228,249.392238 C498.816236,252.519666 502.668918,256.169136 503.99541,260.973888 C506.73699,270.904254 497.771318,280.048974 489.093791,285.611022 C461.218722,303.478128 427.766051,310.395972 394.869168,314.207874 C361.972285,318.019776 328.610105,319.098378 296.401656,326.7978 C258.006205,335.976246 220.270486,354.591378 181.091607,349.736886 C144.768884,345.236286 114.04675,321.25062 79.2935748,309.777276 C67.7085986,305.95263 55.5231047,303.461916 44.9365633,297.401388 C37.6768356,293.23692 31.4213429,287.529703 26.6123891,280.683276 C22.0244851,274.139352 18.7757199,265.987278 20.6238037,258.213702 C22.4718875,250.440126 31.0268217,244.07151 38.5312598,246.830322" id="Shape" fill="#095EB3" fill-rule="nonzero"></path>
        <rect id="Rectangle-path" fill="#3298FF" fill-rule="nonzero" x="342.146849" y="68.911632" width="4.69356367" height="74.539446"></rect>
        <polygon id="Shape" fill="#4D10E1" fill-rule="nonzero" points="390.582973 68.9118 342.146807 68.9118 342.146807 91.7292 390.582973 91.7292 379.901712 80.3208"></polygon>
        <rect id="Rectangle-path" fill="#3298FF" fill-rule="nonzero" x="205.321051" y="0" width="4.69356367" height="74.539446"></rect>
        <polygon id="Shape" points="295.537889 200.7996 295.537889 200.7996 288.641427 188.7228 288.641427 188.7228"></polygon>
        <path d="M434.861072,273.443922 L409.13298,228.39093 C398.547543,234.391296 384.923376,235.198134 373.993428,229.70376 C369.209559,227.299032 364.973978,223.86207 360.050841,221.757162 C354.431078,219.371867 348.199362,218.827461 342.250606,220.202124 C340.633378,220.592616 339.044182,221.091048 337.493716,221.694066 L367.046322,273.443922 C368.106771,275.301032 368.098052,277.581695 367.023436,279.430656 C365.948819,281.279617 363.970692,282.417472 361.830861,282.417522 L429.645611,282.417522 C431.785443,282.417472 433.763569,281.279617 434.838186,279.430656 C435.912803,277.581695 435.921522,275.301032 434.861072,273.443922 Z" id="Shape" fill="#3298FF" fill-rule="nonzero"></path>
        <path d="M342.250606,220.202124 C348.199362,218.827461 354.431078,219.371867 360.050841,221.757162 C364.973978,223.86207 369.209559,227.299032 373.993428,229.70376 C384.923376,235.198134 398.547543,234.391296 409.13298,228.39093 L370.861456,161.373 C369.433241,161.456622 368.014123,161.655415 366.617954,161.967438 C361.844059,163.04406 357.463343,165.366018 353.014606,167.403654 C345.344466,170.916714 337.166505,173.666154 328.732872,173.917194 C323.212305,174.124202 317.719022,173.047688 312.685672,170.772438 L310.549996,174.512238 L337.493722,221.694066 C339.044186,221.091049 340.63338,220.592616 342.250606,220.202124 Z" id="Shape" fill="#2C85DE" fill-rule="nonzero"></path>
        <path d="M328.732872,173.9172 C337.166505,173.66616 345.344466,170.91672 353.014606,167.40366 C357.463343,165.366024 361.844059,163.04406 366.617954,161.967444 C368.014123,161.655421 369.433241,161.456628 370.861456,161.373006 L350.98008,126.557886 C349.643655,124.217639 347.154098,122.773011 344.457531,122.773011 C341.760964,122.773011 339.271407,124.217639 337.934981,126.557886 L312.685672,170.772438 C317.719021,173.04769 323.212305,174.124206 328.732872,173.9172 Z" id="Shape" fill="#2C85DE" fill-rule="nonzero"></path>
        <rect id="Rectangle-path" fill="#095EB3" fill-rule="nonzero" opacity="0.2" style="mix-blend-mode: multiply;" x="295.538118" y="200.799864" width="1" height="1"></rect>
        <polygon id="Shape" fill="#095EB3" fill-rule="nonzero" opacity="0.2" style="mix-blend-mode: multiply;" points="310.54978 174.5124 310.54978 174.5124 295.537889 200.7996 295.537889 200.8002"></polygon>
        <path d="M311.500267,228.751686 L337.022246,273.443886 C338.082823,275.300936 338.074209,277.581623 336.999635,279.430621 C335.925061,281.27962 333.946922,282.4175 331.807079,282.417522 L342.146807,282.417522 L311.500267,228.751686 Z" id="Shape" fill="#3298FF" fill-rule="nonzero"></path>
        <path d="M311.500267,228.751686 L337.022246,273.443886 C338.082823,275.300936 338.074209,277.581623 336.999635,279.430621 C335.925061,281.27962 333.946922,282.4175 331.807079,282.417522 L342.146807,282.417522 L311.500267,228.751686 Z" id="Shape" fill="#095EB3" fill-rule="nonzero" opacity="0.2" style="mix-blend-mode: multiply;"></path>
        <path d="M367.046322,273.443922 L337.493722,221.694066 C333.410602,223.247532 329.489628,225.306702 325.34171,226.711488 C320.884198,228.200948 316.198343,228.891633 311.500279,228.751686 L342.146819,282.417486 L361.830867,282.417486 C363.970686,282.417426 365.948798,281.279575 367.023411,279.430626 C368.098024,277.581678 368.106752,275.301028 367.046322,273.443922 Z" id="Shape" fill="#3298FF" fill-rule="nonzero"></path>
        <path d="M367.046322,273.443922 L337.493722,221.694066 C333.410602,223.247532 329.489628,225.306702 325.34171,226.711488 C320.884198,228.200948 316.198343,228.891633 311.500279,228.751686 L342.146819,282.417486 L361.830867,282.417486 C363.970686,282.417426 365.948798,281.279575 367.023411,279.430626 C368.098024,277.581678 368.106752,275.301028 367.046322,273.443922 Z" id="Shape" fill="#095EB3" fill-rule="nonzero" opacity="0.2" style="mix-blend-mode: multiply;"></path>
        <path d="M311.500273,228.751686 C316.198337,228.891633 320.884192,228.200948 325.341704,226.711488 C329.489622,225.306702 333.410596,223.247532 337.493716,221.694066 L310.550008,174.51222 L295.538118,200.7999 L311.500273,228.751686 Z" id="Shape" fill="#2C85DE" fill-rule="nonzero"></path>
        <path d="M311.500273,228.751686 C316.198337,228.891633 320.884192,228.200948 325.341704,226.711488 C329.489622,225.306702 333.410596,223.247532 337.493716,221.694066 L310.550008,174.51222 L295.538118,200.7999 L311.500273,228.751686 Z" id="Shape" fill="#095EB3" fill-rule="nonzero" opacity="0.2" style="mix-blend-mode: multiply;"></path>
        <polygon id="Shape" fill="#2C85DE" fill-rule="nonzero" points="295.537889 200.8002 311.500333 228.7518 311.500333 228.7518 295.537889 200.8002"></polygon>
        <polygon id="Shape" fill="#095EB3" fill-rule="nonzero" opacity="0.2" style="mix-blend-mode: multiply;" points="295.537889 200.8002 311.500333 228.7518 311.500333 228.7518 295.537889 200.8002"></polygon>
        <path d="M295.538118,200.799864 L288.641427,188.722884 C284.41376,193.741074 279.435799,197.874684 273.123473,199.150284 C261.224202,201.554898 249.921894,192.773676 237.815333,191.872356 C223.481613,190.805292 210.809464,200.72547 196.827881,204.05502 C188.262018,206.094888 178.940865,205.54008 171.053756,201.62715 C167.443282,199.836018 164.201651,197.395404 160.767092,195.287238 C150.825546,189.218436 139.255099,186.355192 127.628092,187.0866 L78.31283,273.44388 C77.2523783,275.300994 77.2610948,277.581662 78.3357109,279.430629 C79.4103269,281.279596 81.3884547,282.417458 83.528291,282.417516 L248.929422,282.417516 L295.538118,200.799864 Z" id="Shape" fill="#3298FF" fill-rule="nonzero"></path>
        <polygon id="Shape" fill="#3298FF" fill-rule="nonzero" points="295.537889 200.8002 295.537889 200.7996 248.929572 282.4176 248.929572 282.4176 285.201302 218.901"></polygon>
        <path d="M337.022246,273.44388 L311.500273,228.75168 C301.876419,228.508199 292.613924,225.038845 285.201302,218.901156 L248.929404,282.417516 L331.807049,282.417516 C333.946898,282.417504 335.925046,281.279629 336.999627,279.430628 C338.074209,277.581628 338.082825,275.300935 337.022246,273.44388 Z" id="Shape" fill="#3298FF" fill-rule="nonzero"></path>
        <path d="M285.201302,218.901156 C292.613918,225.038843 301.876407,228.508199 311.500255,228.751686 L295.538118,200.7999 L285.201302,218.901156 Z" id="Shape" fill="#3298FF" fill-rule="nonzero"></path>
        <polygon id="Shape" fill="#2C85DE" fill-rule="nonzero" points="288.641427 188.7228 288.641427 188.7228 244.590535 111.5832 244.716034 111.804"></polygon>
        <path d="M202.743233,56.082972 C203.618384,55.2224354 204.706952,54.6101014 205.897195,54.308826 C204.706952,54.6101014 203.618384,55.2224354 202.743233,56.082972 Z" id="Shape" fill="#2C85DE" fill-rule="nonzero"></path>
        <path d="M160.76714,195.28722 C164.201699,197.395386 167.44333,199.836 171.053804,201.627132 C178.940913,205.540062 188.262066,206.09487 196.827929,204.055002 C210.809512,200.725452 223.481661,190.805274 237.815381,191.872338 C249.921942,192.773658 261.22425,201.55488 273.123521,199.150266 C279.435847,197.874666 284.413808,193.741074 288.641475,188.722866 L244.716125,111.803832 L269.048292,154.412832 C258.487945,156.354465 247.580689,154.487187 238.269514,149.143632 C229.347996,143.900076 222.232011,135.546402 212.492459,132.045648 C198.061691,126.858744 180.97159,133.45461 167.180568,126.751554 C165.851074,126.101538 164.587984,125.323894 163.409125,124.429596 L201.552838,57.6354 C201.87645,57.0657937 202.27701,56.5434207 202.743233,56.082996 C202.276922,56.5433435 201.876353,57.0657293 201.552838,57.6354 L127.628092,187.0866 C139.255114,186.355177 150.825578,189.218415 160.76714,195.28722 Z" id="Shape" fill="#2C85DE" fill-rule="nonzero"></path>
        <path d="M205.897195,54.308826 C206.475745,54.1614185 207.070479,54.0869139 207.667541,54.0870477 C207.070476,54.0868782 206.475738,54.1613833 205.897195,54.308826 Z" id="Shape" fill="#2C85DE" fill-rule="nonzero"></path>
        <path d="M208.558875,54.142494 C209.153315,54.216472 209.735961,54.3654995 210.292863,54.586008 C209.735961,54.3654995 209.153315,54.216472 208.558875,54.142494 Z" id="Shape" fill="#095EB3" fill-rule="nonzero" opacity="0.5"></path>
        <path d="M207.667541,54.0870479 C207.965516,54.0870428 208.263202,54.1055606 208.558875,54.142494 C208.263205,54.1055248 207.965517,54.0870069 207.667541,54.0870479 Z" id="Shape" fill="#095EB3" fill-rule="nonzero" opacity="0.5"></path>
        <path d="M213.782533,57.6354 L244.590331,111.583506 L213.782533,57.6354 C213.304961,56.7914585 212.657915,56.055297 211.882027,55.473144 C212.657915,56.055297 213.304961,56.7914585 213.782533,57.6354 Z" id="Shape" fill="#095EB3" fill-rule="nonzero" opacity="0.5"></path>
        <path d="M210.292863,54.586008 C210.859467,54.8102903 211.393837,55.1085894 211.882027,55.47312 C211.393837,55.1085894 210.859467,54.8102903 210.292863,54.586008 Z" id="Shape" fill="#095EB3" fill-rule="nonzero" opacity="0.5"></path>
        <polygon id="Shape" fill="#2C85DE" fill-rule="nonzero" points="244.716034 111.804 244.590535 111.5832 213.782533 57.6354"></polygon>
        <polygon id="Shape" fill="#095EB3" fill-rule="nonzero" opacity="0.5" points="244.716034 111.804 244.590535 111.5832 213.782533 57.6354"></polygon>
        <path d="M163.409149,124.429614 C164.588008,125.323912 165.851098,126.101556 167.180592,126.751572 C180.97159,133.454628 198.061691,126.858762 212.492483,132.045666 C222.232035,135.54642 229.34802,143.900094 238.269538,149.14365 C247.580713,154.487205 258.487969,156.354483 269.048316,154.41285 L244.716149,111.80385 L213.782533,57.6354 C213.304961,56.7914585 212.657915,56.055297 211.882027,55.473144 C211.393841,55.1086143 210.859475,54.8103153 210.292875,54.586032 C209.735973,54.3655235 209.153327,54.216496 208.558887,54.142518 C207.669053,54.0313023 206.76624,54.0877203 205.897207,54.30885 C204.706964,54.6101254 203.618396,55.2224594 202.743245,56.082996 C202.277022,56.5434207 201.876462,57.0657937 201.55285,57.6354 L163.409149,124.429614 Z" id="Shape" fill="#2C85DE" fill-rule="nonzero"></path>
        <path d="M163.409149,124.429614 C164.588008,125.323912 165.851098,126.101556 167.180592,126.751572 C180.97159,133.454628 198.061691,126.858762 212.492483,132.045666 C222.232035,135.54642 229.34802,143.900094 238.269538,149.14365 C247.580713,154.487205 258.487969,156.354483 269.048316,154.41285 L244.716149,111.80385 L213.782533,57.6354 C213.304961,56.7914585 212.657915,56.055297 211.882027,55.473144 C211.393841,55.1086143 210.859475,54.8103153 210.292875,54.586032 C209.735973,54.3655235 209.153327,54.216496 208.558887,54.142518 C207.669053,54.0313023 206.76624,54.0877203 205.897207,54.30885 C204.706964,54.6101254 203.618396,55.2224594 202.743245,56.082996 C202.277022,56.5434207 201.876462,57.0657937 201.55285,57.6354 L163.409149,124.429614 Z" id="Shape" fill="#095EB3" fill-rule="nonzero" opacity="0.5"></path>
        <polygon id="Shape" fill="#00E833" fill-rule="nonzero" points="269.399786 0 205.321231 0 205.321231 30.1866 269.399786 30.1866 255.268793 15.0936"></polygon>
        <path id="cloud-1" d="M207.710385,209.449602 C206.419362,197.457492 197.833312,189.135252 187.521944,184.106886 C184.727541,181.119738 182.078242,177.961086 179.07584,175.178406 C173.099983,169.6846 166.032715,165.510552 158.334548,162.928248 C142.596081,157.562766 125.755821,159.583644 111.240992,167.381022 C103.583048,171.494886 96.6351787,176.788002 89.0130654,180.962898 C81.3722593,185.148354 72.7669992,187.562484 66.0800907,193.360098 C52.3208222,205.289628 56.0367756,223.684572 70.9276463,232.559484 C78.7317278,237.210816 87.8453745,237.999648 96.5667545,239.735688 C105.867011,241.58685 113.889005,246.111996 122.66489,249.447588 C137.695714,255.160998 155.114365,254.89368 170.15524,249.341988 C178.369639,246.309774 188.67018,240.954846 195.707484,233.604288 C203.461299,228.0624 208.852171,220.0536 207.710385,209.449602 Z" fill="#00E833" fill-rule="nonzero" opacity="0.2"></path>
        <path id="cloud-2" d="M474.18239,31.8558 C473.377717,24.381282 468.026146,19.194144 461.599213,16.060032 C459.857498,14.198184 458.206226,12.229428 456.334843,10.495032 C452.610176,7.0708168 448.205245,4.46919038 443.407084,2.859678 C433.597528,-0.484554 423.101214,0.775032 414.054322,5.635032 C409.281231,8.199144 404.950715,11.498268 400.199956,14.100432 C395.437548,16.709172 390.07401,18.213864 385.90615,21.827442 C377.330157,29.262954 379.646288,40.72827 388.927563,46.25988 C393.79174,49.158996 399.472156,49.65066 404.908063,50.732712 C410.704785,51.886512 415.704789,54.706974 421.174678,56.786004 C430.543184,60.347094 441.399982,60.18048 450.774757,56.72019 C455.894677,54.830256 462.31486,51.492606 466.701118,46.911102 C471.533962,43.456884 474.89402,38.4651 474.18239,31.8558 Z" fill="#00E833" fill-rule="nonzero" opacity="0.2"></path>
        <path id="cloud-3" d="M114.928573,108.23058 C113.940646,99.053826 107.370314,92.685372 99.4797158,88.8375 C97.3413441,86.551638 95.3140183,84.134526 93.0164784,82.005138 C88.4435578,77.801095 83.0354531,74.6069755 77.1445626,72.630912 C65.1009851,68.52507 52.2142498,70.07151 41.107018,76.038312 C35.2469103,79.186374 29.9301731,83.236842 24.0974771,86.431608 C18.2504898,89.634456 11.665458,91.481808 6.54841486,95.918364 C-3.98063098,105.047232 -1.13707265,119.123646 10.2579251,125.915016 C16.2298593,129.474372 23.2039273,130.078014 29.8778116,131.406486 C36.9946487,132.823086 43.133365,136.285848 49.8489583,138.83835 C61.3510689,143.210442 74.6803608,143.005878 86.1901334,138.757548 C92.4760624,136.437198 100.358356,132.339438 105.743553,126.714546 C111.677057,122.473722 115.802325,116.345112 114.928573,108.23058 Z" fill="#00E833" fill-rule="nonzero" opacity="0.2"></path>
        <polygon id="Shape" fill="#FCD100" fill-rule="nonzero" points="166.514293 17.4948 175.577872 15.0936 166.514293 12.6924 164.111189 3.6354 161.708086 12.6924 152.644507 15.0936 161.708086 17.4948 164.111189 26.5512"></polygon>
        <polygon id="Shape" fill="#FCD100" fill-rule="nonzero" points="264.700464 82.722 273.764043 80.3202 264.700464 77.919 262.29736 68.8626 259.894257 77.919 250.830077 80.3202 259.894257 82.722 262.29736 91.7784"></polygon>
        <polygon id="Shape" fill="#FCD100" fill-rule="nonzero" points="401.897735 144.4326 410.961314 142.0314 401.897735 139.6302 399.494631 130.5738 397.091528 139.6302 388.027949 142.0314 397.091528 144.4326 399.494631 153.4896"></polygon>
        <polygon id="Shape" fill="#FCD100" fill-rule="nonzero" points="295.781082 56.4882 304.844661 54.087 295.781082 51.6858 293.377979 42.6294 290.974875 51.6858 281.911296 54.087 290.974875 56.4882 293.377979 65.5446"></polygon>
        <path d="M329.106146,173.9172 C337.539778,173.66616 345.71774,170.91672 353.387879,167.40366 C357.836617,165.366024 362.217333,163.04406 366.991234,161.967444 C368.387401,161.655421 369.806517,161.456628 371.234729,161.373006 L351.35336,126.557886 C350.016934,124.217639 347.527377,122.773011 344.83081,122.773011 C342.134243,122.773011 339.644686,124.217639 338.308261,126.557886 L313.058963,170.772438 C318.092307,173.047688 323.585584,174.124204 329.106146,173.9172 Z" id="Shape" fill="#095EB3" fill-rule="nonzero" opacity="0.5"></path>
    </g>
</svg>