<svg id="Ebene_1" data-name="Ebene 1" xmlns="http://www.w3.org/2000/svg" xmlns:xlink="http://www.w3.org/1999/xlink" viewBox="0 0 572 500"><defs><style>.cls-1{fill:none;}.cls-2{fill:#00e833;}.cls-3{fill:#deeeff;}.cls-4{fill:#2c85de;}.cls-5{fill:#095eb3;}.cls-6{fill:#fcd100;}.cls-7{fill:#084787;}.cls-8{fill:url(#Unbenannter_Verlauf_11);}.cls-9{fill:url(#Unbenannter_Verlauf_11-2);}.cls-10{fill:#074480;}.cls-11{fill:#4d10e1;}.cls-12{fill:#b3d9ff;}.cls-13{fill:#80c0ff;}.cls-14{fill:#9cf;}.cls-15{fill:url(#Unbenannter_Verlauf_11-3);}.cls-16{fill:url(#Unbenannter_Verlauf_11-4);}.cls-17{opacity:0.3;}.cls-18{clip-path:url(#clip-path);}.cls-19{fill:#0b74de;}.cls-20{clip-path:url(#clip-path-2);}.cls-21{clip-path:url(#clip-path-3);}.cls-22{clip-path:url(#clip-path-4);}.cls-23{clip-path:url(#clip-path-5);}</style><linearGradient id="Unbenannter_Verlauf_11" x1="85.32" y1="424.31" x2="191.27" y2="424.31" gradientUnits="userSpaceOnUse"><stop offset="0" stop-color="#fff" stop-opacity="0"/><stop offset="0.86" stop-color="#80c0ff"/></linearGradient><linearGradient id="Unbenannter_Verlauf_11-2" x1="108.75" y1="432.06" x2="203.49" y2="432.06" xlink:href="#Unbenannter_Verlauf_11"/><linearGradient id="Unbenannter_Verlauf_11-3" x1="128.11" y1="437.56" x2="234.05" y2="437.56" xlink:href="#Unbenannter_Verlauf_11"/><linearGradient id="Unbenannter_Verlauf_11-4" x1="178.02" y1="444.28" x2="272.76" y2="444.28" xlink:href="#Unbenannter_Verlauf_11"/><clipPath id="clip-path"><path class="cls-1" d="M249.58 265.78l-23.45 6a3 3 0 0 0-2 1.7l-9.93 22.07a3 3 0 0 0 .07 2.64l11.07 21.52a3 3 0 0 0 2.11 1.59l23.73 4.77a3 3 0 0 0 2.56-.66l18.55-15.57a3 3 0 0 0 1.08-2.41l-.66-24.2a3 3 0 0 0-1.21-2.35l-19.31-14.6a3 3 0 0 0-2.61-.5zm1.14 62.48L227 323.49a5.24 5.24 0 0 1-3.64-2.75l-11.08-21.54a5.24 5.24 0 0 1-.12-4.56l9.93-22.07a5.21 5.21 0 0 1 3.49-2.94l23.44-6a5.22 5.22 0 0 1 4.48.9l19.31 14.59a5.25 5.25 0 0 1 2.09 4.06l.63 24.2a5.24 5.24 0 0 1-1.87 4.16l-18.52 15.58a5.24 5.24 0 0 1-4.43 1.14z"/></clipPath><clipPath id="clip-path-2"><path class="cls-1" d="M228.91 284.09l-2.66 13.22a6.47 6.47 0 0 1 3-.12l2.83.57a16.85 16.85 0 0 0 11.22-1.33c-.63-.84-1.24-1.69-1.82-2.52-2.9-4.17-6.03-8.2-12.57-9.82z"/></clipPath><clipPath id="clip-path-3"><path class="cls-1" d="M264.14 291.29c-6.55-1-10.62 1.56-14.92 4.25-4.66 2.94-9.5 6-17.55 4.36l-2.83-.57a2.94 2.94 0 0 0-3.42 2.28l-.73 3.62 35.23 7.08z"/></clipPath><clipPath id="clip-path-4"><path class="cls-1" d="M246.08 286.29c-2.43-3.48-4.86-7-10.88-8.16l-1.15 5.71a19.39 19.39 0 0 1 6.21 5.12 18.73 18.73 0 0 0 5.82-2.67z"/></clipPath><clipPath id="clip-path-5"><path class="cls-1" d="M259.51 284c-5.05-.72-8.19 1.26-11.51 3.37a25.65 25.65 0 0 1-6.4 3.23c.5.7 1 1.42 1.52 2.13.64.91 1.29 1.83 2 2.72 1-.57 2-1.19 3-1.81 3.09-1.94 6.28-3.92 10.41-4.56z"/></clipPath></defs><path class="cls-2" d="M558.88 194.53a2.49 2.49 0 0 1-2.48-2.53 2.5 2.5 0 0 1 2.51-2.49 2.5 2.5 0 0 1 2.49 2.49 2.5 2.5 0 0 1-2.5 2.48zm-12-.07a2.5 2.5 0 0 1-2.48-2.52 2.49 2.49 0 0 1 2.51-2.48 2.5 2.5 0 0 1 2.49 2.54 2.51 2.51 0 0 1-2.51 2.49zm-12-.08a2.5 2.5 0 0 1-2.48-2.52 2.49 2.49 0 0 1 2.51-2.48 2.51 2.51 0 0 1 2.49 2.52 2.5 2.5 0 0 1-2.5 2.48zm-12-.08a2.49 2.49 0 0 1-2.48-2.51 2.49 2.49 0 0 1 2.51-2.49 2.51 2.51 0 0 1 2.49 2.52 2.5 2.5 0 0 1-2.5 2.48zm-12-.07a2.5 2.5 0 0 1-2.48-2.52 2.49 2.49 0 0 1 2.51-2.48 2.49 2.49 0 0 1 2.49 2.51 2.5 2.5 0 0 1-2.5 2.49zm-12-.08a2.5 2.5 0 0 1-2.48-2.51 2.5 2.5 0 0 1 2.52-2.49 2.5 2.5 0 0 1 2.48 2.52 2.5 2.5 0 0 1-2.51 2.48zm-12-.08a2.49 2.49 0 0 1-2.48-2.51 2.5 2.5 0 0 1 2.51-2.49 2.5 2.5 0 0 1 2.49 2.52 2.5 2.5 0 0 1-2.5 2.48zm-12-.07a2.51 2.51 0 0 1-2.48-2.52 2.49 2.49 0 0 1 2.52-2.48 2.49 2.49 0 0 1 2.48 2.51 2.51 2.51 0 0 1-2.5 2.49zm-12-.08a2.5 2.5 0 0 1-2.48-2.52 2.5 2.5 0 0 1 2.51-2.48 2.5 2.5 0 0 1 2.49 2.52 2.5 2.5 0 0 1-2.5 2.48zm-12-.08a2.49 2.49 0 0 1-2.48-2.51 2.51 2.51 0 0 1 2.52-2.49 2.5 2.5 0 0 1 2.48 2.52 2.5 2.5 0 0 1-2.5 2.48zm-12-.08a2.49 2.49 0 0 1-2.48-2.51 2.49 2.49 0 0 1 2.51-2.48 2.49 2.49 0 0 1 2.49 2.51 2.5 2.5 0 0 1-2.5 2.48zm-12-.07a2.5 2.5 0 0 1-2.48-2.52 2.5 2.5 0 0 1 2.52-2.48 2.49 2.49 0 0 1 2.48 2.51 2.5 2.5 0 0 1-2.5 2.49zm-12-.08a2.49 2.49 0 0 1-2.48-2.51 2.5 2.5 0 0 1 2.52-2.49 2.49 2.49 0 0 1 2.48 2.52 2.5 2.5 0 0 1-2.5 2.48zm-12-.08a2.49 2.49 0 0 1-2.48-2.53 2.49 2.49 0 0 1 2.52-2.48 2.49 2.49 0 0 1 2.48 2.48 2.5 2.5 0 0 1-2.5 2.48zm-12-.07a2.5 2.5 0 0 1-2.48-2.52 2.49 2.49 0 0 1 2.52-2.48 2.49 2.49 0 0 1 2.48 2.54 2.5 2.5 0 0 1-2.5 2.48zm-12-.08a2.5 2.5 0 0 1-2.48-2.52 2.5 2.5 0 0 1 2.52-2.48 2.5 2.5 0 0 1 2.48 2.52 2.5 2.5 0 0 1-2.5 2.48zm-12-.08a2.49 2.49 0 0 1-2.49-2.51 2.51 2.51 0 0 1 2.52-2.49 2.5 2.5 0 0 1 2.48 2.52 2.5 2.5 0 0 1-2.5 2.48zm-24-.15a2.5 2.5 0 0 1-2.49-2.52 2.5 2.5 0 0 1 2.52-2.48 2.5 2.5 0 0 1 2.48 2.51 2.5 2.5 0 0 1-2.49 2.49zm-12-.08a2.5 2.5 0 0 1-2.49-2.51 2.51 2.51 0 0 1 2.52-2.49 2.5 2.5 0 0 1 2.48 2.52 2.49 2.49 0 0 1-2.49 2.48zm-12-.08a2.49 2.49 0 0 1-2.49-2.51 2.5 2.5 0 0 1 2.52-2.48 2.49 2.49 0 0 1 2.48 2.51 2.49 2.49 0 0 1-2.49 2.48zm-12-.07a2.51 2.51 0 0 1-2.48-2.52 2.5 2.5 0 0 1 2.52-2.48 2.49 2.49 0 0 1 2.48 2.52 2.5 2.5 0 0 1-2.5 2.48zm-12-.08a2.49 2.49 0 0 1-2.49-2.51 2.51 2.51 0 0 1 2.52-2.49 2.5 2.5 0 0 1 2.48 2.52 2.49 2.49 0 0 1-2.49 2.48zm-12-.07a2.51 2.51 0 0 1-2.49-2.52 2.5 2.5 0 0 1 2.52-2.48 2.49 2.49 0 0 1 2.48 2.51 2.5 2.5 0 0 1-2.49 2.49zm-12-.08a2.51 2.51 0 0 1-2.49-2.52 2.5 2.5 0 0 1 2.52-2.48 2.49 2.49 0 0 1 2.48 2.51 2.5 2.5 0 0 1-2.49 2.49zm-12-.08a2.5 2.5 0 0 1-2.49-2.52 2.51 2.51 0 0 1 2.52-2.48 2.5 2.5 0 0 1 2.48 2.52 2.5 2.5 0 0 1-2.5 2.48zm-12-.08a2.49 2.49 0 0 1-2.48-2.53 2.52 2.52 0 0 1 2.52-2.49 2.5 2.5 0 0 1 2.48 2.49 2.49 2.49 0 0 1-2.49 2.48zm-12-.07a2.49 2.49 0 0 1-2.48-2.52 2.49 2.49 0 0 1 2.51-2.48 2.51 2.51 0 0 1 2.49 2.51 2.51 2.51 0 0 1-2.5 2.49zm-12-.08a2.52 2.52 0 0 1-2.49-2.52 2.5 2.5 0 0 1 2.52-2.48 2.5 2.5 0 0 1 2.48 2.52 2.49 2.49 0 0 1-2.49 2.48zm-12-.08a2.48 2.48 0 0 1-2.48-2.51 2.49 2.49 0 0 1 2.51-2.48 2.49 2.49 0 0 1 2.48 2.51 2.49 2.49 0 0 1-2.49 2.48zm-12-.07a2.5 2.5 0 0 1-2.48-2.52 2.49 2.49 0 0 1 2.51-2.48 2.49 2.49 0 0 1 2.48 2.51 2.49 2.49 0 0 1-2.49 2.49z"/><path class="cls-2" d="M198.89 237.83a2.49 2.49 0 0 1 1.79-3 2.49 2.49 0 0 1 3 1.78 2.5 2.5 0 0 1-1.79 3 2.25 2.25 0 0 1-.63.08 2.51 2.51 0 0 1-2.37-1.86zm11.61-3a2.49 2.49 0 0 1 1.79-3 2.5 2.5 0 0 1 3 1.78 2.49 2.49 0 0 1-1.79 3 2.26 2.26 0 0 1-.63.09 2.53 2.53 0 0 1-2.37-1.91zm11.61-3a2.5 2.5 0 0 1 1.79-3 2.5 2.5 0 0 1 3 1.78 2.49 2.49 0 0 1-1.79 3.05 2.31 2.31 0 0 1-.63.09 2.52 2.52 0 0 1-2.37-2zm11.61-3a2.5 2.5 0 0 1 1.79-3 2.5 2.5 0 0 1 3 1.79 2.5 2.5 0 0 1-1.79 3 2.73 2.73 0 0 1-.63.08 2.51 2.51 0 0 1-2.37-1.99zm11.61-3a2.5 2.5 0 0 1 1.78-3 2.51 2.51 0 0 1 3.06 1.79 2.51 2.51 0 0 1-1.79 3 2.29 2.29 0 0 1-.63.08 2.5 2.5 0 0 1-2.42-2.03zm11.61-3a2.49 2.49 0 0 1 1.78-3 2.5 2.5 0 0 1 3.06 1.78 2.49 2.49 0 0 1-1.79 3 2.29 2.29 0 0 1-.63.08 2.5 2.5 0 0 1-2.42-2.06zm11.61-3a2.5 2.5 0 0 1 1.78-3 2.5 2.5 0 0 1 3 1.78 2.5 2.5 0 0 1-1.78 3 2.37 2.37 0 0 1-.64.09 2.5 2.5 0 0 1-2.36-2.1zm11.61-3a2.5 2.5 0 0 1 1.78-3 2.5 2.5 0 0 1 3 1.78 2.49 2.49 0 0 1-1.78 3 2.44 2.44 0 0 1-.64.09 2.49 2.49 0 0 1-2.36-2.14zm11.61-3a2.5 2.5 0 0 1 1.78-3 2.5 2.5 0 0 1 3 1.79 2.5 2.5 0 0 1-1.78 3 2.81 2.81 0 0 1-.64.08 2.5 2.5 0 0 1-2.36-2.18zm11.61-3a2.49 2.49 0 0 1 1.78-3 2.5 2.5 0 0 1 3 1.79 2.5 2.5 0 0 1-1.79 3 2.25 2.25 0 0 1-.63.08 2.48 2.48 0 0 1-2.36-2.22zm11.61-3a2.49 2.49 0 0 1 1.78-3 2.5 2.5 0 0 1 3 1.79 2.5 2.5 0 0 1-1.78 3 2.32 2.32 0 0 1-.64.08 2.49 2.49 0 0 1-2.35-2.26zm11.6-3a2.49 2.49 0 0 1 1.79-3.05 2.5 2.5 0 0 1 3 1.78 2.5 2.5 0 0 1-1.78 3 2.36 2.36 0 0 1-.64.08 2.51 2.51 0 0 1-2.37-2.23zm11.61-3a2.5 2.5 0 0 1 1.79-3.05 2.5 2.5 0 0 1 3.01 1.32 2.49 2.49 0 0 1-1.79 3 2.26 2.26 0 0 1-.63.09 2.52 2.52 0 0 1-2.38-1.82zm23.22-6.08a2.5 2.5 0 0 1 1.79-3 2.5 2.5 0 0 1 3 1.79 2.5 2.5 0 0 1-1.79 3 2.73 2.73 0 0 1-.63.08 2.51 2.51 0 0 1-2.37-2.33zm11.61-3a2.5 2.5 0 0 1 1.78-3 2.67 2.67 0 0 1 1-.05 2.37 2.37 0 0 1 0-1.09 2.49 2.49 0 0 1 3-1.84 2.5 2.5 0 0 1 1.83 3 2.5 2.5 0 0 1-2.83 1.87 2.51 2.51 0 0 1-1.82 2.92 2.29 2.29 0 0 1-.63.08 2.5 2.5 0 0 1-2.36-2.39zm-7-4a2.5 2.5 0 0 1-1.84-3 2.52 2.52 0 0 1 3-1.84 2.51 2.51 0 0 1 1.83 3 2.5 2.5 0 0 1-2.42 1.9 2.47 2.47 0 0 1-.54-.59zm-23.31-5.72a2.51 2.51 0 0 1-1.84-3 2.51 2.51 0 0 1 3-1.83 2.5 2.5 0 0 1 1.83 3 2.51 2.51 0 0 1-2.43 1.91 2.46 2.46 0 0 1-.53-.61zm-11.66-2.85a2.51 2.51 0 0 1-1.83-3 2.5 2.5 0 0 1 3-1.83 2.5 2.5 0 0 1 1.84 3 2.52 2.52 0 0 1-2.43 1.91 3.06 3.06 0 0 1-.55-.61zm-11.65-2.87a2.49 2.49 0 0 1-1.83-3 2.49 2.49 0 0 1 3-1.83 2.5 2.5 0 0 1 1.83 3 2.5 2.5 0 0 1-2.42 1.91 2.49 2.49 0 0 1-.55-.61zm-11.66-2.85a2.5 2.5 0 0 1-1.83-3 2.5 2.5 0 0 1 3-1.83 2.5 2.5 0 0 1 1.83 3 2.5 2.5 0 0 1-2.43 1.91 2.47 2.47 0 0 1-.54-.61zm-11.65-2.86a2.5 2.5 0 0 1-1.83-3 2.49 2.49 0 0 1 3-1.83 2.49 2.49 0 0 1 1.83 3 2.49 2.49 0 0 1-2.43 1.91 2.4 2.4 0 0 1-.54-.61zm-11.65-2.86a2.49 2.49 0 0 1-1.84-3 2.5 2.5 0 0 1 3-1.84 2.51 2.51 0 0 1 1.83 3 2.5 2.5 0 0 1-2.43 1.9 2.45 2.45 0 0 1-.53-.59zm-11.66-2.86a2.5 2.5 0 0 1-1.83-3 2.5 2.5 0 0 1 3-1.84 2.5 2.5 0 0 1 1.83 3 2.49 2.49 0 0 1-2.42 1.9 2.47 2.47 0 0 1-.55-.59zm-11.66-2.86a2.5 2.5 0 0 1-1.83-3 2.5 2.5 0 0 1 3-1.83 2.49 2.49 0 0 1 1.83 3 2.5 2.5 0 0 1-2.43 1.9 2.52 2.52 0 0 1-.54-.6zm-11.65-2.86a2.5 2.5 0 0 1-1.83-3 2.49 2.49 0 0 1 3-1.83 2.49 2.49 0 0 1 1.83 3 2.5 2.5 0 0 1-2.42 1.91 2.49 2.49 0 0 1-.55-.61zm-11.65-2.85a2.52 2.52 0 0 1-1.84-3 2.51 2.51 0 0 1 3-1.83 2.5 2.5 0 0 1 1.83 3 2.51 2.51 0 0 1-2.43 1.91 3.14 3.14 0 0 1-.53-.61zm-11.66-2.87a2.49 2.49 0 0 1-1.83-3 2.49 2.49 0 0 1 3-1.83 2.5 2.5 0 0 1 1.84 3 2.52 2.52 0 0 1-2.38 1.39 2.49 2.49 0 0 1-.6-.09zm-11.65-2.85a2.51 2.51 0 0 1-1.84-3 2.5 2.5 0 0 1 3-1.83 2.49 2.49 0 0 1 1.83 3 2.49 2.49 0 0 1-2.43 1.91 2.44 2.44 0 0 1-.53-.61zm-11.62-3.39a2.5 2.5 0 0 1-1.84-3 2.5 2.5 0 0 1 3-1.83 2.49 2.49 0 0 1 1.84 3 2.5 2.5 0 0 1-2.43 1.91 2.34 2.34 0 0 1-.57-.08zM557.36 239.57a2.49 2.49 0 0 1-1.78-3 2.49 2.49 0 0 1 3-1.78 2.49 2.49 0 0 1 1.78 3 2.49 2.49 0 0 1-2.41 1.86 2.32 2.32 0 0 1-.59-.08zm-11.6-3.07a2.49 2.49 0 0 1-1.78-3 2.49 2.49 0 0 1 3-1.78 2.49 2.49 0 0 1 1.78 3 2.5 2.5 0 0 1-2.41 1.87 2.32 2.32 0 0 1-.59-.09zm-11.6-3.07a2.49 2.49 0 0 1-1.78-3.06 2.49 2.49 0 0 1 3-1.77 2.49 2.49 0 0 1 1.78 3 2.5 2.5 0 0 1-2.41 1.86 2.32 2.32 0 0 1-.59-.03zm-11.6-3.07a2.49 2.49 0 0 1-1.78-3.06 2.49 2.49 0 0 1 3.05-1.77 2.49 2.49 0 0 1 1.78 3 2.5 2.5 0 0 1-2.41 1.86 2.27 2.27 0 0 1-.64-.03zm-11.61-3.07a2.5 2.5 0 0 1-1.77-3.06 2.49 2.49 0 0 1 3-1.77 2.49 2.49 0 0 1 1.78 3 2.5 2.5 0 0 1-2.41 1.86 2.44 2.44 0 0 1-.6-.03zm-11.6-3.07a2.49 2.49 0 0 1-1.77-3.06 2.49 2.49 0 0 1 3-1.77 2.49 2.49 0 0 1 1.78 3 2.51 2.51 0 0 1-2.36 1.91 2.36 2.36 0 0 1-.65-.08zm-11.6-3.07a2.49 2.49 0 0 1-1.77-3.06 2.49 2.49 0 0 1 3-1.77 2.5 2.5 0 0 1 1.78 3.05 2.51 2.51 0 0 1-2.42 1.86 2.36 2.36 0 0 1-.59-.08zm-11.6-3.07a2.49 2.49 0 0 1-1.77-3.06 2.49 2.49 0 0 1 3-1.77 2.5 2.5 0 0 1 1.78 3 2.51 2.51 0 0 1-2.42 1.86 2.41 2.41 0 0 1-.59-.03zm-11.6-3.08a2.49 2.49 0 0 1-1.77-3.06 2.5 2.5 0 0 1 3.05-1.78 2.52 2.52 0 0 1 1.78 3.06 2.51 2.51 0 0 1-2.42 1.86 2.88 2.88 0 0 1-.64-.08zm-11.6-3.07a2.5 2.5 0 0 1-1.78-3.06 2.5 2.5 0 0 1 3.06-1.77 2.5 2.5 0 0 1 1.78 3.05 2.51 2.51 0 0 1-2.42 1.86 2.33 2.33 0 0 1-.64-.07zm-11.6-3.07a2.5 2.5 0 0 1-1.78-3.06 2.51 2.51 0 0 1 3.06-1.78 2.52 2.52 0 0 1 1.78 3.06A2.51 2.51 0 0 1 442 209a2.88 2.88 0 0 1-.65-.13zm-11.6-3.07a2.5 2.5 0 0 1-1.78-3.06A2.49 2.49 0 0 1 431 201a2.5 2.5 0 0 1 1.78 3 2.51 2.51 0 0 1-2.42 1.86 2.35 2.35 0 0 1-.61-.06zm-11.6-3.07a2.5 2.5 0 0 1-1.78-3.06 2.51 2.51 0 0 1 3.06-1.78 2.52 2.52 0 0 1 1.78 3.06 2.51 2.51 0 0 1-2.42 1.86 2.77 2.77 0 0 1-.64-.07zm-23.2-6.14a2.5 2.5 0 0 1-1.78-3.06 2.5 2.5 0 0 1 3.06-1.78 2.5 2.5 0 0 1 1.77 3.06 2.5 2.5 0 0 1-2.41 1.86 2.83 2.83 0 0 1-.64-.07zm-11.6-3.07a2.5 2.5 0 0 1-1.78-3.06 2.51 2.51 0 0 1 1.27-1.58.75.75 0 0 0 0-.14 2.5 2.5 0 0 1 1.84-3 2.5 2.5 0 0 1 3 1.83 2.51 2.51 0 0 1-1.28 2.82 2.45 2.45 0 0 1 0 1.37 2.49 2.49 0 0 1-2.4 1.85 2.81 2.81 0 0 1-.65-.08zm11.11-7.63a2.5 2.5 0 0 1 1.83-3 2.51 2.51 0 0 1 3 1.83 2.52 2.52 0 0 1-1.84 3 2.44 2.44 0 0 1-.59.07 2.5 2.5 0 0 1-2.4-1.89zm23.31-5.72a2.51 2.51 0 0 1 1.83-3 2.51 2.51 0 0 1 3 1.83 2.51 2.51 0 0 1-1.84 3 2.47 2.47 0 0 1-.6.07 2.49 2.49 0 0 1-2.39-1.89zm11.65-2.86a2.49 2.49 0 0 1 1.84-3 2.49 2.49 0 0 1 3 1.83 2.49 2.49 0 0 1-1.83 3 2.46 2.46 0 0 1-.6.07 2.5 2.5 0 0 1-2.41-1.89zm11.66-2.86a2.51 2.51 0 0 1 1.83-3 2.5 2.5 0 0 1 3 1.84 2.5 2.5 0 0 1-1.83 3 2.47 2.47 0 0 1-.59.08 2.51 2.51 0 0 1-2.41-1.91zm11.65-2.86a2.49 2.49 0 0 1 1.84-3 2.5 2.5 0 0 1 3 1.83 2.49 2.49 0 0 1-1.84 3 2.47 2.47 0 0 1-.6.07 2.5 2.5 0 0 1-2.4-1.89zm11.66-2.86a2.5 2.5 0 0 1 1.83-3 2.49 2.49 0 0 1 3 1.83 2.49 2.49 0 0 1-1.83 3 2.49 2.49 0 0 1-.6.08 2.49 2.49 0 0 1-2.4-1.9zm11.61-2.85a2.49 2.49 0 0 1 1.84-3 2.5 2.5 0 0 1 3 1.83 2.5 2.5 0 0 1-1.84 3 2.38 2.38 0 0 1-.59.07 2.5 2.5 0 0 1-2.41-1.9zm11.7-2.87a2.5 2.5 0 0 1 1.83-3 2.5 2.5 0 0 1 3 1.83 2.51 2.51 0 0 1-1.83 3 3.07 3.07 0 0 1-.6.07 2.51 2.51 0 0 1-2.4-1.9zm11.65-2.85a2.5 2.5 0 0 1 1.83-3 2.51 2.51 0 0 1 3 1.83 2.5 2.5 0 0 1-1.84 3 2.45 2.45 0 0 1-.59.07 2.5 2.5 0 0 1-2.4-1.89zm11.65-2.86a2.51 2.51 0 0 1 1.84-3 2.5 2.5 0 0 1 3 1.84 2.5 2.5 0 0 1-1.83 3 2.46 2.46 0 0 1-.6.07 2.5 2.5 0 0 1-2.41-1.91zm11.66-2.85a2.5 2.5 0 0 1 1.83-3 2.5 2.5 0 0 1 3 1.83 2.5 2.5 0 0 1-1.83 3 2.47 2.47 0 0 1-.6.07 2.49 2.49 0 0 1-2.4-1.9zm11.65-2.86a2.51 2.51 0 0 1 1.84-3 2.5 2.5 0 0 1 3 1.83 2.5 2.5 0 0 1-1.83 3 2.47 2.47 0 0 1-.6.07 2.51 2.51 0 0 1-2.41-1.9zm11.69-2.86a2.51 2.51 0 0 1 1.83-3 2.52 2.52 0 0 1 3 1.84 2.51 2.51 0 0 1-1.84 3 2.47 2.47 0 0 1-.6.08 2.5 2.5 0 0 1-2.39-1.92z"/><path class="cls-3" d="M421.32 196.71h-14.77v-26.49h-53.99v26.49h-14.77v19.35h13.5l-12.31 135.49h80.47l-12.31-135.49h14.18v-19.35z"/><path class="cls-4" d="M419.45 362.75h-80.47l1.24-24.94h77.2l2.03 24.94zM351.2 216.06h56.03l3.06 31.58L348 248l3.2-31.94zM346.11 278.2h67.23l3.06 32.6h-73.35l3.06-32.6z"/><path class="cls-5" d="M12 351.45c26.81-16.58 62.72-25.67 94.21-23.15 11 .88 21.7 3.69 32.33 6.56 61.29 16.52 124.69 35.39 187.21 24.36 50.62-8.93 97.81-37.16 149.21-36.36a135.66 135.66 0 0 1 82.29 29.75c4.53 3.65 9 7.92 10.58 13.53 3.2 11.6-7.26 22.28-17.39 28.78-32.53 20.87-71.57 28.95-110 33.4S363.18 434 325.59 443c-44.81 10.72-88.85 32.46-134.57 26.79-42.39-5.26-78.24-33.27-118.8-46.67-13.52-4.47-27.74-7.38-40.1-14.45a66.69 66.69 0 0 1-21.38-19.53c-5.35-7.64-9.15-17.16-7-26.24s12.14-16.52 20.9-13.3"/><path class="cls-6" d="M333.86 77.5l9-2.39-9-2.38-2.39-9-2.38 9-9 2.38 9 2.39 2.38 9 2.39-9zM431.31 142.29l9-2.38-9-2.39-2.39-9-2.38 9-9 2.39 9 2.38 2.38 9 2.39-9zM479.87 261.65l9-2.38-9-2.39-2.38-8.99-2.39 8.99-9 2.39 9 2.38 2.39 9 2.38-9zM462.16 116.23l8.99-2.38-8.99-2.39-2.39-8.99-2.38 8.99-9 2.39 9 2.38 2.38 9 2.39-9z"/><path class="cls-2" d="M380.23 179.9c-3.94 0-7.13 2.28-7.13 5.09v12.22h14.26V185c0-2.82-3.19-5.1-7.13-5.1z"/><path class="cls-7" d="M352.34 170.22h53.76v-.08l-24.35-25.28a2.91 2.91 0 0 0-4.16 0l-25.29 25.28.04.08z"/><path class="cls-8" d="M191.27 438.14a107 107 0 0 1-24.93-17c-13.83-15.09-38.64-11.76-56.09-4.58-15.75 6.48-17.8 12.9-24.93 16.22 44.82-15.02 105.95 5.36 105.95 5.36z"/><path class="cls-9" d="M108.75 429s2-1 13.72-4.26c18.19-5 42.26-10.51 56.09 4.58 16.78 15 24.93 15.39 24.93 15.39s-27.5-1.44-38.71-5.52c-9.17-2.07-21.39-8.19-56.03-10.19z"/><path class="cls-10" d="M113.3 332.07s41.09-15.76 52.38-15.72c14 14.16 31.45 36.4 75.94 53.27 50.61 19.19 84.26 23.09 84.26 23.09s-11.7 49.22-61.1 51-69.26-2.5-92.91-8.92c-43.67-15.39-80.78-48.26-58.57-102.72z"/><rect class="cls-11" x="253.84" y="202.53" width="6.28" height="176.54" rx="3.08" ry="3.08" transform="rotate(10.09 256.89 290.687)"/><path class="cls-12" d="M239.74 215.26s49.19-.58 73.83 14.11c-19.83 19.05-19.06 37-19.06 37l-73.38-12.75s5.39-31.62 18.61-38.36z"/><path class="cls-13" d="M295.59 258.5a30.86 30.86 0 0 0-1.09 7.93l-73.38-12.75s.57-3.35 1.79-8.09c2.55-9.87 74.43 5.88 72.68 12.91z"/><path class="cls-4" d="M165.68 316.35c14 14.16 31.45 36.4 75.94 53.27 50.61 19.19 84.26 23.09 84.26 23.09s-11.7 49.22-61.1 51-69.26-2.5-92.91-8.92C128.28 410 143 343.61 165.68 316.35z"/><path class="cls-14" d="M213.3 387c-3.57 4.59-3.43 9.43-1.39 12.94 2.69 4.76 9.39 4.19 12.39.73 2.59-2.68 3.22-8.81.85-12.79-2.33-4.2-8.3-4.88-11.85-.88zM260 399.3c-3.19 4.11-3.07 8.43-1.24 11.58 2.41 4.26 8.41 3.75 11.09.65 2.32-2.4 2.88-7.88.76-11.45a6.55 6.55 0 0 0-10.61-.78z"/><path class="cls-12" d="M214.53 253.49s46.85-3.94 88.06 16.89C294 281.61 281.82 316.76 291.9 347c0 0-74.23-2.16-101.93-27.21 1.44-37.03 24.56-66.3 24.56-66.3z"/><path class="cls-14" d="M291.16 406.11c-2.62 3.37-2.52 6.91-1 9.49 2 3.49 6.89 3.07 9.09.53 1.9-2 2.36-6.46.63-9.38a5.37 5.37 0 0 0-8.72-.64z"/><path class="cls-15" d="M234.05 451.38a107 107 0 0 1-24.93-17c-13.83-15.09-38.64-11.76-56.09-4.58-15.75 6.48-17.8 12.9-24.93 16.22 44.83-15.02 105.95 5.36 105.95 5.36z"/><path class="cls-16" d="M178 441.19s2-1 13.72-4.26c18.19-5 42.26-10.51 56.09 4.58 16.78 15 24.93 15.39 24.93 15.39s-27.5-1.44-38.71-5.52c-9.15-2.04-21.37-8.15-56.03-10.19z"/><g class="cls-17"><g class="cls-18"><path class="cls-19" transform="rotate(-78.64 245.1104 294.7243)" d="M210.21 259.14h69.8v71.17h-69.8z"/></g></g><g class="cls-17"><g class="cls-20"><path class="cls-19" transform="rotate(-78.64 235.699 292.3297)" d="M225.82 280.92h19.75v22.82h-19.75z"/></g></g><g class="cls-17"><g class="cls-21"><path class="cls-19" transform="rotate(-78.64 244.414 298.2644)" d="M230.56 277.16h27.7v42.2h-27.7z"/></g></g><g class="cls-17"><g class="cls-22"><path class="cls-19" transform="rotate(-78.64 240.2754 284.0525)" d="M232.33 274.78h15.89v18.54h-15.89z"/></g></g><g class="cls-17"><g class="cls-23"><path class="cls-19" transform="rotate(-78.64 250.16 289.3438)" d="M239.98 278.07h20.35v22.54h-20.35z"/></g></g></svg>