<?xml version="1.0" encoding="UTF-8"?>
<svg width="46px" height="46px" viewBox="0 0 46 46" version="1.1" xmlns="http://www.w3.org/2000/svg" xmlns:xlink="http://www.w3.org/1999/xlink">
    <!-- Generator: Sketch 55.2 (78181) - https://sketchapp.com -->
    <title>RSS-Button</title>
    <desc>Created with Sketch.</desc>
    <g id="Blog" stroke="none" stroke-width="1" fill="none" fill-rule="evenodd">
        <g id="Kyma-blog-2-Copy" transform="translate(-1149.000000, -312.000000)" fill="#0B74DE" fill-rule="nonzero">
            <g id="Default" transform="translate(1149.000000, 312.000000)">
                <path d="M23,0 C35.7025492,0 46,10.2974508 46,23 C46,35.7025492 35.7025492,46 23,46 C10.2974508,46 0,35.7025492 0,23 C0,10.2974508 10.2974508,0 23,0 Z M23,2 C11.4020203,2 2,11.4020203 2,23 C2,34.5979797 11.4020203,44 23,44 C34.5979797,44 44,34.5979797 44,23 C44,11.4020203 34.5979797,2 23,2 Z M17,19.0785285 C18.8572255,19.0785285 20.5747225,19.5387191 22.1525424,20.459114 C23.697491,21.3630733 24.9219267,22.587509 25.825886,24.1324576 C26.7462809,25.7102775 27.2064715,27.4277745 27.2064715,29.285 L24.2727273,29.285 C24.2727273,27.9701501 23.9440197,26.7539321 23.2865948,25.6363097 C22.6291698,24.5351229 21.7498771,23.6558302 20.6486903,22.9984052 C19.5310679,22.3409803 18.3148499,22.0122727 17,22.0122727 L17,19.0785285 Z M17,13.285 C19.1530667,13.285 21.2239243,13.7041021 23.2126348,14.542319 C25.1191672,15.3641002 26.8120111,16.5145766 28.2912173,17.9937827 C29.7704234,19.4729889 30.9208998,21.1658328 31.742681,23.0723652 C32.5808979,25.0610757 33,27.1319333 33,29.285 L30.0909091,29.285 C30.0909091,27.5099526 29.7457662,25.808891 29.05547,24.1817643 C28.398045,22.62038 27.4653373,21.2356994 26.257319,20.027681 C25.0493006,18.8196627 23.66462,17.886955 22.1032357,17.22953 C20.476109,16.5392338 18.7750474,16.1940909 17,16.1940909 L17,13.285 Z M17,27.0168952 C17,26.3923415 17.2218776,25.8664094 17.6656394,25.4390832 C18.1094013,25.011757 18.6435511,24.7980971 19.2681048,24.7980971 C19.8926585,24.7980971 20.4185906,25.011757 20.8459168,25.4390832 C21.273243,25.8664094 21.4869029,26.3923415 21.4869029,27.0168952 C21.4869029,27.6414489 21.273243,28.1755987 20.8459168,28.6193606 C20.4185906,29.0631224 19.8926585,29.285 19.2681048,29.285 C18.6435511,29.285 18.1094013,29.0631224 17.6656394,28.6193606 C17.2218776,28.1755987 17,27.6414489 17,27.0168952 Z" id="RSS-Button"></path>
            </g>
        </g>
    </g>
</svg>