<?xml version="1.0" encoding="UTF-8"?>
<svg width="46px" height="46px" viewBox="0 0 46 46" version="1.1" xmlns="http://www.w3.org/2000/svg" xmlns:xlink="http://www.w3.org/1999/xlink">
    <!-- Generator: Sketch 55.2 (78181) - https://sketchapp.com -->
    <title>RSS-Button</title>
    <desc>Created with Sketch.</desc>
    <g id="Blog" stroke="none" stroke-width="1" fill="none" fill-rule="evenodd">
        <g id="Kyma-blog-2-Copy" transform="translate(-1149.000000, -312.000000)" fill="#0B74DE" fill-rule="nonzero">
            <g id="Active" transform="translate(1149.000000, 312.000000)">
                <path d="M23,0 C35.7025492,-2.33342044e-15 46,10.2974508 46,23 C46,35.7025492 35.7025492,46 23,46 C10.2974508,46 1.55561363e-15,35.7025492 0,23 C-1.55561363e-15,10.2974508 10.2974508,2.33342044e-15 23,0 Z M17,18.7935285 L17,21.7272727 C18.3148499,21.7272727 19.5310679,22.0559803 20.6486903,22.7134052 C21.7498771,23.3708302 22.6291698,24.2501229 23.2865948,25.3513097 C23.9440197,26.4689321 24.2727273,27.6851501 24.2727273,29 L27.2064715,29 C27.2064715,27.1427745 26.7462809,25.4252775 25.825886,23.8474576 C24.9219267,22.302509 23.697491,21.0780733 22.1525424,20.174114 C20.5747225,19.2537191 18.8572255,18.7935285 17,18.7935285 Z M17,13 L17,15.9090909 C18.7750474,15.9090909 20.476109,16.2542338 22.1032357,16.94453 C23.66462,17.601955 25.0493006,18.5346627 26.257319,19.742681 C27.4653373,20.9506994 28.398045,22.33538 29.05547,23.8967643 C29.7457662,25.523891 30.0909091,27.2249526 30.0909091,29 L33,29 C33,26.8469333 32.5808979,24.7760757 31.742681,22.7873652 C30.9208998,20.8808328 29.7704234,19.1879889 28.2912173,17.7087827 C26.8120111,16.2295766 25.1191672,15.0791002 23.2126348,14.257319 C21.2239243,13.4191021 19.1530667,13 17,13 Z M17,26.7318952 C17,27.3564489 17.2218776,27.8905987 17.6656394,28.3343606 C18.1094013,28.7781224 18.6435511,29 19.2681048,29 C19.8926585,29 20.4185906,28.7781224 20.8459168,28.3343606 C21.273243,27.8905987 21.4869029,27.3564489 21.4869029,26.7318952 C21.4869029,26.1073415 21.273243,25.5814094 20.8459168,25.1540832 C20.4185906,24.726757 19.8926585,24.5130971 19.2681048,24.5130971 C18.6435511,24.5130971 18.1094013,24.726757 17.6656394,25.1540832 C17.2218776,25.5814094 17,26.1073415 17,26.7318952 Z" id="RSS-Button"></path>
            </g>
        </g>
    </g>
</svg>