<svg xmlns="http://www.w3.org/2000/svg" width="134" height="112" viewBox="0 0 134 112">
    <defs>
        <linearGradient id="a" x1="83.825%" x2="12.64%" y1="25.618%" y2="101.875%">
            <stop offset="0%" stop-color="#0B74DE"/>
            <stop offset="32%" stop-color="#2A6EDF"/>
            <stop offset="64%" stop-color="#4469E1"/>
            <stop offset="84%" stop-color="#4D67E1"/>
        </linearGradient>
    </defs>
    <g fill="none" fill-rule="evenodd">
        <path fill="url(#a)" d="M109.49 4.62c23.376 14.58 32.173 53.358 16.921 83.908-17.306 28.468-65.377 31.523-102.237 6.518-32.018-25.204-30.812-53.52-4.74-70.62C47.642 5.963 86.166-7.48 109.49 4.62z"/>
        <g stroke-width="5.194" transform="translate(34 22)">
            <path fill="#00E833" stroke="#3298FF" stroke-linejoin="round" d="M51.616 23.56c5.08.014 9.55-3.475 10.946-8.543 1.396-5.067-.622-10.48-4.942-13.254C53.3-1.01 47.731-.47 43.983 3.087c-3.749 3.557-4.764 9.264-2.487 13.975"/>
            <path fill="#0B74DE" stroke="#3298FF" d="M41.487 49.957c-2.267 4.711-1.246 10.412 2.503 13.963 3.75 3.55 9.314 4.088 13.63 1.317 4.316-2.772 6.335-8.18 4.945-13.244-1.39-5.065-5.852-8.557-10.928-8.553"/>
            <path stroke="#3298FF" stroke-linejoin="round" d="M52.012 23.349a11.522 11.522 0 0 1-10.313-6.415L19.047 28.32a11.546 11.546 0 0 1 0 10.364l22.652 11.382a11.522 11.522 0 0 1 10.313-6.415"/>
            <ellipse cx="11.355" cy="33.5" fill="#2E6DDF" stroke="#00E833" stroke-linejoin="round" rx="11.355" ry="11.412"/>
        </g>
    </g>
</svg>
