<svg version="1.1" id="Ebene_1" xmlns="http://www.w3.org/2000/svg" xmlns:xlink="http://www.w3.org/1999/xlink" x="0" y="0" width="452.54" height="432.06" viewBox="73.225 81.23 353.55 337.54" xml:space="preserve"><style>.st0{fill:#dde5f8}.st2{opacity:.2}.st3{fill:#00e833}.st4{fill:#3f82f5}.st5{fill:url(#SVGID_1_)}.st13{fill:#01e600}.st14{fill:#2e6ddf}.st19{fill:#fff}</style><path class="st0" d="M245.5 131.6c-110-4.4-186.2 52.6-170.1 120.8 17.6 73.3 93.7 149.7 170.1 163.7 77.9 14.4 154.1-31.4 171.7-103.3 16-75.5-60.2-163.1-171.7-181.2z" id="path-2_1_"/><g id="path-10_5_" class="st2"><circle transform="rotate(-45.001 283.28 229.817)" class="st13" cx="283.3" cy="229.8" r="37"/></g><circle class="st3" cx="283.2" cy="229.8" r="13.2" id="Oval_10_"/><path transform="rotate(-44.716 316.077 196.548)" class="st14" d="M306.2 191.9h19.7v9.2h-19.7z"/><path transform="rotate(-45.001 321.18 267.354)" class="st14" d="M316.6 250.9h9.2v33h-9.2z"/><path transform="rotate(-45.001 245.199 192.302)" class="st14" d="M240.6 175.8h9.2v33h-9.2z"/><g id="Shape_7_" class="st2"><path class="st4" d="M296.1 87.8v71.9c0 1.7.7 3.4 1.9 4.7l45.6 45.6c1.2 1.2 2.9 1.9 4.7 1.9h71.9c3.6 0 6.6-3 6.6-6.6V87.8c0-3.6-3-6.6-6.6-6.6H302.7c-3.7 0-6.6 3-6.6 6.6z"/></g><g id="Shape_1_"><linearGradient id="SVGID_1_" gradientUnits="userSpaceOnUse" x1="134.565" y1="305.457" x2="270.505" y2="305.457"><stop offset=".13" stop-color="#0b74de"/><stop offset=".46" stop-color="#2a6edf"/><stop offset=".87" stop-color="#4d67e1"/></linearGradient><path class="st5" d="M252.9 373.4c-1.5 0-2.6-1.2-2.6-2.6 0-1.5 1.2-2.6 2.6-2.6 1.5 0 2.6 1.2 2.6 2.6.1 1.4-1.1 2.6-2.6 2.6zm-18.6 0c-1.5 0-2.6-1.2-2.6-2.6 0-1.5 1.2-2.6 2.6-2.6 1.5 0 2.6 1.2 2.6 2.6 0 1.4-1.1 2.6-2.6 2.6zm-18.6 0c-1.5 0-2.6-1.2-2.6-2.6 0-1.5 1.2-2.6 2.6-2.6 1.5 0 2.6 1.2 2.6 2.6 0 1.4-1.2 2.6-2.6 2.6zm-18.7 0c-1.5 0-2.6-1.2-2.6-2.6 0-1.5 1.2-2.6 2.6-2.6 1.5 0 2.6 1.2 2.6 2.6.1 1.4-1.1 2.6-2.6 2.6zm-18.6 0c-1.5 0-2.6-1.2-2.6-2.6 0-1.5 1.2-2.6 2.6-2.6 1.5 0 2.6 1.2 2.6 2.6 0 1.4-1.2 2.6-2.6 2.6zm-18.7 0c-1.5 0-2.6-1.2-2.6-2.6 0-1.5 1.2-2.6 2.6-2.6 1.5 0 2.6 1.2 2.6 2.6.1 1.4-1.1 2.6-2.6 2.6zm-18.5-.5c-.4 0-.8-.1-1.1-.2-1.2-.6-1.8-1.9-1.4-3.2.5-1.4 1.9-2.1 3.3-1.7l.6.3c1.2.8 1.5 2.4.7 3.7-.4.7-1.3 1.1-2.1 1.1zm126.7-6c-1.5 0-2.6-1.2-2.6-2.6 0-1.5 1.2-2.6 2.6-2.6 1.5 0 2.6 1.2 2.6 2.6 0 1.4-1.2 2.6-2.6 2.6zm-130.7-11c-1.5 0-2.6-1.2-2.6-2.6s1.2-2.6 2.6-2.6c1.5 0 2.6 1.2 2.6 2.6 0 1.4-1.1 2.6-2.6 2.6zm130.7-7.7c-1.5 0-2.6-1.2-2.6-2.6 0-1.5 1.2-2.6 2.6-2.6 1.5 0 2.6 1.2 2.6 2.6 0 1.4-1.2 2.6-2.6 2.6zm-130.7-11c-1.5 0-2.6-1.2-2.6-2.6 0-1.5 1.2-2.6 2.6-2.6 1.5 0 2.6 1.2 2.6 2.6 0 1.5-1.1 2.6-2.6 2.6zm130.7-7.6c-1.5 0-2.6-1.2-2.6-2.6 0-1.5 1.2-2.6 2.6-2.6 1.5 0 2.6 1.2 2.6 2.6s-1.2 2.6-2.6 2.6zm-130.7-11c-1.5 0-2.6-1.2-2.6-2.6 0-1.5 1.2-2.6 2.6-2.6 1.5 0 2.6 1.2 2.6 2.6 0 1.4-1.1 2.6-2.6 2.6zm130.7-7.7c-1.5 0-2.6-1.2-2.6-2.6 0-1.5 1.2-2.6 2.6-2.6 1.5 0 2.6 1.2 2.6 2.6s-1.2 2.6-2.6 2.6zM137.2 300c-1.5 0-2.6-1.2-2.6-2.6 0-1.5 1.2-2.6 2.6-2.6 1.5 0 2.6 1.2 2.6 2.6 0 1.4-1.1 2.6-2.6 2.6zm130.1-7.6c-1 0-2-.6-2.4-1.5-.5-1.2-.2-2.6.9-3.3 1.2-.8 2.8-.5 3.7.7l.3.6c.5 1.4-.3 2.9-1.7 3.3-.2.1-.5.2-.8.2zm-130.1-11.1c-1.5 0-2.6-1.2-2.6-2.6 0-1.5 1.2-2.6 2.6-2.6 1.5 0 2.6 1.2 2.6 2.6 0 1.4-1.1 2.6-2.6 2.6zm117.3-2.4c-.7 0-1.3-.3-1.9-.8-1-1-1-2.7 0-3.7s2.7-1 3.7 0 1 2.7 0 3.7c-.4.5-1.1.8-1.8.8zm-13.2-13.2c-.6 0-1.2-.2-1.7-.7-1.1-1-1.2-2.6-.2-3.7s2.6-1.2 3.7-.2 1.2 2.6.3 3.7c-.6.6-1.3.9-2.1.9zm-104.1-3c-1.5 0-2.6-1.2-2.6-2.6s1.2-2.6 2.6-2.6c1.5 0 2.6 1.2 2.6 2.6 0 1.4-1.1 2.6-2.6 2.6zm91-10.2c-.7 0-1.3-.3-1.9-.8-1-1-1-2.7 0-3.7s2.7-1 3.7 0 1 2.7 0 3.7c-.5.6-1.2.8-1.8.8zm-89-7.9c-.7 0-1.3-.3-1.9-.8-1-1-1-2.7 0-3.7s2.7-1 3.7 0 1 2.7 0 3.7c-.4.5-1.1.8-1.8.8zm74.1-1.8c-1.5 0-2.6-1.2-2.6-2.6 0-1.5 1.2-2.6 2.6-2.6s2.6 1.2 2.6 2.6c0 1.4-1.1 2.6-2.6 2.6zm-18.6 0c-1.5 0-2.6-1.2-2.6-2.6 0-1.5 1.2-2.6 2.6-2.6s2.6 1.2 2.6 2.6c0 1.4-1.2 2.6-2.6 2.6zm-18.7 0c-1.5 0-2.7-1.2-2.7-2.6 0-1.5 1.2-2.6 2.6-2.6s2.6 1.2 2.6 2.6c.2 1.4-1 2.6-2.5 2.6zm-18.6 0c-1.5 0-2.6-1.2-2.6-2.6 0-1.5 1.2-2.6 2.6-2.6 1.5 0 2.6 1.2 2.6 2.6 0 1.4-1.2 2.6-2.6 2.6z"/></g><g id="Shape_6_"><defs><path id="SVGID_10_" d="M267.2 87.8v71.9c0 1.7-.7 3.4-1.9 4.7L219.7 210c-1.2 1.2-2.9 1.9-4.7 1.9h-71.9c-3.6 0-6.6-3-6.6-6.6V87.8c0-3.6 3-6.6 6.6-6.6h117.5c3.7 0 6.6 3 6.6 6.6z"/></defs><use xlink:href="#SVGID_10_" overflow="visible" fill="#4d67e1"/><clipPath id="SVGID_2_"><use xlink:href="#SVGID_10_" overflow="visible"/></clipPath><path clip-path="url(#SVGID_2_)" fill="#4d67e1" d="M264.1 211.9l3.1-3.1v3.1zM260.5 211.9l6.7-6.6v3.5l-3.1 3.1z"/><path clip-path="url(#SVGID_2_)" fill="#4d67e1" d="M257 211.9l10.2-10.1v3.5l-6.7 6.6z"/><path clip-path="url(#SVGID_2_)" fill="#4d67e1" d="M253.4 211.9l13.8-13.6v3.5L257 211.9zM249.9 211.9l17.3-17.1v3.5l-13.8 13.6zM246.4 211.9l20.8-20.7v3.6l-17.3 17.1zM242.8 211.9l24.4-24.2v3.5l-20.8 20.7zM239.3 211.9l27.9-27.7v3.5l-24.4 24.2zM235.8 211.9l31.4-31.2v3.5l-27.9 27.7zM232.2 211.9l35-34.7v3.5l-31.4 31.2zM228.7 211.9l38.5-38.2v3.5l-35 34.7zM225.2 211.9l42-41.7v3.5l-38.5 38.2zM221.6 211.9l45.6-45.2v3.5l-42 41.7zM218.1 211.9l49.1-48.7v3.5l-45.6 45.2zM214.5 211.9l52.7-52.2v3.5l-49.1 48.7zM211 211.9l56.2-55.7v3.5l-52.7 52.2z"/><path clip-path="url(#SVGID_2_)" fill="#4d67e1" d="M207.5 211.9l59.7-59.2v3.5L211 211.9z"/><path clip-path="url(#SVGID_2_)" fill="#4d67e1" d="M203.9 211.9l63.3-62.8v3.6l-59.7 59.2z"/><path clip-path="url(#SVGID_2_)" fill="#4d67e1" d="M200.4 211.9l66.8-66.3v3.5l-63.3 62.8z"/><path clip-path="url(#SVGID_2_)" fill="#4d67e1" d="M196.9 211.9l70.3-69.8v3.5l-66.8 66.3z"/><path clip-path="url(#SVGID_2_)" fill="#4d67e1" d="M193.3 211.9l73.9-73.3v3.5l-70.3 69.8zM267.2 138.6l-73.9 73.3h-56.8V81.2h130.7z"/></g><g id="Shape_5_"><defs><path id="SVGID_12_" d="M296.1 363.5v-71.9c0-1.7.7-3.4 1.9-4.7l45.6-45.6c1.2-1.2 2.9-1.9 4.7-1.9h71.9c3.6 0 6.6 3 6.6 6.6v117.5c0 3.6-3 6.6-6.6 6.6H302.7c-1.7 0-3.4-.7-4.7-1.9-1.2-1.2-1.9-2.9-1.9-4.7z"/></defs><use xlink:href="#SVGID_12_" overflow="visible" fill="#4d67e1"/><clipPath id="SVGID_3_"><use xlink:href="#SVGID_12_" overflow="visible"/></clipPath><path clip-path="url(#SVGID_3_)" fill="#4d67e1" d="M302 239.5l-5.9 5.7v-5.7z"/><path clip-path="url(#SVGID_3_)" fill="#4d67e1" d="M309.7 239.5l-13.6 13.2v-7.5l5.9-5.7zM317.5 239.5l-21.4 20.7v-7.5l13.6-13.2z"/><path clip-path="url(#SVGID_3_)" fill="#4d67e1" d="M325.2 239.5l-29.1 28.2v-7.5l21.4-20.7zM333 239.5l-36.9 35.7v-7.5l29.1-28.2z"/><path clip-path="url(#SVGID_3_)" fill="#4d67e1" d="M340.8 239.5l-44.7 43.2v-7.5l36.9-35.7z"/><path clip-path="url(#SVGID_3_)" fill="#4d67e1" d="M348.5 239.5l-52.4 50.7v-7.5l44.7-43.2z"/><path clip-path="url(#SVGID_3_)" fill="#4d67e1" d="M356.3 239.5l-60.2 58.2v-7.5l52.4-50.7z"/><path clip-path="url(#SVGID_3_)" fill="#4d67e1" d="M296.1 297.7l60.2-58.2h70.4v130.6H296.1z"/></g><defs><circle id="SVGID_14_" cx="201.3" cy="305.2" r="24.9"/></defs><clipPath id="SVGID_4_"><use xlink:href="#SVGID_14_" overflow="visible"/></clipPath><path clip-path="url(#SVGID_4_)" fill="#095bad" d="M176.4 280.3h49.8v49.8h-49.8z"/><g><path class="st19" d="M211.6 306.5H191c-.7 0-1.3-.6-1.3-1.3 0-.7.6-1.3 1.3-1.3h20.6c.7 0 1.3.6 1.3 1.3 0 .7-.6 1.3-1.3 1.3z"/></g><g><path class="st19" d="M200 315.6V295c0-.7.6-1.3 1.3-1.3.7 0 1.3.6 1.3 1.3v20.6c0 .7-.6 1.3-1.3 1.3-.7-.1-1.3-.6-1.3-1.3z"/></g></svg>