<svg version="1.1" id="Ebene_1" xmlns="http://www.w3.org/2000/svg" x="0" y="0" viewBox="53.57 74.665 392.86 350.67" xml:space="preserve"><style>.st0{fill:#dde5f8}.st1{opacity:2.000000e-02}.st2{opacity:.2}.st3{fill:#00e833}.st4{fill:#3f82f5}.st5{fill:url(#SVGID_1_)}.st6{fill:url(#SVGID_2_)}.st7{fill:url(#SVGID_3_)}.st8{fill:url(#SVGID_4_)}</style><g id="Mask_1_"><path class="st0" d="M420.4 364.5c47.9-66.3 28.3-181.4-48.2-246.4-79.8-57.1-215.7-10-289 100C23.5 323.2 58 404 150 414.5c97.3 23.6 219.8 9.6 270.4-50z" id="path-2_5_"/><g id="path-2_3_" class="st1"><path class="st0" d="M420.4 364.5c47.9-66.3 28.3-181.4-48.2-246.4-79.8-57.1-215.7-10-289 100C23.5 323.2 58 404 150 414.5c97.3 23.6 219.8 9.6 270.4-50z"/></g></g><g class="st2"><path class="st3" d="M257.8 308c-41.5 16.1-88.3-4.5-104.3-45.9-16.1-41.5 4.6-88.2 46.1-104.3 41.5-16.1 88.2 4.5 104.3 46 16 41.4-4.6 88.1-46.1 104.2z"/></g><circle class="st3" cx="228.7" cy="232.9" r="28.8"/><path class="st4" d="M228.7 346c-51.1 0-97.6-34.9-110-86.8-14.5-60.7 23-121.8 83.7-136.4 29.4-7 59.8-2.2 85.5 13.6 25.8 15.8 43.8 40.7 50.9 70.1 14.5 60.7-23 121.8-83.7 136.4-8.9 2.1-17.7 3.1-26.4 3.1zm.1-216c-8 0-16.1.9-24.1 2.9-26.7 6.4-49.3 22.8-63.7 46.2-14.4 23.4-18.7 51-12.3 77.7 13.2 55.1 68.8 89.2 123.9 76 26.7-6.4 49.3-22.8 63.7-46.2 14.4-23.4 18.7-51 12.3-77.7-6.4-26.7-22.8-49.3-46.2-63.7-16.4-10-34.8-15.2-53.6-15.2z"/><linearGradient id="SVGID_1_" gradientUnits="userSpaceOnUse" x1="112.391" y1="78.201" x2="235.877" y2="78.201" gradientTransform="rotate(-13.479 329.562 -339.564)"><stop offset=".13" stop-color="#0b74de"/><stop offset=".46" stop-color="#2a6edf"/><stop offset=".87" stop-color="#4d67e1"/></linearGradient><path class="st5" d="M341.4 130.2c-.9 0-1.8-.3-2.4-1-1.3-1.3-1.3-3.5 0-4.9 1.3-1.3 3.5-1.3 4.9 0 1.3 1.3 1.4 3.5 0 4.9-.7.7-1.6 1-2.5 1zM323.6 114c-.7 0-1.3-.2-1.9-.6-.2-.1-.4-.3-.5-.4-1.3-1.3-1.3-3.5 0-4.9 1.2-1.2 3.2-1.3 4.6-.3 1.4 1.1 1.8 3.1.8 4.6-.8 1-1.9 1.6-3 1.6zm-20.2-13.3c-.6 0-1.1-.1-1.6-.4-1.5-.8-2.2-2.5-1.7-4.1.6-1.8 2.5-2.8 4.4-2.2.3.1.6.2.8.4 1.6 1.1 2 3.2 1 4.8-.7 1-1.8 1.5-2.9 1.5zm-21.9-10c-.3 0-.7 0-1-.1-1.8-.5-2.8-2.3-2.4-4.1.5-1.8 2.3-3 4.2-2.5.1 0 .2.1.3.1 1.8.6 2.8 2.6 2.2 4.4-.5 1.3-1.9 2.2-3.3 2.2zm-23.3-6.4c-.2 0-.4 0-.6-.1-1.6-.3-2.8-1.7-2.8-3.4 0-1.9 1.5-3.4 3.4-3.4.4 0 .8.1 1.1.2 1.8.6 2.8 2.6 2.2 4.4-.5 1.4-1.8 2.3-3.3 2.3zm-48.1-1.7c-1.5 0-2.9-1-3.3-2.6-.5-1.8.7-3.7 2.5-4.2.3-.1.6-.1.9-.1 1.9 0 3.4 1.5 3.4 3.4 0 1.8-1.4 3.2-3.1 3.4-.1.1-.2.1-.4.1zm24.2-1.1c-1.9 0-3.5-1.5-3.5-3.4s1.5-3.4 3.4-3.4 3.5 1.5 3.5 3.4-1.5 3.4-3.4 3.4z"/><linearGradient id="SVGID_2_" gradientUnits="userSpaceOnUse" x1="166.476" y1="273.895" x2="254.536" y2="273.895" gradientTransform="rotate(-13.479 329.562 -339.564)"><stop offset=".13" stop-color="#0b74de"/><stop offset=".46" stop-color="#2a6edf"/><stop offset=".87" stop-color="#4d67e1"/></linearGradient><path class="st6" d="M330.6 352.9c-1.1 0-2.2-.5-2.9-1.5-1-1.4-.7-3.3.6-4.5 1.1-1 2.9-1.2 4.2-.3 1.6 1.1 2 3.2 1 4.8-.3.4-.6.7-1 1-.6.4-1.3.5-1.9.5zm16.8-17.2c-.7 0-1.3-.2-1.9-.6-1.6-1.1-2-3.2-1-4.8.3-.4.6-.7 1-1 1.6-1.1 3.7-.6 4.8 1 .9 1.3.7 3.1-.3 4.2-.7.8-1.6 1.2-2.6 1.2zm14-19.7c-.7 0-1.3-.2-1.9-.6-1.5-1-2-2.9-1.1-4.5.8-1.5 2.5-2.2 4.1-1.7 1.8.6 2.8 2.6 2.2 4.4-.1.3-.2.6-.4.8-.7 1.1-1.8 1.6-2.9 1.6zm10.8-21.6c-.4 0-.7-.1-1.1-.2-1.8-.6-2.8-2.6-2.2-4.4.1-.3.2-.6.4-.8 1.1-1.6 3.2-2 4.8-1 1.4 1 1.9 2.8 1.2 4.3-.5 1.4-1.8 2.1-3.1 2.1zm7.3-22.9c-.4 0-.7-.1-1.1-.2-1.7-.6-2.6-2.2-2.3-3.9.3-1.6 1.7-2.8 3.4-2.8 1.9 0 3.4 1.5 3.4 3.4 0 .4-.1.8-.2 1.1-.4 1.4-1.8 2.4-3.2 2.4zm3.6-23.9c-1.9 0-3.4-1.5-3.4-3.4 0-.3 0-.6.1-.9.5-1.8 2.3-3 4.2-2.5 1.7.4 2.8 2 2.6 3.7-.2 1.8-1.7 3.1-3.5 3.1zm-.1-24.1c-1.8 0-3.2-1.4-3.4-3.1-.2-1.7.9-3.3 2.6-3.7 1.8-.5 3.7.7 4.2 2.5.1.3.1.6.1.9-.1 1.8-1.6 3.4-3.5 3.4z"/><g><linearGradient id="SVGID_3_" gradientUnits="userSpaceOnUse" x1="-54.112" y1="292.669" x2="95.451" y2="292.669" gradientTransform="rotate(-13.479 329.562 -339.564)"><stop offset=".13" stop-color="#0b74de"/><stop offset=".46" stop-color="#2a6edf"/><stop offset=".87" stop-color="#4d67e1"/></linearGradient><path class="st7" d="M234.9 391.1c-1.9 0-3.5-1.5-3.5-3.4s1.5-3.4 3.4-3.4 3.4 1.5 3.4 3.4-1.4 3.4-3.3 3.4zm-24.1-.9h-.4c-1.7-.2-3.1-1.6-3.1-3.4 0-1.9 1.5-3.4 3.4-3.4.3 0 .6 0 .9.1 1.8.5 3 2.3 2.5 4.2-.3 1.4-1.7 2.5-3.3 2.5zm48.1-2c-1.4 0-2.8-.9-3.3-2.4-.6-1.8.4-3.8 2.2-4.4.4-.1.7-.2 1.1-.2 1.9 0 3.4 1.5 3.4 3.4 0 1.7-1.2 3.1-2.8 3.4-.2.2-.4.2-.6.2zm-71.8-2.7c-.3 0-.6 0-.8-.1-.1 0-.2-.1-.3-.1-1.8-.6-2.8-2.6-2.2-4.4.6-1.8 2.5-2.7 4.3-2.2 1.8.5 2.8 2.3 2.4 4.1-.4 1.7-1.8 2.7-3.4 2.7zm-22.6-8.3c-.5 0-1-.1-1.4-.3-1.6-.7-2.4-2.5-1.8-4.2.6-1.8 2.6-2.8 4.4-2.2.3.1.6.2.8.4 1.6 1.1 2 3.2 1 4.8-.8 1-1.9 1.5-3 1.5zm-21.1-11.6c-.7 0-1.3-.2-1.9-.6-1.6-1.1-2-3.2-1-4.8 1.1-1.6 3.2-2 4.8-1 1.6 1.1 2 3.2 1 4.8-.7 1-1.8 1.6-2.9 1.6zm-19.1-14.8c-.9 0-1.7-.3-2.3-.9-1.2-1.1-1.5-3-.6-4.5 1.1-1.6 3.2-2 4.8-1 .4.3.7.6 1 1 1.1 1.6.6 3.7-1 4.8-.6.4-1.2.6-1.9.6zm-16.5-17.6c-.9 0-1.8-.3-2.4-1-.2-.2-.3-.4-.4-.5-1.1-1.6-.6-3.7 1-4.8 1.5-1 3.6-.7 4.6.8 1.1 1.4 1 3.3-.3 4.6-.7.5-1.6.9-2.5.9zm-13.6-20c-1.3 0-2.4-.7-3-1.8-.8-1.5-.4-3.5 1.1-4.5 1.6-1.1 3.7-.6 4.8 1 .2.3.3.5.4.8.6 1.8-.4 3.8-2.2 4.4-.4.1-.7.1-1.1.1z"/></g><g><linearGradient id="SVGID_4_" gradientUnits="userSpaceOnUse" x1="-58.526" y1="113.255" x2="29.528" y2="113.255" gradientTransform="rotate(-13.479 329.562 -339.564)"><stop offset=".13" stop-color="#0b74de"/><stop offset=".46" stop-color="#2a6edf"/><stop offset=".87" stop-color="#4d67e1"/></linearGradient><path class="st8" d="M74.3 249.2c-1.5 0-2.9-1-3.3-2.6-.1-.3-.1-.6-.1-.9 0-1.9 1.5-3.4 3.4-3.4 1.8 0 3.2 1.4 3.4 3.1.2 1.7-.9 3.3-2.6 3.7-.2 0-.5.1-.8.1zm-.1-24.2c-.3 0-.6 0-.8-.1-1.7-.4-2.8-2-2.6-3.7.2-1.7 1.6-3.1 3.4-3.1 1.9 0 3.4 1.5 3.4 3.4 0 .3 0 .6-.1.9-.4 1.6-1.8 2.6-3.3 2.6zm3.6-23.8c-1.9 0-3.4-1.5-3.4-3.4 0-.4.1-.8.2-1.1.6-1.8 2.5-2.8 4.4-2.2 1.7.6 2.6 2.2 2.3 3.9-.4 1.6-1.8 2.8-3.5 2.8zm7.3-23c-.7 0-1.3-.2-1.9-.6-1.4-1-1.9-2.8-1.2-4.3.7-1.6 2.5-2.4 4.2-1.8 1.8.6 2.8 2.6 2.2 4.4-.1.3-.2.6-.4.8-.7 1-1.8 1.5-2.9 1.5zm10.8-21.6c-.4 0-.7-.1-1.1-.2-1.8-.6-2.8-2.6-2.2-4.4.1-.3.2-.6.4-.8 1.1-1.6 3.2-2 4.8-1 1.5 1 2 2.9 1.1 4.5-.6 1.2-1.8 1.9-3 1.9zm14-19.6c-1.1 0-2.2-.5-2.9-1.5-.9-1.3-.7-3.1.3-4.2 1.1-1.2 3-1.5 4.5-.6 1.6 1.1 2 3.2 1 4.8-.3.4-.6.7-1 1-.6.3-1.3.5-1.9.5zm16.8-17.3c-.7 0-1.3-.2-1.9-.6-1.6-1.1-2-3.2-1-4.8.3-.4.6-.7 1-1 1.6-1.1 3.7-.6 4.8 1 1 1.4.7 3.3-.6 4.5-.6.6-1.4.9-2.3.9z"/></g></svg>