<svg version="1.1" id="Ebene_1" xmlns="http://www.w3.org/2000/svg" xmlns:xlink="http://www.w3.org/1999/xlink" x="0" y="0" viewBox="69.445 81.23 361.11 337.54" xml:space="preserve"><style>.st0{fill:#dde5f8}.st3{fill:#00e833}.st4{fill:#3f82f5}.st10{opacity:.36}.st11{fill:#2a6edf}.st14{fill:#2e6ddf}</style><path class="st0" d="M70.6 218.3c.7-5.9 1.9-11.7 3.6-17.4 1.1-3.9 2.5-7.7 4.1-11.5 8.7-21.1 23.6-40.6 42.7-56.9 2.8-2.4 5.6-4.7 8.6-7 17.9-13.7 38.9-24.9 61.3-32.6 3.9-1.3 7.9-2.6 11.9-3.7 19.2-5.4 39.3-8.2 59.4-7.8 82 1.5 153.9 103.3 160.5 216.1-.1 3.8-.3 7.4-.6 11-.4 4.7-1 9.3-1.8 13.7-4.6 26.1-15.5 47.2-30.9 63-2.6 2.6-5.3 5.1-8.1 7.5-19.6 16.3-45.1 25.2-73.6 26.1-5.2.2-10.5.1-15.9-.3-17.7-1.2-36.4-5.4-55.4-12.6-95-34.3-170.5-115.6-165.8-187.6z"/><path class="st4" d="M104.8 307.2c-6.2 0-11.7-4.7-12.6-11.1-12.4-91.8 50.8-176.5 140.9-188.6 90.1-12.2 173.5 52.6 185.9 144.4.9 6.9-3.9 13.4-10.7 14.4-3.4.5-6.7-.4-9.4-2.5s-4.4-5.1-4.9-8.4v-.6h4.5l4.4-.6c.1 1.1.7 2 1.5 2.6.8.6 1.7.9 2.7.7 2-.3 3.4-2.2 3.1-4.3-11.7-86.9-90.6-148.2-175.8-136.7C149.2 128 89.5 208.1 101.2 295c.3 2.1 2.1 3.6 4.2 3.3 1-.1 1.8-.6 2.4-1.4.6-.8.9-1.8.7-2.9l8.9-1.2c.5 3.4-.4 6.7-2.4 9.4s-5 4.5-8.4 5c-.7-.1-1.2 0-1.8 0z"/><defs><path id="SVGID_5_" d="M117.5 234.6c-.7-4.9-5.2-8.3-10.1-7.7-16.5 2.2-28.1 17.4-25.9 33.9l11 81.3c2.2 16.5 17.5 28.1 34 25.8 4.9-.7 8.3-5.1 7.6-10l-16.6-123.3z"/></defs><use xlink:href="#SVGID_5_" overflow="visible" fill="#2e6ddf"/><clipPath id="SVGID_1_"><use xlink:href="#SVGID_5_" overflow="visible"/></clipPath><path clip-path="url(#SVGID_1_)" fill="#2e6ddf" d="M79.3 226.2h8.8v144h-8.8zM88.2 226.2h.6v144h-.6z"/><path clip-path="url(#SVGID_1_)" fill="#2e6ddf" d="M88.7 226.2h.6v144h-.6zM89.3 226.2h.6v144h-.6z"/><path clip-path="url(#SVGID_1_)" fill="#2e6ddf" d="M89.8 226.2h.6v144h-.6zM90.4 226.2h.6v144h-.6zM91 226.2h.6v144H91z"/><path clip-path="url(#SVGID_1_)" fill="#2e6ddf" d="M91.5 226.2h.6v144h-.6zM92.1 226.2h.6v144h-.6zM92.7 226.2h.6v144h-.6z"/><path clip-path="url(#SVGID_1_)" fill="#2e6ddf" d="M93.2 226.2h.6v144h-.6zM93.8 226.2h.6v144h-.6zM94.4 226.2h.6v144h-.6z"/><path clip-path="url(#SVGID_1_)" fill="#2e6ddf" d="M94.9 226.2h.6v144h-.6zM95.5 226.2h.6v144h-.6zM96.1 226.2h.6v144h-.6z"/><path clip-path="url(#SVGID_1_)" fill="#2e6ddf" d="M96.6 226.2h.6v144h-.6zM97.2 226.2h.6v144h-.6z"/><path clip-path="url(#SVGID_1_)" fill="#2e6ddf" d="M97.7 226.2h.6v144h-.6zM98.3 226.2h.6v144h-.6zM98.9 226.2h.6v144h-.6z"/><path clip-path="url(#SVGID_1_)" fill="#2e6ddf" d="M99.4 226.2h.6v144h-.6zM100 226.2h.6v144h-.6zM100.6 226.2h.6v144h-.6z"/><path clip-path="url(#SVGID_1_)" fill="#2e6ddf" d="M101.1 226.2h.6v144h-.6zM101.7 226.2h.6v144h-.6zM102.3 226.2h.6v144h-.6z"/><path clip-path="url(#SVGID_1_)" fill="#2e6ddf" d="M102.8 226.2h.6v144h-.6zM103.4 226.2h.6v144h-.6z"/><path clip-path="url(#SVGID_1_)" fill="#2e6ddf" d="M103.9 226.2h.6v144h-.6zM104.5 226.2h.6v144h-.6zM105.1 226.2h.6v144h-.6z"/><path clip-path="url(#SVGID_1_)" fill="#2e6ddf" d="M105.6 226.2h.6v144h-.6zM106.3 226.2h.6v144h-.6zM106.9 226.2h.6v144h-.6zM107.5 226.2h.6v144h-.6zM108.1 226.2h.6v144h-.6zM108.7 226.2h.6v144h-.6zM109.4 226.2h.6v144h-.6zM110 226.2h.6v144h-.6zM110.6 226.2h.6v144h-.6zM111.2 226.2h.6v144h-.6zM111.8 226.2h.6v144h-.6zM112.5 226.2h.6v144h-.6zM113.1 226.2h.6v144h-.6zM113.7 226.2h.6v144h-.6zM114.3 226.2h.6v144h-.6zM115 226.2h.6v144h-.6zM115.6 226.2h.6v144h-.6zM116.2 226.2h.6v144h-.6zM116.8 226.2h.6v144h-.6zM117.4 226.2h.6v144h-.6zM118.1 226.2h.6v144h-.6zM118.7 226.2h.6v144h-.6zM119.3 226.2h.6v144h-.6zM119.9 226.2h.6v144h-.6zM120.5 226.2h.6v144h-.6zM121.2 226.2h.6v144h-.6zM121.8 226.2h.6v144h-.6zM122.4 226.2h.6v144h-.6zM123 226.2h.6v144h-.6zM123.6 226.2h.6v144h-.6zM124.3 226.2h.6v144h-.6zM124.9 226.2h.6v144h-.6zM125.5 226.2h.6v144h-.6zM126.1 226.2h.6v144h-.6zM126.7 226.2h.6v144h-.6zM127.4 226.2h7.5v144h-7.5z"/><g class="st10"><path class="st11" d="M266.8 350.4c-42.1 5.7-80.8-23.7-86.5-65.7-5.7-42 23.8-80.7 65.9-86.4 42.1-5.7 80.8 23.7 86.5 65.8 5.6 41.9-23.9 80.6-65.9 86.3z"/></g><g><circle class="st11" cx="256.5" cy="274.3" r="27.5"/></g><g><path class="st3" d="M256.5 385c-61.1 0-110.7-49.7-110.7-110.7s49.7-110.7 110.7-110.7 110.7 49.7 110.7 110.7S317.5 385 256.5 385zm0-212.4c-56.1 0-101.8 45.6-101.8 101.8 0 56.1 45.6 101.8 101.8 101.8 56.1 0 101.8-45.6 101.8-101.8-.1-56.2-45.7-101.8-101.8-101.8z"/></g><g><path class="st4" d="M352.2 389.4l-6.6-6.1 25.5-27.5c19.3-20.8 31.7-47.7 34.8-75.5.4-4 .4-5 .4-5.1 0 .5.4 1.6 1.5 2.4l5.6-7c2.3 1.8 2.2 4.4 1.5 10.7-3.4 29.8-16.5 58.4-37.1 80.6l-25.6 27.5z"/></g><g><defs><path id="SVGID_7_" d="M376.7 199.5c-.7-4.9 2.8-9.4 7.7-10.1 16.5-2.2 31.7 9.3 34 25.8l11 81.3c2.2 16.5-9.4 31.7-25.9 33.9-4.9.7-9.4-2.8-10-7.6l-16.8-123.3z"/></defs><use xlink:href="#SVGID_7_" overflow="visible" fill="#2e6ddf"/><clipPath id="SVGID_2_"><use xlink:href="#SVGID_7_" overflow="visible"/></clipPath><path clip-path="url(#SVGID_2_)" fill="#2e6ddf" d="M376.1 187.2h7.5v144h-7.5z"/><path clip-path="url(#SVGID_2_)" fill="#2e6ddf" d="M383.5 187.2h.6v144h-.6zM384.1 187.2h.6v144h-.6z"/><path clip-path="url(#SVGID_2_)" fill="#2e6ddf" d="M384.7 187.2h.6v144h-.6z"/><path clip-path="url(#SVGID_2_)" fill="#2e6ddf" d="M385.2 187.2h.6v144h-.6zM385.8 187.2h.6v144h-.6z"/><path clip-path="url(#SVGID_2_)" fill="#2e6ddf" d="M386.3 187.2h.6v144h-.6z"/><path clip-path="url(#SVGID_2_)" fill="#2e6ddf" d="M386.9 187.2h.6v144h-.6zM387.5 187.2h.6v144h-.6z"/><path clip-path="url(#SVGID_2_)" fill="#2e6ddf" d="M388 187.2h.6v144h-.6zM388.6 187.2h.6v144h-.6z"/><path clip-path="url(#SVGID_2_)" fill="#2e6ddf" d="M389.2 187.2h.6v144h-.6z"/><path clip-path="url(#SVGID_2_)" fill="#2e6ddf" d="M389.7 187.2h.6v144h-.6zM390.3 187.2h.6v144h-.6z"/><path clip-path="url(#SVGID_2_)" fill="#2e6ddf" d="M390.9 187.2h.6v144h-.6z"/><path clip-path="url(#SVGID_2_)" fill="#2e6ddf" d="M391.4 187.2h.6v144h-.6zM392 187.2h.6v144h-.6zM392.6 187.2h.6v144h-.6z"/><path clip-path="url(#SVGID_2_)" fill="#2e6ddf" d="M393.1 187.2h.6v144h-.6z"/><path clip-path="url(#SVGID_2_)" fill="#2e6ddf" d="M393.7 187.2h.6v144h-.6z"/><path clip-path="url(#SVGID_2_)" fill="#2e6ddf" d="M394.2 187.2h.6v144h-.6zM394.8 187.2h.6v144h-.6z"/><path clip-path="url(#SVGID_2_)" fill="#2e6ddf" d="M395.4 187.2h.6v144h-.6z"/><path clip-path="url(#SVGID_2_)" fill="#2e6ddf" d="M395.9 187.2h.6v144h-.6zM396.5 187.2h.6v144h-.6zM397.1 187.2h.6v144h-.6z"/><path clip-path="url(#SVGID_2_)" fill="#2e6ddf" d="M397.6 187.2h.6v144h-.6z"/><path clip-path="url(#SVGID_2_)" fill="#2e6ddf" d="M398.2 187.2h.6v144h-.6zM398.8 187.2h.6v144h-.6z"/><path clip-path="url(#SVGID_2_)" fill="#2e6ddf" d="M399.3 187.2h.6v144h-.6z"/><path clip-path="url(#SVGID_2_)" fill="#2e6ddf" d="M399.9 187.2h.6v144h-.6zM400.5 187.2h.6v144h-.6z"/><path clip-path="url(#SVGID_2_)" fill="#2e6ddf" d="M401 187.2h.6v144h-.6zM401.6 187.2h.6v144h-.6zM402.3 187.2h.6v144h-.6z"/><path clip-path="url(#SVGID_2_)" fill="#2e6ddf" d="M402.9 187.2h.6v144h-.6zM403.5 187.2h.6v144h-.6zM404.1 187.2h.6v144h-.6z"/><path clip-path="url(#SVGID_2_)" fill="#2e6ddf" d="M404.7 187.2h.6v144h-.6zM405.4 187.2h.6v144h-.6zM406 187.2h.6v144h-.6zM406.6 187.2h.6v144h-.6z"/><path clip-path="url(#SVGID_2_)" fill="#2e6ddf" d="M407.2 187.2h.6v144h-.6zM407.8 187.2h.6v144h-.6zM408.5 187.2h.6v144h-.6zM409.1 187.2h.6v144h-.6z"/><path clip-path="url(#SVGID_2_)" fill="#2e6ddf" d="M409.7 187.2h.6v144h-.6zM410.3 187.2h.6v144h-.6z"/><path clip-path="url(#SVGID_2_)" fill="#2e6ddf" d="M410.9 187.2h.6v144h-.6zM411.6 187.2h.6v144h-.6z"/><path clip-path="url(#SVGID_2_)" fill="#2e6ddf" d="M412.2 187.2h.6v144h-.6zM412.8 187.2h.6v144h-.6z"/><path clip-path="url(#SVGID_2_)" fill="#2e6ddf" d="M413.4 187.2h.6v144h-.6zM414.1 187.2h.6v144h-.6z"/><path clip-path="url(#SVGID_2_)" fill="#2e6ddf" d="M414.7 187.2h.6v144h-.6zM415.3 187.2h.6v144h-.6z"/><path clip-path="url(#SVGID_2_)" fill="#2e6ddf" d="M415.9 187.2h.6v144h-.6zM416.5 187.2h.6v144h-.6zM417.2 187.2h.6v144h-.6zM417.8 187.2h.6v144h-.6z"/><path clip-path="url(#SVGID_2_)" fill="#2e6ddf" d="M418.4 187.2h.6v144h-.6zM419 187.2h.6v144h-.6zM419.6 187.2h.6v144h-.6zM420.3 187.2h.6v144h-.6z"/><path clip-path="url(#SVGID_2_)" fill="#2e6ddf" d="M420.9 187.2h.6v144h-.6zM421.5 187.2h.6v144h-.6zM422.1 187.2h.6v144h-.6z"/><path clip-path="url(#SVGID_2_)" fill="#2e6ddf" d="M422.7 187.2h8.8v144h-8.8z"/></g><path class="st14" d="M370.1 365.3c5 6.4 3.8 15.6-2.6 20.5L341.4 406c-6.4 5-15.6 3.8-20.5-2.6-5-6.4-3.8-15.6 2.6-20.5l26.1-20.2c6.3-5 15.5-3.8 20.5 2.6z"/></svg>