<?xml version="1.0" encoding="utf-8"?>
<!-- Generator: Adobe Illustrator 16.0.4, SVG Export Plug-In . SVG Version: 6.00 Build 0)  -->
<!DOCTYPE svg PUBLIC "-//W3C//DTD SVG 1.1//EN" "http://www.w3.org/Graphics/SVG/1.1/DTD/svg11.dtd">
<svg version="1.1" id="Ebene_1" xmlns="http://www.w3.org/2000/svg" xmlns:xlink="http://www.w3.org/1999/xlink" x="0px" y="0px"
	 viewBox="-1664.5 2033.721 1749.601 576" preserveAspectRatio="none" xml:space="preserve">
<g id="Header_2_">
	<linearGradient id="path-2_3_" gradientUnits="userSpaceOnUse" x1="384.874" y1="311.1172" x2="384.5171" y2="312.0757" gradientTransform="matrix(2804.9272 0 0 -1738.3345 -1078752 543563.375)">
		<stop  offset="0" style="stop-color:#0B74DE"/>
		<stop  offset="0.2469" style="stop-color:#0A6ACC"/>
		<stop  offset="0.7415" style="stop-color:#06509C"/>
		<stop  offset="1" style="stop-color:#044181"/>
	</linearGradient>
	<path id="path-2_2_" fill="url(#path-2_3_)" d="M-18.629,2479.151c-775.932-236.208-1277.288-778.438-1119.811-1211.104
		s890.077-525.773,1636.308-207.959c746.23,317.812,1247.586,860.043,1119.811,1211.104S757.303,2715.36-18.629,2479.151z"/>
</g>
<g id="Header">
	<linearGradient id="path-2_4_" gradientUnits="userSpaceOnUse" x1="384.7173" y1="312.4834" x2="384.8118" y2="311.5578" gradientTransform="matrix(3612.8247 0 0 -3003.8999 -1389814.625 939054.125)">
		<stop  offset="0" style="stop-color:#0B74DE;stop-opacity:0.8"/>
		<stop  offset="1" style="stop-color:#00E833;stop-opacity:0.5"/>
	</linearGradient>
	<path id="path-2" fill="url(#path-2_4_)" d="M-457.564,2407.81c-674.908-452.421-1214.536-1340.499-1205.293-1983.58
		s993.468-976.522,2198.329-744.763S2279.96,799.306,1740.765,1663.047C1201.569,2526.787,217.344,2860.229-457.564,2407.81z"/>
</g>
<g id="Header_1_">
	<linearGradient id="path-2_5_" gradientUnits="userSpaceOnUse" x1="384.2598" y1="311.2705" x2="384.6629" y2="311.9348" gradientTransform="matrix(2625.6252 0 0 -1899.0656 -1009968.4375 593630.5625)">
		<stop  offset="0" style="stop-color:#4D10E1;stop-opacity:0.5"/>
		<stop  offset="1" style="stop-color:#0B74DE"/>
	</linearGradient>
	<path id="path-2_1_" fill="url(#path-2_5_)" d="M-397.777,2364.715c-586.896-222.096-1046.157-778.047-1025.79-1241.752
		c20.367-463.706,704.42-691.817,1527.875-509.502c823.455,182.316,1282.718,738.268,1025.791,1241.754
		C873.172,2358.699,189.118,2586.811-397.777,2364.715z"/>
</g>
</svg>
