<?xml version="1.0" encoding="utf-8"?>
<svg version="1.1" id="Ebene_1" xmlns="http://www.w3.org/2000/svg" xmlns:xlink="http://www.w3.org/1999/xlink" x="0px" y="0px"
	 viewBox="0 0 1450 656.5" preserveAspectRatio="none" xml:space="preserve">
<g id="Ebene_1_1_">
	<g id="what-is" transform="translate(-330.000000, 1283.000000)">
		
			<linearGradient id="SVGID_1_" gradientUnits="userSpaceOnUse" x1="1978.5449" y1="25.9023" x2="1977.6158" y2="26.267" gradientTransform="matrix(2261 0 0 605.5167 -4471408 -16782)">
			<stop  offset="0" style="stop-color:#00E833;stop-opacity:0.5"/>
			<stop  offset="0.0754" style="stop-color:#02D74C;stop-opacity:0.5226"/>
			<stop  offset="0.2301" style="stop-color:#04B978;stop-opacity:0.569"/>
			<stop  offset="0.3862" style="stop-color:#07A09D;stop-opacity:0.6158"/>
			<stop  offset="0.5416" style="stop-color:#098DB9;stop-opacity:0.6625"/>
			<stop  offset="0.696" style="stop-color:#0A7FCE;stop-opacity:0.7088"/>
			<stop  offset="0.8493" style="stop-color:#0B77DA;stop-opacity:0.7548"/>
			<stop  offset="1" style="stop-color:#0B74DE;stop-opacity:0.8"/>
		</linearGradient>
		<path fill="url(#SVGID_1_)" d="M1777.96-1172.342c-190.951-45.951-420.65-83.055-654.46-102.176
			c-294.863-24.114-583.191,7.66-795.5,76.995V-767.5c0,0.329-0.057,0.62-0.136,0.894v43.145
			c199.695,41.681,476.326,57.516,795.636,38.464c249.719-14.899,473.33-40.72,654.46-73.135V-1172.342z"/>
	</g>
</g>
<g id="Ebene_3">
	<g id="what-is_1_" transform="translate(-749.000000, 1283.000000)">
		
			<linearGradient id="SVGID_2_" gradientUnits="userSpaceOnUse" x1="2816.9824" y1="26.4531" x2="2815.8291" y2="26.0356" gradientTransform="matrix(3061.8333 0 0 591.4146 -8621272 -16425.375)">
			<stop  offset="0.2912" style="stop-color:#00E833;stop-opacity:0.5"/>
			<stop  offset="0.4799" style="stop-color:#04BB75;stop-opacity:0.6645"/>
			<stop  offset="0.6602" style="stop-color:#0895AE;stop-opacity:0.8216"/>
			<stop  offset="0.7934" style="stop-color:#0A7DD1;stop-opacity:0.9376"/>
			<stop  offset="0.865" style="stop-color:#0B74DE"/>
		</linearGradient>
		<path fill="url(#SVGID_2_)" d="M1229.023-1190.036c-176.565,11.147-337.232,24.318-480.023,39.154v443.718
			c400.184,70.319,865.013,102.75,1234.017,62.006c73.938-11.007,146.177-23.789,215.983-37.991v-534.279
			C1918.473-1222.214,1586.131-1213.66,1229.023-1190.036z"/>
	</g>
</g>
<g id="Ebene_2">
	<g id="Kyma-landingpage" transform="translate(0.000000, -1336.000000)">
		<g id="what-is_2_" transform="translate(0.000000, 1283.000000)">
			
				<linearGradient id="SVGID_3_" gradientUnits="userSpaceOnUse" x1="1318.2031" y1="25.4966" x2="1318.2031" y2="26.7263" gradientTransform="matrix(2578.3782 0 0 594.9626 -3398101.5 -15179.3125)">
				<stop  offset="0" style="stop-color:#4D10E1;stop-opacity:0.5"/>
				<stop  offset="1" style="stop-color:#0B74DE;stop-opacity:0.5"/>
			</linearGradient>
			<path fill="url(#SVGID_3_)" d="M244.953,111.537C156.987,115.208,74.945,121.413-1,129.742v542.413
				c263.759,30.475,564.924,33.786,846.175,22.048c211.646-8.834,424.936-40.528,604.825-86.464V172.015
				C1128.967,117.77,684.605,93.188,244.953,111.537z"/>
		</g>
	</g>
</g>
</svg>
